<svg width="128" height="46" viewBox="0 0 128 46" fill="none" xmlns="http://www.w3.org/2000/svg">
<path d="M6.64758 37.66H12.2076C12.4209 37.66 12.5776 37.6867 12.6776 37.74C12.7776 37.7867 12.8442 37.8633 12.8776 37.97C12.9109 38.0767 12.9276 38.2167 12.9276 38.39C12.9276 38.5633 12.9109 38.7033 12.8776 38.81C12.8442 38.91 12.7876 38.98 12.7076 39.02C12.5876 39.08 12.4176 39.11 12.1976 39.11H10.2876V44.14C10.2876 44.2933 10.2809 44.4067 10.2676 44.48C10.2609 44.5533 10.2309 44.64 10.1776 44.74C10.1309 44.8333 10.0442 44.9 9.91758 44.94C9.79091 44.98 9.62425 45 9.41758 45C9.21091 45 9.04425 44.98 8.91758 44.94C8.79758 44.9 8.71091 44.8333 8.65758 44.74C8.61091 44.64 8.58091 44.5533 8.56758 44.48C8.56091 44.4 8.55758 44.2833 8.55758 44.13V39.11H6.63758C6.42424 39.11 6.26758 39.0867 6.16758 39.04C6.06758 38.9867 6.00091 38.9067 5.96758 38.8C5.93424 38.6933 5.91758 38.5533 5.91758 38.38C5.91758 38.2067 5.93424 38.07 5.96758 37.97C6.00091 37.8633 6.05758 37.79 6.13758 37.75C6.25758 37.69 6.42758 37.66 6.64758 37.66ZM19.092 43.76C19.192 44 19.242 44.1733 19.242 44.28C19.242 44.5333 19.0354 44.7467 18.622 44.92C18.4087 45.0133 18.2354 45.06 18.102 45.06C17.9754 45.06 17.8687 45.03 17.782 44.97C17.702 44.9033 17.642 44.8367 17.602 44.77C17.5354 44.6433 17.2754 44.04 16.822 42.96L16.512 42.98H15.252V44.11C15.252 44.2633 15.2454 44.38 15.232 44.46C15.2254 44.5333 15.1954 44.62 15.142 44.72C15.0487 44.9 14.7887 44.99 14.362 44.99C13.8954 44.99 13.622 44.8667 13.542 44.62C13.502 44.5067 13.482 44.3333 13.482 44.1V38.55C13.482 38.3967 13.4854 38.2833 13.492 38.21C13.5054 38.13 13.5387 38.04 13.592 37.94C13.6854 37.76 13.9454 37.67 14.372 37.67H16.532C17.1187 37.67 17.6887 37.8833 18.242 38.31C18.5087 38.5167 18.7287 38.7967 18.902 39.15C19.0754 39.5033 19.162 39.8967 19.162 40.33C19.162 41.0833 18.912 41.7033 18.412 42.19C18.5587 42.5433 18.7854 43.0667 19.092 43.76ZM15.252 41.21H16.532C16.7254 41.21 16.9187 41.1367 17.112 40.99C17.3054 40.8433 17.402 40.6233 17.402 40.33C17.402 40.0367 17.3054 39.8167 17.112 39.67C16.9187 39.5167 16.7187 39.44 16.512 39.44H15.252V41.21ZM23.133 37.58C24.1196 37.58 24.9763 37.9367 25.703 38.65C26.4296 39.3633 26.793 40.25 26.793 41.31C26.793 42.3633 26.4463 43.2633 25.753 44.01C25.0596 44.75 24.2063 45.12 23.193 45.12C22.1796 45.12 21.3163 44.7533 20.603 44.02C19.8963 43.2867 19.543 42.4133 19.543 41.4C19.543 40.8467 19.643 40.33 19.843 39.85C20.043 39.3633 20.3096 38.9567 20.643 38.63C20.9763 38.3033 21.3596 38.0467 21.793 37.86C22.2263 37.6733 22.673 37.58 23.133 37.58ZM21.313 41.35C21.313 41.9433 21.503 42.4267 21.883 42.8C22.2696 43.1667 22.6996 43.35 23.173 43.35C23.6463 43.35 24.073 43.17 24.453 42.81C24.833 42.45 25.023 41.9667 25.023 41.36C25.023 40.7533 24.8296 40.2667 24.443 39.9C24.063 39.5333 23.6363 39.35 23.163 39.35C22.6896 39.35 22.263 39.5367 21.883 39.91C21.503 40.2767 21.313 40.7567 21.313 41.35ZM32.2369 37.94C32.3035 37.8333 32.4002 37.76 32.5269 37.72C32.6535 37.68 32.8102 37.66 32.9969 37.66C33.1902 37.66 33.3435 37.6767 33.4569 37.71C33.5702 37.7433 33.6569 37.7833 33.7169 37.83C33.7769 37.8767 33.8202 37.9467 33.8469 38.04C33.8869 38.1533 33.9069 38.3267 33.9069 38.56V41.58C33.9069 42.46 33.6335 43.26 33.0869 43.98C32.8202 44.32 32.4769 44.5967 32.0569 44.81C31.6369 45.0167 31.1702 45.12 30.6569 45.12C30.1502 45.12 29.6869 45.0133 29.2669 44.8C28.8535 44.5867 28.5169 44.3067 28.2569 43.96C27.7169 43.2533 27.4469 42.4533 27.4469 41.56V38.55C27.4469 38.39 27.4502 38.2733 27.4569 38.2C27.4702 38.12 27.5035 38.03 27.5569 37.93C27.6102 37.83 27.7002 37.76 27.8269 37.72C27.9535 37.68 28.1235 37.66 28.3369 37.66C28.5502 37.66 28.7202 37.68 28.8469 37.72C28.9735 37.76 29.0602 37.83 29.1069 37.93C29.1869 38.0833 29.2269 38.2933 29.2269 38.56V41.56C29.2269 41.9667 29.3269 42.3533 29.5269 42.72C29.6269 42.9067 29.7769 43.0567 29.9769 43.17C30.1769 43.2833 30.4135 43.34 30.6869 43.34C31.1735 43.34 31.5369 43.16 31.7769 42.8C32.0169 42.44 32.1369 42.0233 32.1369 41.55V38.49C32.1369 38.23 32.1702 38.0467 32.2369 37.94ZM41.3927 37.78C41.7861 37.9733 41.9827 38.1867 41.9827 38.42C41.9827 38.5267 41.9327 38.6867 41.8327 38.9L39.0727 44.5C38.9994 44.6467 38.8861 44.7667 38.7327 44.86C38.5861 44.9467 38.4327 44.99 38.2727 44.99H38.1727C38.0061 44.99 37.8461 44.9467 37.6927 44.86C37.5461 44.7667 37.4361 44.6467 37.3627 44.5L34.6027 38.9C34.5027 38.6867 34.4527 38.5267 34.4527 38.42C34.4527 38.1867 34.6494 37.9733 35.0427 37.78C35.2627 37.6667 35.4294 37.61 35.5427 37.61C35.6627 37.61 35.7527 37.6233 35.8127 37.65C35.8727 37.6767 35.9294 37.7233 35.9827 37.79C36.0427 37.87 36.0961 37.96 36.1427 38.06C36.1961 38.1533 36.3261 38.43 36.5327 38.89C36.7394 39.3433 36.9594 39.8267 37.1927 40.34C37.4327 40.8533 37.6561 41.34 37.8627 41.8C38.0761 42.2533 38.1961 42.5067 38.2227 42.56L40.2227 38.18C40.2761 38.0533 40.3227 37.9533 40.3627 37.88C40.4827 37.7 40.6294 37.61 40.8027 37.61C40.9761 37.61 41.1727 37.6667 41.3927 37.78ZM44.3048 43.23H47.3848C47.5381 43.23 47.6514 43.2367 47.7248 43.25C47.8048 43.2567 47.8948 43.2867 47.9948 43.34C48.1748 43.4333 48.2648 43.6933 48.2648 44.12C48.2648 44.5867 48.1414 44.86 47.8948 44.94C47.7814 44.98 47.6081 45 47.3748 45H43.4148C42.9481 45 42.6748 44.8733 42.5948 44.62C42.5548 44.5133 42.5348 44.3433 42.5348 44.11V38.55C42.5348 38.21 42.5981 37.98 42.7248 37.86C42.8514 37.7333 43.0914 37.67 43.4448 37.67H47.3848C47.5381 37.67 47.6514 37.6767 47.7248 37.69C47.8048 37.6967 47.8948 37.7267 47.9948 37.78C48.1748 37.8733 48.2648 38.1333 48.2648 38.56C48.2648 39.0267 48.1414 39.3 47.8948 39.38C47.7814 39.42 47.6081 39.44 47.3748 39.44H44.3048V40.45H46.2848C46.4381 40.45 46.5514 40.4567 46.6248 40.47C46.7048 40.4767 46.7948 40.5067 46.8948 40.56C47.0748 40.6533 47.1648 40.9133 47.1648 41.34C47.1648 41.8067 47.0381 42.08 46.7848 42.16C46.6714 42.2 46.4981 42.22 46.2648 42.22H44.3048V43.23ZM54.5217 43.76C54.6217 44 54.6717 44.1733 54.6717 44.28C54.6717 44.5333 54.4651 44.7467 54.0517 44.92C53.8384 45.0133 53.6651 45.06 53.5317 45.06C53.4051 45.06 53.2984 45.03 53.2117 44.97C53.1317 44.9033 53.0717 44.8367 53.0317 44.77C52.9651 44.6433 52.7051 44.04 52.2517 42.96L51.9417 42.98H50.6817V44.11C50.6817 44.2633 50.6751 44.38 50.6617 44.46C50.6551 44.5333 50.6251 44.62 50.5717 44.72C50.4784 44.9 50.2184 44.99 49.7917 44.99C49.3251 44.99 49.0517 44.8667 48.9717 44.62C48.9317 44.5067 48.9117 44.3333 48.9117 44.1V38.55C48.9117 38.3967 48.9151 38.2833 48.9217 38.21C48.9351 38.13 48.9684 38.04 49.0217 37.94C49.1151 37.76 49.3751 37.67 49.8017 37.67H51.9617C52.5484 37.67 53.1184 37.8833 53.6717 38.31C53.9384 38.5167 54.1584 38.7967 54.3317 39.15C54.5051 39.5033 54.5917 39.8967 54.5917 40.33C54.5917 41.0833 54.3417 41.7033 53.8417 42.19C53.9884 42.5433 54.2151 43.0667 54.5217 43.76ZM50.6817 41.21H51.9617C52.1551 41.21 52.3484 41.1367 52.5417 40.99C52.7351 40.8433 52.8317 40.6233 52.8317 40.33C52.8317 40.0367 52.7351 39.8167 52.5417 39.67C52.3484 39.5167 52.1484 39.44 51.9417 39.44H50.6817V41.21ZM62.5396 37.94C62.6063 37.8333 62.7029 37.76 62.8296 37.72C62.9563 37.68 63.1129 37.66 63.2996 37.66C63.4929 37.66 63.6463 37.6767 63.7596 37.71C63.8729 37.7433 63.9596 37.7833 64.0196 37.83C64.0796 37.8767 64.1229 37.9467 64.1496 38.04C64.1896 38.1533 64.2096 38.3267 64.2096 38.56V41.58C64.2096 42.46 63.9363 43.26 63.3896 43.98C63.1229 44.32 62.7796 44.5967 62.3596 44.81C61.9396 45.0167 61.4729 45.12 60.9596 45.12C60.4529 45.12 59.9896 45.0133 59.5696 44.8C59.1563 44.5867 58.8196 44.3067 58.5596 43.96C58.0196 43.2533 57.7496 42.4533 57.7496 41.56V38.55C57.7496 38.39 57.7529 38.2733 57.7596 38.2C57.7729 38.12 57.8063 38.03 57.8596 37.93C57.9129 37.83 58.0029 37.76 58.1296 37.72C58.2563 37.68 58.4263 37.66 58.6396 37.66C58.8529 37.66 59.0229 37.68 59.1496 37.72C59.2763 37.76 59.3629 37.83 59.4096 37.93C59.4896 38.0833 59.5296 38.2933 59.5296 38.56V41.56C59.5296 41.9667 59.6296 42.3533 59.8296 42.72C59.9296 42.9067 60.0796 43.0567 60.2796 43.17C60.4796 43.2833 60.7163 43.34 60.9896 43.34C61.4763 43.34 61.8396 43.16 62.0796 42.8C62.3196 42.44 62.4396 42.0233 62.4396 41.55V38.49C62.4396 38.23 62.4729 38.0467 62.5396 37.94ZM69.7355 37.98C69.8021 37.86 69.8988 37.78 70.0255 37.74C70.1521 37.7 70.3088 37.68 70.4955 37.68C70.6888 37.68 70.8421 37.6967 70.9555 37.73C71.0755 37.7633 71.1621 37.8033 71.2155 37.85C71.2755 37.8967 71.3188 37.9667 71.3455 38.06C71.3855 38.1667 71.4055 38.3367 71.4055 38.57V44.12C71.4055 44.28 71.3988 44.3967 71.3855 44.47C71.3788 44.5433 71.3488 44.63 71.2955 44.73C71.2021 44.91 70.9421 45 70.5155 45C70.2555 45 70.0755 44.98 69.9755 44.94C69.8755 44.9 69.7921 44.8367 69.7255 44.75C68.2255 42.75 67.2388 41.4433 66.7655 40.83V44.12C66.7655 44.28 66.7588 44.3967 66.7455 44.47C66.7388 44.5433 66.7088 44.63 66.6555 44.73C66.5621 44.91 66.3021 45 65.8755 45C65.4621 45 65.2088 44.91 65.1155 44.73C65.0621 44.63 65.0288 44.54 65.0155 44.46C65.0088 44.38 65.0055 44.2633 65.0055 44.11V38.53C65.0055 38.2767 65.0355 38.0933 65.0955 37.98C65.1621 37.86 65.2588 37.78 65.3855 37.74C65.5121 37.7 65.6755 37.68 65.8755 37.68C66.0755 37.68 66.2321 37.7 66.3455 37.74C66.4655 37.7733 66.5488 37.8133 66.5955 37.86C66.6221 37.88 66.6988 37.9667 66.8255 38.12C68.2321 40.0333 69.1721 41.2967 69.6455 41.91V38.53C69.6455 38.2767 69.6755 38.0933 69.7355 37.98ZM73.9727 43.23H77.0527C77.2061 43.23 77.3194 43.2367 77.3927 43.25C77.4727 43.2567 77.5627 43.2867 77.6627 43.34C77.8427 43.4333 77.9327 43.6933 77.9327 44.12C77.9327 44.5867 77.8094 44.86 77.5627 44.94C77.4494 44.98 77.2761 45 77.0427 45H73.0827C72.6161 45 72.3427 44.8733 72.2627 44.62C72.2227 44.5133 72.2027 44.3433 72.2027 44.11V38.55C72.2027 38.21 72.2661 37.98 72.3927 37.86C72.5194 37.7333 72.7594 37.67 73.1127 37.67H77.0527C77.2061 37.67 77.3194 37.6767 77.3927 37.69C77.4727 37.6967 77.5627 37.7267 77.6627 37.78C77.8427 37.8733 77.9327 38.1333 77.9327 38.56C77.9327 39.0267 77.8094 39.3 77.5627 39.38C77.4494 39.42 77.2761 39.44 77.0427 39.44H73.9727V40.45H75.9527C76.1061 40.45 76.2194 40.4567 76.2927 40.47C76.3727 40.4767 76.4627 40.5067 76.5627 40.56C76.7427 40.6533 76.8327 40.9133 76.8327 41.34C76.8327 41.8067 76.7061 42.08 76.4527 42.16C76.3394 42.2 76.1661 42.22 75.9327 42.22H73.9727V43.23ZM85.339 38.19L88.039 43.77C88.1523 43.9967 88.209 44.1667 88.209 44.28C88.209 44.52 88.0157 44.7367 87.629 44.93C87.4023 45.0433 87.2223 45.1 87.089 45.1C86.9623 45.1 86.8557 45.07 86.769 45.01C86.689 44.95 86.629 44.8867 86.589 44.82C86.5557 44.7533 86.5057 44.6533 86.439 44.52L85.919 43.44H83.149L82.629 44.52C82.5623 44.6533 82.509 44.75 82.469 44.81C82.4357 44.87 82.3757 44.9333 82.289 45C82.209 45.06 82.1023 45.09 81.969 45.09C81.8423 45.09 81.6657 45.0333 81.439 44.92C81.0523 44.7333 80.859 44.52 80.859 44.28C80.859 44.1667 80.9157 43.9967 81.029 43.77L83.729 38.18C83.8023 38.0267 83.9123 37.9033 84.059 37.81C84.2123 37.7167 84.3723 37.67 84.539 37.67C84.899 37.67 85.1657 37.8433 85.339 38.19ZM84.529 40.59L83.869 41.96H85.199L84.529 40.59ZM92.5755 40.58H94.3355C94.6955 40.5933 94.9155 40.6867 94.9955 40.86C95.0621 40.9867 95.0955 41.1733 95.0955 41.42V43.62C95.0955 43.8333 95.0021 44.0367 94.8155 44.23C94.2555 44.81 93.4155 45.1 92.2955 45.1C91.3021 45.1 90.4388 44.7267 89.7055 43.98C88.9721 43.2267 88.6055 42.32 88.6055 41.26C88.6055 40.2 88.9788 39.3167 89.7255 38.61C90.4721 37.8967 91.3521 37.54 92.3655 37.54C93.1521 37.54 93.8955 37.8 94.5955 38.32C94.7755 38.4533 94.8655 38.6033 94.8655 38.77C94.8655 38.93 94.7888 39.1167 94.6355 39.33C94.3755 39.6833 94.1388 39.86 93.9255 39.86C93.7988 39.86 93.5955 39.77 93.3155 39.59C93.0355 39.4033 92.7021 39.31 92.3155 39.31C91.8088 39.31 91.3588 39.49 90.9655 39.85C90.5721 40.2033 90.3755 40.67 90.3755 41.25C90.3755 41.8233 90.5755 42.3133 90.9755 42.72C91.3755 43.12 91.8288 43.32 92.3355 43.32C92.7021 43.32 93.0321 43.26 93.3255 43.14V42.05H92.5355C92.3288 42.05 92.1821 42.0233 92.0955 41.97C92.0088 41.9167 91.9521 41.84 91.9255 41.74C91.8988 41.6333 91.8855 41.4933 91.8855 41.32C91.8855 41.14 91.8988 40.9967 91.9255 40.89C91.9588 40.7833 92.0155 40.71 92.0955 40.67C92.2155 40.61 92.3755 40.58 92.5755 40.58ZM97.6641 43.23H100.744C100.897 43.23 101.011 43.2367 101.084 43.25C101.164 43.2567 101.254 43.2867 101.354 43.34C101.534 43.4333 101.624 43.6933 101.624 44.12C101.624 44.5867 101.501 44.86 101.254 44.94C101.141 44.98 100.967 45 100.734 45H96.7741C96.3075 45 96.0341 44.8733 95.9541 44.62C95.9141 44.5133 95.8941 44.3433 95.8941 44.11V38.55C95.8941 38.21 95.9575 37.98 96.0841 37.86C96.2108 37.7333 96.4508 37.67 96.8041 37.67H100.744C100.897 37.67 101.011 37.6767 101.084 37.69C101.164 37.6967 101.254 37.7267 101.354 37.78C101.534 37.8733 101.624 38.1333 101.624 38.56C101.624 39.0267 101.501 39.3 101.254 39.38C101.141 39.42 100.967 39.44 100.734 39.44H97.6641V40.45H99.6441C99.7975 40.45 99.9108 40.4567 99.9841 40.47C100.064 40.4767 100.154 40.5067 100.254 40.56C100.434 40.6533 100.524 40.9133 100.524 41.34C100.524 41.8067 100.397 42.08 100.144 42.16C100.031 42.2 99.8575 42.22 99.6241 42.22H97.6641V43.23ZM107.001 37.98C107.068 37.86 107.164 37.78 107.291 37.74C107.418 37.7 107.574 37.68 107.761 37.68C107.954 37.68 108.108 37.6967 108.221 37.73C108.341 37.7633 108.428 37.8033 108.481 37.85C108.541 37.8967 108.584 37.9667 108.611 38.06C108.651 38.1667 108.671 38.3367 108.671 38.57V44.12C108.671 44.28 108.664 44.3967 108.651 44.47C108.644 44.5433 108.614 44.63 108.561 44.73C108.468 44.91 108.208 45 107.781 45C107.521 45 107.341 44.98 107.241 44.94C107.141 44.9 107.058 44.8367 106.991 44.75C105.491 42.75 104.504 41.4433 104.031 40.83V44.12C104.031 44.28 104.024 44.3967 104.011 44.47C104.004 44.5433 103.974 44.63 103.921 44.73C103.828 44.91 103.568 45 103.141 45C102.728 45 102.474 44.91 102.381 44.73C102.328 44.63 102.294 44.54 102.281 44.46C102.274 44.38 102.271 44.2633 102.271 44.11V38.53C102.271 38.2767 102.301 38.0933 102.361 37.98C102.428 37.86 102.524 37.78 102.651 37.74C102.778 37.7 102.941 37.68 103.141 37.68C103.341 37.68 103.498 37.7 103.611 37.74C103.731 37.7733 103.814 37.8133 103.861 37.86C103.888 37.88 103.964 37.9667 104.091 38.12C105.498 40.0333 106.438 41.2967 106.911 41.91V38.53C106.911 38.2767 106.941 38.0933 107.001 37.98ZM114.048 43.08L114.228 42.95C114.455 42.8167 114.615 42.75 114.708 42.75C114.915 42.75 115.138 42.9367 115.378 43.31C115.525 43.5433 115.598 43.73 115.598 43.87C115.598 44.01 115.552 44.1267 115.458 44.22C115.372 44.3133 115.268 44.3967 115.148 44.47C115.028 44.5433 114.912 44.6133 114.798 44.68C114.692 44.7467 114.468 44.8333 114.128 44.94C113.788 45.0467 113.458 45.1 113.138 45.1C112.825 45.1 112.505 45.06 112.178 44.98C111.858 44.8933 111.525 44.7533 111.178 44.56C110.838 44.36 110.532 44.12 110.258 43.84C109.985 43.5533 109.758 43.19 109.578 42.75C109.405 42.3033 109.318 41.82 109.318 41.3C109.318 40.78 109.405 40.31 109.578 39.89C109.752 39.4633 109.972 39.1133 110.238 38.84C110.512 38.56 110.822 38.3267 111.168 38.14C111.822 37.78 112.478 37.6 113.138 37.6C113.452 37.6 113.768 37.65 114.088 37.75C114.415 37.8433 114.662 37.94 114.828 38.04L115.068 38.18C115.188 38.2533 115.282 38.3133 115.348 38.36C115.522 38.5 115.608 38.66 115.608 38.84C115.608 39.0133 115.538 39.1967 115.398 39.39C115.138 39.75 114.905 39.93 114.698 39.93C114.578 39.93 114.408 39.8567 114.188 39.71C113.908 39.4833 113.535 39.37 113.068 39.37C112.635 39.37 112.208 39.52 111.788 39.82C111.588 39.9667 111.422 40.1733 111.288 40.44C111.155 40.7067 111.088 41.01 111.088 41.35C111.088 41.6833 111.155 41.9833 111.288 42.25C111.422 42.5167 111.592 42.7267 111.798 42.88C112.205 43.1733 112.628 43.32 113.068 43.32C113.275 43.32 113.468 43.2933 113.648 43.24C113.835 43.1867 113.968 43.1333 114.048 43.08ZM118.025 43.23H121.105C121.259 43.23 121.372 43.2367 121.445 43.25C121.525 43.2567 121.615 43.2867 121.715 43.34C121.895 43.4333 121.985 43.6933 121.985 44.12C121.985 44.5867 121.862 44.86 121.615 44.94C121.502 44.98 121.329 45 121.095 45H117.135C116.669 45 116.395 44.8733 116.315 44.62C116.275 44.5133 116.255 44.3433 116.255 44.11V38.55C116.255 38.21 116.319 37.98 116.445 37.86C116.572 37.7333 116.812 37.67 117.165 37.67H121.105C121.259 37.67 121.372 37.6767 121.445 37.69C121.525 37.6967 121.615 37.7267 121.715 37.78C121.895 37.8733 121.985 38.1333 121.985 38.56C121.985 39.0267 121.862 39.3 121.615 39.38C121.502 39.42 121.329 39.44 121.095 39.44H118.025V40.45H120.005C120.159 40.45 120.272 40.4567 120.345 40.47C120.425 40.4767 120.515 40.5067 120.615 40.56C120.795 40.6533 120.885 40.9133 120.885 41.34C120.885 41.8067 120.759 42.08 120.505 42.16C120.392 42.2 120.219 42.22 119.985 42.22H118.025V43.23Z" fill="white"/>
<path d="M63.5504 0C57.718 0 53 4.71804 53 10.5504C53 13.5851 54.5174 16.3353 56.011 18.8721C57.8366 22.0254 60.0178 24.9653 62.5546 27.5732C63.0999 28.1423 64.0008 28.1423 64.5699 27.5732C66.7985 25.3683 68.7663 22.8789 70.4259 20.2235C72.2041 17.3548 74.1245 14.0356 74.1245 10.5504C74.1008 4.74175 69.3827 0 63.5504 0ZM63.5504 16.6672C60.0178 16.6672 57.149 13.7985 57.149 10.2659C57.149 6.73328 60.0178 3.86453 63.5504 3.86453C67.083 3.86453 69.9517 6.70957 69.9517 10.2659C69.9517 13.8222 67.083 16.6672 63.5504 16.6672Z" fill="white"/>
</svg>
