<svg width="89" height="47" viewBox="0 0 89 47" fill="none" xmlns="http://www.w3.org/2000/svg">
<path d="M15.9269 39.19L18.6269 44.77C18.7402 44.9967 18.7969 45.1667 18.7969 45.28C18.7969 45.52 18.6035 45.7367 18.2169 45.93C17.9902 46.0433 17.8102 46.1 17.6769 46.1C17.5502 46.1 17.4435 46.07 17.3569 46.01C17.2769 45.95 17.2169 45.8867 17.1769 45.82C17.1435 45.7533 17.0935 45.6533 17.0269 45.52L16.5069 44.44H13.7369L13.2169 45.52C13.1502 45.6533 13.0969 45.75 13.0569 45.81C13.0235 45.87 12.9635 45.9333 12.8769 46C12.7969 46.06 12.6902 46.09 12.5569 46.09C12.4302 46.09 12.2535 46.0333 12.0269 45.92C11.6402 45.7333 11.4469 45.52 11.4469 45.28C11.4469 45.1667 11.5035 44.9967 11.6169 44.77L14.3169 39.18C14.3902 39.0267 14.5002 38.9033 14.6469 38.81C14.8002 38.7167 14.9602 38.67 15.1269 38.67C15.4869 38.67 15.7535 38.8433 15.9269 39.19ZM15.1169 41.59L14.4569 42.96H15.7869L15.1169 41.59ZM19.1506 44.97C18.9773 44.7567 18.8906 44.5667 18.8906 44.4C18.8906 44.2267 19.034 44 19.3206 43.72C19.4873 43.56 19.664 43.48 19.8506 43.48C20.0373 43.48 20.2973 43.6467 20.6306 43.98C20.724 44.0933 20.8573 44.2033 21.0306 44.31C21.204 44.41 21.364 44.46 21.5106 44.46C22.1306 44.46 22.4406 44.2067 22.4406 43.7C22.4406 43.5467 22.354 43.42 22.1806 43.32C22.014 43.2133 21.804 43.1367 21.5506 43.09C21.2973 43.0433 21.024 42.97 20.7306 42.87C20.4373 42.7633 20.164 42.64 19.9106 42.5C19.6573 42.36 19.444 42.14 19.2706 41.84C19.104 41.5333 19.0206 41.1667 19.0206 40.74C19.0206 40.1533 19.2373 39.6433 19.6706 39.21C20.1106 38.77 20.7073 38.55 21.4606 38.55C21.8606 38.55 22.224 38.6033 22.5506 38.71C22.884 38.81 23.114 38.9133 23.2406 39.02L23.4906 39.21C23.6973 39.4033 23.8006 39.5667 23.8006 39.7C23.8006 39.8333 23.7206 40.0167 23.5606 40.25C23.334 40.5833 23.1006 40.75 22.8606 40.75C22.7206 40.75 22.5473 40.6833 22.3406 40.55C22.3206 40.5367 22.2806 40.5033 22.2206 40.45C22.1673 40.3967 22.1173 40.3533 22.0706 40.32C21.9306 40.2333 21.7506 40.19 21.5306 40.19C21.3173 40.19 21.1373 40.2433 20.9906 40.35C20.8506 40.45 20.7806 40.5933 20.7806 40.78C20.7806 40.96 20.864 41.1067 21.0306 41.22C21.204 41.3333 21.4173 41.41 21.6706 41.45C21.924 41.49 22.2006 41.5533 22.5006 41.64C22.8006 41.72 23.0773 41.82 23.3306 41.94C23.584 42.06 23.794 42.27 23.9606 42.57C24.134 42.8633 24.2206 43.2267 24.2206 43.66C24.2206 44.0933 24.134 44.4767 23.9606 44.81C23.7873 45.1367 23.5606 45.39 23.2806 45.57C22.7406 45.9233 22.164 46.1 21.5506 46.1C21.2373 46.1 20.9406 46.0633 20.6606 45.99C20.3806 45.91 20.154 45.8133 19.9806 45.7C19.6273 45.4867 19.3806 45.28 19.2406 45.08L19.1506 44.97ZM24.9807 44.97C24.8074 44.7567 24.7207 44.5667 24.7207 44.4C24.7207 44.2267 24.864 44 25.1507 43.72C25.3174 43.56 25.494 43.48 25.6807 43.48C25.8674 43.48 26.1274 43.6467 26.4607 43.98C26.554 44.0933 26.6874 44.2033 26.8607 44.31C27.034 44.41 27.194 44.46 27.3407 44.46C27.9607 44.46 28.2707 44.2067 28.2707 43.7C28.2707 43.5467 28.184 43.42 28.0107 43.32C27.844 43.2133 27.634 43.1367 27.3807 43.09C27.1274 43.0433 26.854 42.97 26.5607 42.87C26.2674 42.7633 25.994 42.64 25.7407 42.5C25.4874 42.36 25.274 42.14 25.1007 41.84C24.934 41.5333 24.8507 41.1667 24.8507 40.74C24.8507 40.1533 25.0674 39.6433 25.5007 39.21C25.9407 38.77 26.5374 38.55 27.2907 38.55C27.6907 38.55 28.054 38.6033 28.3807 38.71C28.714 38.81 28.944 38.9133 29.0707 39.02L29.3207 39.21C29.5274 39.4033 29.6307 39.5667 29.6307 39.7C29.6307 39.8333 29.5507 40.0167 29.3907 40.25C29.164 40.5833 28.9307 40.75 28.6907 40.75C28.5507 40.75 28.3774 40.6833 28.1707 40.55C28.1507 40.5367 28.1107 40.5033 28.0507 40.45C27.9974 40.3967 27.9474 40.3533 27.9007 40.32C27.7607 40.2333 27.5807 40.19 27.3607 40.19C27.1474 40.19 26.9674 40.2433 26.8207 40.35C26.6807 40.45 26.6107 40.5933 26.6107 40.78C26.6107 40.96 26.694 41.1067 26.8607 41.22C27.034 41.3333 27.2474 41.41 27.5007 41.45C27.754 41.49 28.0307 41.5533 28.3307 41.64C28.6307 41.72 28.9074 41.82 29.1607 41.94C29.414 42.06 29.624 42.27 29.7907 42.57C29.964 42.8633 30.0507 43.2267 30.0507 43.66C30.0507 44.0933 29.964 44.4767 29.7907 44.81C29.6174 45.1367 29.3907 45.39 29.1107 45.57C28.5707 45.9233 27.994 46.1 27.3807 46.1C27.0674 46.1 26.7707 46.0633 26.4907 45.99C26.2107 45.91 25.984 45.8133 25.8107 45.7C25.4574 45.4867 25.2107 45.28 25.0707 45.08L24.9807 44.97ZM35.4908 38.94C35.5574 38.8333 35.6541 38.76 35.7808 38.72C35.9074 38.68 36.0641 38.66 36.2508 38.66C36.4441 38.66 36.5974 38.6767 36.7108 38.71C36.8241 38.7433 36.9108 38.7833 36.9708 38.83C37.0308 38.8767 37.0741 38.9467 37.1008 39.04C37.1408 39.1533 37.1608 39.3267 37.1608 39.56V42.58C37.1608 43.46 36.8874 44.26 36.3408 44.98C36.0741 45.32 35.7308 45.5967 35.3108 45.81C34.8908 46.0167 34.4241 46.12 33.9108 46.12C33.4041 46.12 32.9408 46.0133 32.5208 45.8C32.1074 45.5867 31.7708 45.3067 31.5108 44.96C30.9708 44.2533 30.7008 43.4533 30.7008 42.56V39.55C30.7008 39.39 30.7041 39.2733 30.7108 39.2C30.7241 39.12 30.7574 39.03 30.8108 38.93C30.8641 38.83 30.9541 38.76 31.0808 38.72C31.2074 38.68 31.3774 38.66 31.5908 38.66C31.8041 38.66 31.9741 38.68 32.1008 38.72C32.2274 38.76 32.3141 38.83 32.3608 38.93C32.4408 39.0833 32.4808 39.2933 32.4808 39.56V42.56C32.4808 42.9667 32.5808 43.3533 32.7808 43.72C32.8808 43.9067 33.0308 44.0567 33.2308 44.17C33.4308 44.2833 33.6674 44.34 33.9408 44.34C34.4274 44.34 34.7908 44.16 35.0308 43.8C35.2708 43.44 35.3908 43.0233 35.3908 42.55V39.49C35.3908 39.23 35.4241 39.0467 35.4908 38.94ZM43.5666 44.76C43.6666 45 43.7166 45.1733 43.7166 45.28C43.7166 45.5333 43.51 45.7467 43.0966 45.92C42.8833 46.0133 42.71 46.06 42.5766 46.06C42.45 46.06 42.3433 46.03 42.2566 45.97C42.1766 45.9033 42.1166 45.8367 42.0766 45.77C42.01 45.6433 41.75 45.04 41.2966 43.96L40.9866 43.98H39.7266V45.11C39.7266 45.2633 39.72 45.38 39.7066 45.46C39.7 45.5333 39.67 45.62 39.6166 45.72C39.5233 45.9 39.2633 45.99 38.8366 45.99C38.37 45.99 38.0966 45.8667 38.0166 45.62C37.9766 45.5067 37.9566 45.3333 37.9566 45.1V39.55C37.9566 39.3967 37.96 39.2833 37.9666 39.21C37.98 39.13 38.0133 39.04 38.0666 38.94C38.16 38.76 38.42 38.67 38.8466 38.67H41.0066C41.5933 38.67 42.1633 38.8833 42.7166 39.31C42.9833 39.5167 43.2033 39.7967 43.3766 40.15C43.55 40.5033 43.6366 40.8967 43.6366 41.33C43.6366 42.0833 43.3866 42.7033 42.8866 43.19C43.0333 43.5433 43.26 44.0667 43.5666 44.76ZM39.7266 42.21H41.0066C41.2 42.21 41.3933 42.1367 41.5866 41.99C41.78 41.8433 41.8766 41.6233 41.8766 41.33C41.8766 41.0367 41.78 40.8167 41.5866 40.67C41.3933 40.5167 41.1933 40.44 40.9866 40.44H39.7266V42.21ZM48.4952 39.19L51.1952 44.77C51.3086 44.9967 51.3652 45.1667 51.3652 45.28C51.3652 45.52 51.1719 45.7367 50.7852 45.93C50.5586 46.0433 50.3786 46.1 50.2452 46.1C50.1186 46.1 50.0119 46.07 49.9252 46.01C49.8452 45.95 49.7852 45.8867 49.7452 45.82C49.7119 45.7533 49.6619 45.6533 49.5952 45.52L49.0752 44.44H46.3052L45.7852 45.52C45.7186 45.6533 45.6652 45.75 45.6252 45.81C45.5919 45.87 45.5319 45.9333 45.4452 46C45.3652 46.06 45.2586 46.09 45.1252 46.09C44.9986 46.09 44.8219 46.0333 44.5952 45.92C44.2086 45.7333 44.0152 45.52 44.0152 45.28C44.0152 45.1667 44.0719 44.9967 44.1852 44.77L46.8852 39.18C46.9586 39.0267 47.0686 38.9033 47.2152 38.81C47.3686 38.7167 47.5286 38.67 47.6952 38.67C48.0552 38.67 48.3219 38.8433 48.4952 39.19ZM47.6852 41.59L47.0252 42.96H48.3552L47.6852 41.59ZM56.6417 38.98C56.7084 38.86 56.8051 38.78 56.9317 38.74C57.0584 38.7 57.2151 38.68 57.4017 38.68C57.5951 38.68 57.7484 38.6967 57.8617 38.73C57.9817 38.7633 58.0684 38.8033 58.1217 38.85C58.1817 38.8967 58.2251 38.9667 58.2517 39.06C58.2917 39.1667 58.3117 39.3367 58.3117 39.57V45.12C58.3117 45.28 58.3051 45.3967 58.2917 45.47C58.2851 45.5433 58.2551 45.63 58.2017 45.73C58.1084 45.91 57.8484 46 57.4217 46C57.1617 46 56.9817 45.98 56.8817 45.94C56.7817 45.9 56.6984 45.8367 56.6317 45.75C55.1317 43.75 54.1451 42.4433 53.6717 41.83V45.12C53.6717 45.28 53.6651 45.3967 53.6517 45.47C53.6451 45.5433 53.6151 45.63 53.5617 45.73C53.4684 45.91 53.2084 46 52.7817 46C52.3684 46 52.1151 45.91 52.0217 45.73C51.9684 45.63 51.9351 45.54 51.9217 45.46C51.9151 45.38 51.9117 45.2633 51.9117 45.11V39.53C51.9117 39.2767 51.9417 39.0933 52.0017 38.98C52.0684 38.86 52.1651 38.78 52.2917 38.74C52.4184 38.7 52.5817 38.68 52.7817 38.68C52.9817 38.68 53.1384 38.7 53.2517 38.74C53.3717 38.7733 53.4551 38.8133 53.5017 38.86C53.5284 38.88 53.6051 38.9667 53.7317 39.12C55.1384 41.0333 56.0784 42.2967 56.5517 42.91V39.53C56.5517 39.2767 56.5817 39.0933 56.6417 38.98ZM63.689 44.08L63.869 43.95C64.0957 43.8167 64.2557 43.75 64.349 43.75C64.5557 43.75 64.779 43.9367 65.019 44.31C65.1657 44.5433 65.239 44.73 65.239 44.87C65.239 45.01 65.1923 45.1267 65.099 45.22C65.0123 45.3133 64.909 45.3967 64.789 45.47C64.669 45.5433 64.5523 45.6133 64.439 45.68C64.3323 45.7467 64.109 45.8333 63.769 45.94C63.429 46.0467 63.099 46.1 62.779 46.1C62.4657 46.1 62.1457 46.06 61.819 45.98C61.499 45.8933 61.1657 45.7533 60.819 45.56C60.479 45.36 60.1723 45.12 59.899 44.84C59.6257 44.5533 59.399 44.19 59.219 43.75C59.0457 43.3033 58.959 42.82 58.959 42.3C58.959 41.78 59.0457 41.31 59.219 40.89C59.3923 40.4633 59.6123 40.1133 59.879 39.84C60.1523 39.56 60.4623 39.3267 60.809 39.14C61.4623 38.78 62.119 38.6 62.779 38.6C63.0923 38.6 63.409 38.65 63.729 38.75C64.0557 38.8433 64.3023 38.94 64.469 39.04L64.709 39.18C64.829 39.2533 64.9223 39.3133 64.989 39.36C65.1623 39.5 65.249 39.66 65.249 39.84C65.249 40.0133 65.179 40.1967 65.039 40.39C64.779 40.75 64.5457 40.93 64.339 40.93C64.219 40.93 64.049 40.8567 63.829 40.71C63.549 40.4833 63.1757 40.37 62.709 40.37C62.2757 40.37 61.849 40.52 61.429 40.82C61.229 40.9667 61.0623 41.1733 60.929 41.44C60.7957 41.7067 60.729 42.01 60.729 42.35C60.729 42.6833 60.7957 42.9833 60.929 43.25C61.0623 43.5167 61.2323 43.7267 61.439 43.88C61.8457 44.1733 62.269 44.32 62.709 44.32C62.9157 44.32 63.109 44.2933 63.289 44.24C63.4757 44.1867 63.609 44.1333 63.689 44.08ZM67.6661 44.23H70.7461C70.8994 44.23 71.0128 44.2367 71.0861 44.25C71.1661 44.2567 71.2561 44.2867 71.3561 44.34C71.5361 44.4333 71.6261 44.6933 71.6261 45.12C71.6261 45.5867 71.5028 45.86 71.2561 45.94C71.1428 45.98 70.9694 46 70.7361 46H66.7761C66.3094 46 66.0361 45.8733 65.9561 45.62C65.9161 45.5133 65.8961 45.3433 65.8961 45.11V39.55C65.8961 39.21 65.9594 38.98 66.0861 38.86C66.2128 38.7333 66.4528 38.67 66.8061 38.67H70.7461C70.8994 38.67 71.0128 38.6767 71.0861 38.69C71.1661 38.6967 71.2561 38.7267 71.3561 38.78C71.5361 38.8733 71.6261 39.1333 71.6261 39.56C71.6261 40.0267 71.5028 40.3 71.2561 40.38C71.1428 40.42 70.9694 40.44 70.7361 40.44H67.6661V41.45H69.6461C69.7994 41.45 69.9128 41.4567 69.9861 41.47C70.0661 41.4767 70.1561 41.5067 70.2561 41.56C70.4361 41.6533 70.5261 41.9133 70.5261 42.34C70.5261 42.8067 70.3994 43.08 70.1461 43.16C70.0328 43.2 69.8594 43.22 69.6261 43.22H67.6661V44.23ZM72.383 44.97C72.2097 44.7567 72.123 44.5667 72.123 44.4C72.123 44.2267 72.2664 44 72.553 43.72C72.7197 43.56 72.8964 43.48 73.083 43.48C73.2697 43.48 73.5297 43.6467 73.863 43.98C73.9564 44.0933 74.0897 44.2033 74.263 44.31C74.4364 44.41 74.5964 44.46 74.743 44.46C75.363 44.46 75.673 44.2067 75.673 43.7C75.673 43.5467 75.5864 43.42 75.413 43.32C75.2464 43.2133 75.0364 43.1367 74.783 43.09C74.5297 43.0433 74.2564 42.97 73.963 42.87C73.6697 42.7633 73.3964 42.64 73.143 42.5C72.8897 42.36 72.6764 42.14 72.503 41.84C72.3364 41.5333 72.253 41.1667 72.253 40.74C72.253 40.1533 72.4697 39.6433 72.903 39.21C73.343 38.77 73.9397 38.55 74.693 38.55C75.093 38.55 75.4564 38.6033 75.783 38.71C76.1164 38.81 76.3464 38.9133 76.473 39.02L76.723 39.21C76.9297 39.4033 77.033 39.5667 77.033 39.7C77.033 39.8333 76.953 40.0167 76.793 40.25C76.5664 40.5833 76.333 40.75 76.093 40.75C75.953 40.75 75.7797 40.6833 75.573 40.55C75.553 40.5367 75.513 40.5033 75.453 40.45C75.3997 40.3967 75.3497 40.3533 75.303 40.32C75.163 40.2333 74.983 40.19 74.763 40.19C74.5497 40.19 74.3697 40.2433 74.223 40.35C74.083 40.45 74.013 40.5933 74.013 40.78C74.013 40.96 74.0964 41.1067 74.263 41.22C74.4364 41.3333 74.6497 41.41 74.903 41.45C75.1564 41.49 75.433 41.5533 75.733 41.64C76.033 41.72 76.3097 41.82 76.563 41.94C76.8164 42.06 77.0264 42.27 77.193 42.57C77.3664 42.8633 77.453 43.2267 77.453 43.66C77.453 44.0933 77.3664 44.4767 77.193 44.81C77.0197 45.1367 76.793 45.39 76.513 45.57C75.973 45.9233 75.3964 46.1 74.783 46.1C74.4697 46.1 74.173 46.0633 73.893 45.99C73.613 45.91 73.3864 45.8133 73.213 45.7C72.8597 45.4867 72.613 45.28 72.473 45.08L72.383 44.97Z" fill="white"/>
<path fill-rule="evenodd" clip-rule="evenodd" d="M42.6006 4.09463C39.2426 8.56711 38.461 12.5808 38.308 14.7141C37.3757 14.3621 36.3602 14.1844 35.2863 14.1844C33.9615 14.1844 32.7717 14.4554 31.9429 14.7118C32.5479 11.7126 33.9165 5.9457 42.6006 4.09463ZM49.3222 14.9143C46.2228 14.1788 42.0619 14.524 39.9758 14.9424C40.1028 13.134 40.8305 8.85724 44.6496 4.21045C48.4574 8.8415 49.1918 13.1048 49.3222 14.9143ZM57.3562 14.7107C56.5274 14.4554 55.3365 14.1844 54.014 14.1844C52.9389 14.1844 51.9245 14.3621 50.9933 14.7141C50.8393 12.5808 50.0554 8.56373 46.6997 4.09463C54.3896 5.72415 56.406 10.1325 57.3562 14.7107ZM59.2838 15.869L59.1725 15.3C58.4089 11.319 56.9863 3.92031 45.484 2.18507V0.835568C45.484 0.374487 45.1095 0 44.6496 0C44.1896 0 43.8152 0.374487 43.8152 0.835568V2.18507C32.3118 3.92031 30.8914 11.319 30.1267 15.3L30.0165 15.869C29.9535 16.185 30.0738 16.5033 30.3302 16.6967C30.5743 16.8845 30.9263 16.9194 31.213 16.7766C31.2322 16.7676 33.0574 15.8533 35.2863 15.8533C36.5593 15.8533 37.7053 16.1536 38.6938 16.7473C38.9052 16.8755 39.1639 16.898 39.3967 16.8171L39.3978 16.8193L39.4304 16.8047C39.4518 16.7957 39.4731 16.7867 39.4934 16.7755L39.5249 16.7631C39.8442 16.6191 41.6526 16.2874 43.8152 16.1817V26.394C43.8152 27.0755 43.2607 27.6311 42.577 27.6311C41.8955 27.6311 41.3399 27.0755 41.3399 26.394C41.3399 25.933 40.9654 25.5585 40.5055 25.5585C40.0455 25.5585 39.671 25.933 39.671 26.394C39.671 27.9966 40.9744 29.3011 42.577 29.3011C44.1806 29.3011 45.484 27.9966 45.484 26.394V16.1513C47.0371 16.1749 48.6239 16.3492 49.8868 16.8148L50.0274 16.862L50.0307 16.8508C50.0813 16.862 50.1297 16.8665 50.1758 16.8665C50.3265 16.8665 50.475 16.8261 50.6065 16.7473C51.5939 16.1536 52.7421 15.8533 54.014 15.8533C56.2148 15.8533 58.0715 16.7687 58.0895 16.7777C58.3718 16.9194 58.7193 16.8879 58.9712 16.6967C59.2231 16.5044 59.3468 16.1794 59.2838 15.869Z" fill="white"/>
</svg>
