<svg width="89" height="47" viewBox="0 0 89 47" fill="none" xmlns="http://www.w3.org/2000/svg">
<path d="M25.669 44.52H28.389C28.609 44.52 28.769 44.5467 28.869 44.6C28.969 44.6467 29.0357 44.7233 29.069 44.83C29.1024 44.9367 29.119 45.08 29.119 45.26C29.119 45.4333 29.1024 45.5733 29.069 45.68C29.0357 45.7867 28.979 45.86 28.899 45.9C28.7724 45.9667 28.599 46 28.379 46H24.779C24.3124 46 24.039 45.8733 23.959 45.62C23.919 45.5133 23.899 45.3433 23.899 45.11V39.55C23.899 39.3967 23.9024 39.2833 23.909 39.21C23.9224 39.13 23.9557 39.04 24.009 38.94C24.1024 38.76 24.3624 38.67 24.789 38.67C25.2557 38.67 25.5324 38.7933 25.619 39.04C25.6524 39.1533 25.669 39.3267 25.669 39.56V44.52ZM31.5382 44.23H34.6182C34.7715 44.23 34.8848 44.2367 34.9582 44.25C35.0382 44.2567 35.1282 44.2867 35.2282 44.34C35.4082 44.4333 35.4982 44.6933 35.4982 45.12C35.4982 45.5867 35.3748 45.86 35.1282 45.94C35.0148 45.98 34.8415 46 34.6082 46H30.6482C30.1815 46 29.9082 45.8733 29.8282 45.62C29.7882 45.5133 29.7682 45.3433 29.7682 45.11V39.55C29.7682 39.21 29.8315 38.98 29.9582 38.86C30.0848 38.7333 30.3248 38.67 30.6782 38.67H34.6182C34.7715 38.67 34.8848 38.6767 34.9582 38.69C35.0382 38.6967 35.1282 38.7267 35.2282 38.78C35.4082 38.8733 35.4982 39.1333 35.4982 39.56C35.4982 40.0267 35.3748 40.3 35.1282 40.38C35.0148 40.42 34.8415 40.44 34.6082 40.44H31.5382V41.45H33.5182C33.6715 41.45 33.7848 41.4567 33.8582 41.47C33.9382 41.4767 34.0282 41.5067 34.1282 41.56C34.3082 41.6533 34.3982 41.9133 34.3982 42.34C34.3982 42.8067 34.2715 43.08 34.0182 43.16C33.9048 43.2 33.7315 43.22 33.4982 43.22H31.5382V44.23ZM43.8944 42.07C44.2877 42.5367 44.4844 43.06 44.4844 43.64C44.4711 44.3067 44.2411 44.8667 43.7944 45.32C43.3544 45.7667 42.8177 45.99 42.1844 45.99H39.5544C39.0877 45.99 38.8144 45.8633 38.7344 45.61C38.6944 45.4967 38.6744 45.3233 38.6744 45.09V39.54C38.6744 39.38 38.6777 39.2633 38.6844 39.19C38.6977 39.1167 38.7311 39.03 38.7844 38.93C38.8777 38.75 39.1377 38.66 39.5644 38.66H42.0844C42.6977 38.66 43.2111 38.8733 43.6244 39.3C44.0577 39.7333 44.2744 40.2533 44.2744 40.86C44.2744 41.3 44.1477 41.7033 43.8944 42.07ZM42.7144 43.54C42.7144 43.38 42.6944 43.2533 42.6544 43.16C42.6211 43.0667 42.5611 43 42.4744 42.96C42.3411 42.9067 42.1544 42.88 41.9144 42.88C41.6744 42.88 41.4944 42.8333 41.3744 42.74C41.2544 42.6467 41.1944 42.4567 41.1944 42.17C41.1944 41.8767 41.2544 41.6833 41.3744 41.59C41.5011 41.4967 41.7077 41.45 41.9944 41.45C42.2611 41.45 42.4211 41.38 42.4744 41.24C42.4944 41.1667 42.5044 41.0467 42.5044 40.88C42.5044 40.7133 42.4477 40.5967 42.3344 40.53C42.2277 40.4633 42.0644 40.43 41.8444 40.43H40.4444V44.22H42.0844C42.5044 44.22 42.7144 43.9933 42.7144 43.54ZM46.9093 44.52H49.6293C49.8493 44.52 50.0093 44.5467 50.1093 44.6C50.2093 44.6467 50.2759 44.7233 50.3093 44.83C50.3426 44.9367 50.3593 45.08 50.3593 45.26C50.3593 45.4333 50.3426 45.5733 50.3093 45.68C50.2759 45.7867 50.2193 45.86 50.1393 45.9C50.0126 45.9667 49.8393 46 49.6193 46H46.0193C45.5526 46 45.2793 45.8733 45.1993 45.62C45.1593 45.5133 45.1393 45.3433 45.1393 45.11V39.55C45.1393 39.3967 45.1426 39.2833 45.1493 39.21C45.1626 39.13 45.1959 39.04 45.2493 38.94C45.3426 38.76 45.6026 38.67 46.0293 38.67C46.4959 38.67 46.7726 38.7933 46.8593 39.04C46.8926 39.1533 46.9093 39.3267 46.9093 39.56V44.52ZM54.4484 38.58C55.4351 38.58 56.2917 38.9367 57.0184 39.65C57.7451 40.3633 58.1084 41.25 58.1084 42.31C58.1084 43.3633 57.7617 44.2633 57.0684 45.01C56.3751 45.75 55.5217 46.12 54.5084 46.12C53.4951 46.12 52.6317 45.7533 51.9184 45.02C51.2117 44.2867 50.8584 43.4133 50.8584 42.4C50.8584 41.8467 50.9584 41.33 51.1584 40.85C51.3584 40.3633 51.6251 39.9567 51.9584 39.63C52.2917 39.3033 52.6751 39.0467 53.1084 38.86C53.5417 38.6733 53.9884 38.58 54.4484 38.58ZM52.6284 42.35C52.6284 42.9433 52.8184 43.4267 53.1984 43.8C53.5851 44.1667 54.0151 44.35 54.4884 44.35C54.9617 44.35 55.3884 44.17 55.7684 43.81C56.1484 43.45 56.3384 42.9667 56.3384 42.36C56.3384 41.7533 56.1451 41.2667 55.7584 40.9C55.3784 40.5333 54.9517 40.35 54.4784 40.35C54.0051 40.35 53.5784 40.5367 53.1984 40.91C52.8184 41.2767 52.6284 41.7567 52.6284 42.35ZM62.5823 41.58H64.3423C64.7023 41.5933 64.9223 41.6867 65.0023 41.86C65.069 41.9867 65.1023 42.1733 65.1023 42.42V44.62C65.1023 44.8333 65.009 45.0367 64.8223 45.23C64.2623 45.81 63.4223 46.1 62.3023 46.1C61.309 46.1 60.4456 45.7267 59.7123 44.98C58.979 44.2267 58.6123 43.32 58.6123 42.26C58.6123 41.2 58.9856 40.3167 59.7323 39.61C60.479 38.8967 61.359 38.54 62.3723 38.54C63.159 38.54 63.9023 38.8 64.6023 39.32C64.7823 39.4533 64.8723 39.6033 64.8723 39.77C64.8723 39.93 64.7956 40.1167 64.6423 40.33C64.3823 40.6833 64.1456 40.86 63.9323 40.86C63.8056 40.86 63.6023 40.77 63.3223 40.59C63.0423 40.4033 62.709 40.31 62.3223 40.31C61.8156 40.31 61.3656 40.49 60.9723 40.85C60.579 41.2033 60.3823 41.67 60.3823 42.25C60.3823 42.8233 60.5823 43.3133 60.9823 43.72C61.3823 44.12 61.8356 44.32 62.3423 44.32C62.709 44.32 63.039 44.26 63.3323 44.14V43.05H62.5423C62.3356 43.05 62.189 43.0233 62.1023 42.97C62.0156 42.9167 61.959 42.84 61.9323 42.74C61.9056 42.6333 61.8923 42.4933 61.8923 42.32C61.8923 42.14 61.9056 41.9967 61.9323 41.89C61.9656 41.7833 62.0223 41.71 62.1023 41.67C62.2223 41.61 62.3823 41.58 62.5823 41.58Z" fill="white"/>
<mask id="mask0" mask-type="alpha" maskUnits="userSpaceOnUse" x="30" y="0" width="30" height="30">
<path fill-rule="evenodd" clip-rule="evenodd" d="M30 0H59.3V29.3H30V0Z" fill="white"/>
</mask>
<g mask="url(#mask0)">
<path fill-rule="evenodd" clip-rule="evenodd" d="M59.3 14.65C59.3 15.2593 57.5098 15.7458 57.4331 16.3343C57.3546 16.9364 58.9579 17.8671 58.8043 18.4421C58.6479 19.0271 56.7928 19.0331 56.5641 19.5847C56.3328 20.1424 57.6387 21.4587 57.339 21.9768C57.0371 22.4983 55.2443 22.0225 54.8789 22.498C54.5124 22.975 55.4337 24.5845 55.009 25.0092C54.5843 25.4339 52.9749 24.5125 52.4979 24.879C52.0224 25.2444 52.4982 27.0373 51.9765 27.339C51.4586 27.6388 50.1423 26.3329 49.5845 26.5642C49.033 26.7928 49.0272 28.648 48.4422 28.8043C47.867 28.958 46.9364 27.3547 46.3343 27.4331C45.7459 27.5098 45.2594 29.3 44.65 29.3C44.0406 29.3 43.5542 27.5098 42.9657 27.4331C42.3636 27.3547 41.4329 28.958 40.8578 28.8043C40.2729 28.648 40.2669 26.7928 39.7154 26.5642C39.1576 26.3328 37.8413 27.6387 37.3233 27.339C36.8016 27.0372 37.2775 25.2443 36.802 24.8789C36.325 24.5124 34.7155 25.4338 34.2909 25.0091C33.8661 24.5844 34.7876 22.9748 34.421 22.4979C34.0556 22.0224 32.2628 22.4981 31.9609 21.9766C31.6613 21.4586 32.9672 20.1423 32.7358 19.5846C32.5072 19.033 30.6521 19.0271 30.4957 18.4421C30.342 17.867 31.9454 16.9364 31.8669 16.3343C31.7902 15.7458 30 15.2593 30 14.65C30 14.0407 31.7902 13.5542 31.8669 12.9657C31.9454 12.3636 30.3421 11.4329 30.4957 10.8579C30.6521 10.2729 32.5072 10.2669 32.7359 9.71533C32.9673 9.15749 31.6614 7.84133 31.961 7.32321C32.2629 6.80166 34.0557 7.2775 34.4211 6.80205C34.7876 6.32497 33.8663 4.71547 34.291 4.29078C34.7156 3.866 36.3251 4.78747 36.8021 4.42098C37.2776 4.05563 36.8017 2.26268 37.3235 1.96086C37.8414 1.66122 39.1577 2.9671 39.7155 2.73575C40.267 2.50717 40.2729 0.652032 40.8578 0.495738C41.433 0.341921 42.3636 1.94533 42.9657 1.86685C43.5542 1.79018 44.0406 0 44.65 0C45.2594 0 45.7459 1.79018 46.3343 1.86685C46.9364 1.94533 47.8671 0.342017 48.4422 0.495738C49.0272 0.652032 49.0331 2.50717 49.5846 2.73585C50.1424 2.96719 51.4587 1.66132 51.9766 1.96095C52.4984 2.26278 52.0225 4.05572 52.498 4.42107C52.975 4.78757 54.5845 3.86619 55.0091 4.29088C55.4338 4.71556 54.5124 6.32517 54.879 6.80214C55.2444 7.27759 57.0372 6.80186 57.339 7.3234C57.6388 7.84143 56.3329 9.15768 56.5642 9.71543C56.7928 10.267 58.6479 10.2729 58.8043 10.8579C58.9579 11.433 57.3546 12.3636 57.4331 12.9657C57.5098 13.5542 59.3 14.0407 59.3 14.65Z" fill="white"/>
<mask id="mask1" mask-type="alpha" maskUnits="userSpaceOnUse" x="34" y="11" width="6" height="10">
<path fill-rule="evenodd" clip-rule="evenodd" d="M34.2876 11.4993H39.8602V20.7244H34.2876V11.4993Z" fill="white"/>
</mask>
<g mask="url(#mask1)">
<path fill-rule="evenodd" clip-rule="evenodd" d="M34.7657 18.9557C35.0108 19.1845 35.288 19.2289 35.605 19.0912C35.9223 18.9537 36.3206 18.6746 36.8132 18.2618C37.3013 17.8512 37.7168 17.1842 38.0869 16.2834C38.089 16.257 38.0912 16.2305 38.0934 16.2041C38.0909 16.151 37.8754 16.0146 37.3897 15.8408C37.1468 15.7501 36.5559 15.63 35.6231 15.451C35.4332 15.4009 35.3283 15.2947 35.3103 15.1339C35.2813 14.8467 35.2552 14.5593 35.232 14.2715C35.2074 13.9551 35.2316 13.726 35.3005 13.5853C35.4597 13.2574 35.8067 12.9186 36.3365 12.5871C36.9093 12.2035 37.4876 11.93 38.0598 11.768C38.6319 11.6057 39.1183 11.5246 39.5124 11.5118C39.6167 11.4835 39.707 11.5025 39.7836 11.5757C39.8599 11.6489 39.878 11.7592 39.8434 11.8987C39.8253 12.1065 39.7698 12.361 39.6796 12.6717C39.5898 12.982 39.5232 13.1785 39.4748 13.2667C39.4159 13.358 39.3073 13.4282 39.1377 13.4808C38.9682 13.5333 38.7 13.668 38.325 13.8936C38.2891 13.9125 38.2685 13.9118 38.2534 13.8863C38.2539 13.856 38.2594 13.8242 38.2753 13.7817C38.3741 13.6598 38.5403 13.4872 38.7655 13.2765C38.3256 13.323 37.8433 13.4273 37.3148 13.5966C36.7862 13.7659 36.3702 13.9724 36.0582 14.2262C36.9604 14.383 37.6279 14.6264 38.0661 14.9561C38.2518 15.106 38.372 15.2394 38.431 15.3633C38.5604 15.6454 38.6311 15.9018 38.646 16.1255C38.7208 16.5493 38.6563 17.0241 38.4702 17.5717C38.2791 18.1212 38.034 18.6245 37.7298 19.0907C37.427 19.5647 37.1329 19.9248 36.8336 20.1668C36.5345 20.4092 36.2872 20.5741 36.0785 20.6541C35.8782 20.7219 35.6552 20.7419 35.4191 20.7086C35.1828 20.6748 34.9944 20.5841 34.861 20.4414C34.7047 20.3182 34.5766 20.1041 34.481 19.7985C34.3183 19.2863 34.2531 18.662 34.3051 17.9408C34.3004 17.8846 34.3041 17.8665 34.3208 17.8846C34.3356 17.8784 34.3412 17.8842 34.3433 17.9083C34.3828 18.383 34.5268 18.7333 34.7657 18.9557Z" fill="#F5A623"/>
</g>
<path fill-rule="evenodd" clip-rule="evenodd" d="M38.0349 19.2724C37.7627 19.0717 37.492 18.8682 37.2233 18.662C37.12 18.6021 37.1207 18.4243 37.2266 18.148C37.3333 17.8721 37.5318 17.3334 37.856 16.5618C38.1863 15.7891 38.5552 14.9943 38.9747 14.1666C39.3944 13.3389 39.7933 12.6277 40.1537 12.0089C40.5151 11.3903 40.7294 11.0602 40.772 11.0023C40.8155 10.9454 40.89 10.9484 40.9846 11.0215C41.3646 11.2923 41.5841 11.4748 41.6456 11.5677C41.7074 11.6601 41.7212 11.7504 41.688 11.832C41.3807 12.892 41.1235 13.9669 40.9183 15.0538C41.1637 14.6739 41.3835 14.3355 41.5856 14.0268C41.8638 13.6287 42.1112 13.2806 42.3168 12.9875C42.5228 12.694 42.7831 12.3506 43.1085 11.9537C43.4333 11.5636 43.7859 11.1159 44.1838 10.62C44.3465 10.4274 44.4541 10.305 44.5115 10.2367C44.5691 10.1683 44.6314 10.1058 44.7093 10.0467C44.7876 9.98753 44.83 9.99234 44.8372 10.0537C45.0727 10.1788 45.2716 10.2968 45.427 10.4226C45.7452 10.6662 45.7883 10.7555 45.641 10.9162C45.0859 11.8886 44.436 13.1639 43.8024 14.7929C43.176 16.425 42.9599 17.322 42.9612 17.4062C42.9949 17.4841 42.9603 17.5169 42.9139 17.4774C42.7005 17.426 42.4326 17.3093 42.1127 17.1244C41.9937 17.0391 41.9842 16.8529 42.085 16.577C42.0889 16.5419 42.1874 16.2017 42.4071 15.5809C42.6274 14.9607 42.8799 14.3021 43.1715 13.6095C42.9346 13.918 42.4767 14.5683 41.8681 15.6161C41.2622 16.6654 40.9237 17.3971 40.7858 17.7611C40.6936 17.9733 40.6562 18.175 40.6098 18.192C40.3428 18.0865 40.0763 17.9794 39.8102 17.8707C39.7379 17.8458 39.636 17.6771 39.7043 17.5365C39.7527 17.269 39.8425 16.0746 40.2437 14.0119C39.8214 14.7661 39.4116 15.6227 39.0288 16.5751C38.6868 17.3973 38.393 18.2051 38.1446 19.0009C38.1365 19.065 38.138 19.1176 38.1446 19.1685C38.1609 19.2913 38.1222 19.3222 38.0349 19.2724Z" fill="#F5A623"/>
<path fill-rule="evenodd" clip-rule="evenodd" d="M45.1643 16.9999C45.1548 17.0216 45.1456 17.0435 45.1362 17.0653C45.1335 17.1014 45.1299 17.1306 45.1305 17.1377C45.0807 17.196 44.8846 17.066 44.543 16.7412C44.3124 16.5274 44.2282 16.4759 44.3445 16.2976C44.3967 16.2246 45.3072 13.6401 48.3525 9.47887C48.5118 9.30071 48.6085 9.2478 48.6343 9.32415C48.7612 9.42121 48.8908 9.53638 49.0298 9.66737C49.1686 9.79851 49.2495 9.88291 49.2806 9.93324C49.3112 9.98357 49.2931 10.0361 49.2233 10.1042C48.6035 10.9068 46.9417 13.0172 45.1643 16.9999Z" fill="#F5A623"/>
<path fill-rule="evenodd" clip-rule="evenodd" d="M46.9801 15.6744C47.6044 15.2171 48.2693 14.8609 48.9724 14.6029C49.173 14.548 49.3136 14.6136 49.4013 14.7899C49.45 15.0246 49.5011 15.2586 49.5546 15.4922C49.5583 15.5214 49.5622 15.5504 49.566 15.5796C49.5398 15.5916 49.5137 15.6035 49.4875 15.6154C49.4405 15.6098 49.3614 15.6202 49.2568 15.6445C49.1466 15.6705 48.859 15.7941 48.3865 16.0325C47.9142 16.2778 47.3622 16.6205 46.7498 17.0837C46.6328 17.1582 46.5282 17.1729 46.4409 17.1184C46.2767 16.9924 46.0375 16.6742 45.7338 16.162C45.7053 16.0943 45.7286 15.9742 45.8094 15.7953C46.4129 14.4154 47.6261 12.1389 49.8542 9.40116C49.9257 9.32048 50.0739 9.22849 50.1126 9.34638C50.4521 9.57041 50.6337 9.69932 50.6593 9.73832C50.6795 9.77806 50.701 9.81126 50.7114 9.84609C50.7379 9.91575 50.729 10.0088 50.6428 10.1285C49.4169 11.6149 48.1464 13.4411 46.9801 15.6744Z" fill="#F5A623"/>
<mask id="mask2" mask-type="alpha" maskUnits="userSpaceOnUse" x="49" y="7" width="7" height="8">
<path fill-rule="evenodd" clip-rule="evenodd" d="M49.3208 7.91858H55.615V14.2129H49.3208V7.91858Z" fill="white"/>
</mask>
<g mask="url(#mask2)">
<path fill-rule="evenodd" clip-rule="evenodd" d="M50.32 14.0293C50.2385 14.0684 50.1255 14.1221 49.9857 14.2004C49.8464 14.2571 49.7353 14.127 49.4989 13.6962C49.3836 13.488 49.3253 13.3561 49.3213 13.3082C49.3168 13.2601 49.3449 13.198 49.4007 13.1289C50.1918 11.7983 51.0746 10.5383 52.0345 9.35698C51.9944 9.18837 51.9558 9.01913 51.9189 8.84951C51.9202 8.81407 51.9335 8.79225 51.969 8.77208C52.3432 8.58303 52.6298 8.46197 52.8306 8.40156C52.8889 8.3467 52.9473 8.29209 53.006 8.23774C53.0375 8.19499 53.0732 8.15652 53.103 8.12348C53.14 8.11579 53.1771 8.10822 53.2142 8.10053C53.2884 8.15161 53.363 8.20218 53.4376 8.25275C54.0211 8.10936 54.6934 7.99775 55.4532 7.91918C55.5563 7.91376 55.6096 7.94516 55.615 8.00418C55.5923 8.20319 55.5722 8.40219 55.5544 8.60132C55.5351 8.79175 55.476 8.91357 55.373 8.97234C55.3812 8.95305 55.3753 8.93527 55.3503 8.91988C55.1326 8.8287 54.44 8.91383 53.2789 9.22709C52.8871 9.66444 52.5059 10.1142 52.1365 10.5757C52.1885 10.561 52.3129 10.5127 52.5136 10.4417C52.7142 10.3705 53.1094 10.2852 53.6935 10.2021C53.7137 10.1987 53.7342 10.1952 53.7544 10.192C53.8294 10.1794 53.8896 10.2463 53.8708 10.2879C53.8832 10.5195 53.8989 10.7508 53.9176 10.9817C53.9163 10.9948 53.9151 11.0079 53.9138 11.0209C53.9113 11.0455 53.8995 11.0765 53.8737 11.1054C53.8477 11.1393 53.7733 11.1536 53.6599 11.1412C53.5468 11.1291 53.2531 11.1842 52.7805 11.3086C52.3083 11.4333 51.8148 11.6067 51.303 11.8287C51.0409 12.179 50.7855 12.5356 50.5369 12.8986C50.5787 12.8726 50.8596 12.7359 51.3841 12.5016C51.909 12.2678 52.3623 12.1781 52.7396 12.2082C52.8822 12.1915 52.9586 12.2144 52.9688 12.2866C53.0052 12.3927 53.044 12.6322 53.0868 12.9963C53.0775 13.0084 53.0682 13.0207 53.0589 13.0329C53.0597 12.9932 52.844 13.0344 52.4175 13.1611C51.9869 13.2895 51.6669 13.3987 51.4569 13.4854C51.242 13.5732 51.0599 13.654 50.9096 13.7268C50.605 13.8783 50.3518 14.0202 50.3383 14.024C50.3322 14.0258 50.3261 14.0275 50.32 14.0293Z" fill="#F5A623"/>
</g>
<path fill-rule="evenodd" clip-rule="evenodd" d="M45.7222 19.2951C45.891 19.1755 46.0439 19.0659 46.1878 18.9571C46.2603 18.9014 46.3304 18.8474 46.3992 18.7943C46.4713 18.7437 46.5422 18.6921 46.6127 18.6387C46.7548 18.5329 46.8918 18.4135 47.0422 18.2882C47.196 18.1682 47.3568 18.0327 47.5328 17.874C47.5907 17.8173 47.6757 17.7586 47.7937 17.6631C47.8531 17.6161 47.9218 17.5618 48.0019 17.4986C48.0819 17.4352 48.1722 17.3603 48.2836 17.289C48.428 17.1949 48.6163 17.0552 48.8289 16.9255C48.9364 16.8634 49.0477 16.7991 49.1589 16.7347C49.27 16.6699 49.3803 16.6041 49.4911 16.5557C49.7109 16.4544 49.9075 16.3476 50.0568 16.2926C50.2056 16.2357 50.2981 16.2002 50.2981 16.2002C50.2981 16.2002 50.3758 16.1707 50.5031 16.1226C50.6292 16.0697 50.8121 16.0304 51.0132 15.9691C51.4176 15.8539 51.9195 15.772 52.2788 15.7436C52.3622 15.7363 52.4414 15.7231 52.5171 15.7218C52.5929 15.7207 52.6649 15.7199 52.733 15.7189C52.8693 15.7168 52.9906 15.715 53.0978 15.7134C53.3116 15.7289 53.469 15.7402 53.5769 15.748C53.6314 15.7513 53.6846 15.7547 53.7365 15.758C53.7881 15.7646 53.8383 15.7712 53.8875 15.7776C53.9859 15.7902 54.0796 15.8 54.1705 15.8076C54.2612 15.8171 54.3499 15.816 54.4347 15.828C54.5195 15.8389 54.6027 15.8476 54.6855 15.8544C55.0193 15.8696 55.3341 15.9054 55.727 15.9292C55.3952 15.6928 55.1069 15.4852 54.7782 15.3504C54.6968 15.3136 54.6134 15.2781 54.5271 15.2438C54.4408 15.2084 54.3492 15.1894 54.2548 15.1634C54.1601 15.1393 54.0613 15.1162 53.957 15.0943C53.9048 15.0838 53.8515 15.0712 53.7965 15.063C53.7409 15.0578 53.6841 15.0525 53.6257 15.0472C53.5101 15.0381 53.3417 15.0251 53.1126 15.0073C52.9978 15.0085 52.8679 15.0101 52.7218 15.0115C52.6489 15.0125 52.5718 15.0136 52.4906 15.0146C52.4094 15.0162 52.3248 15.0297 52.2353 15.0373C51.8505 15.0667 51.3134 15.1559 50.8821 15.2801C50.6673 15.3459 50.4722 15.3901 50.3379 15.4462C50.2025 15.4981 50.12 15.5297 50.12 15.5297C50.12 15.5297 50.0211 15.5672 49.8624 15.6271C49.7033 15.6855 49.4938 15.7971 49.2597 15.9047C49.1418 15.9563 49.0245 16.0254 48.9065 16.0939C48.7886 16.162 48.6702 16.2304 48.556 16.2962C48.3305 16.4336 48.1312 16.581 47.9788 16.6823C47.8612 16.7583 47.7657 16.8371 47.6812 16.9044C47.5967 16.9715 47.5244 17.0291 47.4616 17.0787C47.3374 17.1802 47.248 17.2434 47.1875 17.3037C47.0033 17.4729 46.8427 17.6298 46.6985 17.7811C46.5578 17.9374 46.4397 18.0973 46.3259 18.2521C46.2695 18.3303 46.2153 18.4085 46.162 18.4879C46.1107 18.5695 46.0633 18.656 46.0148 18.7424C45.9182 18.9161 45.823 19.0979 45.7222 19.2951Z" fill="#F5A623"/>
</g>
</svg>
