<svg xmlns="http://www.w3.org/2000/svg" viewBox="0 0 104 54"><defs><style>.a,.c{fill:#fff;}.b{fill:none;}.b,.c{stroke:#fff;stroke-width:0.61px;}</style></defs><title>devis</title><path class="a" d="M35.34,44.89H37.6a4.36,4.36,0,0,1,3.12,1.29,4.15,4.15,0,0,1,1.35,3.14,4.38,4.38,0,0,1-1.32,3.2,4.32,4.32,0,0,1-3.19,1.34H35.32c-.49,0-.8-.11-.93-.31a1.6,1.6,0,0,1-.14-.78V46c0-.2,0-.34,0-.43a1.07,1.07,0,0,1,.12-.32Q34.55,44.89,35.34,44.89ZM37.6,51.7a2.3,2.3,0,0,0,1.59-.65,2.14,2.14,0,0,0,.71-1.65,2.2,2.2,0,0,0-.69-1.66,2.24,2.24,0,0,0-1.62-.67H36.41V51.7Zm7.43,0h3.78l.41,0a1,1,0,0,1,.33.11q.33.18.33,1c0,.57-.15.91-.45,1a2,2,0,0,1-.64.08H44c-.58,0-.91-.16-1-.47a1.91,1.91,0,0,1-.07-.62V46a1.2,1.2,0,0,1,.23-.85A1.29,1.29,0,0,1,44,44.9h4.83a2.07,2.07,0,0,1,.41,0,.68.68,0,0,1,.33.11c.22.11.33.43.33,1s-.15.91-.45,1a2.41,2.41,0,0,1-.64.07H45v1.24h2.43a2.31,2.31,0,0,1,.42,0,1.15,1.15,0,0,1,.33.11c.22.12.33.43.33,1s-.16.9-.47,1a2,2,0,0,1-.64.07H45ZM58.87,45q.72.35.72.78a1.6,1.6,0,0,1-.18.59L56,53.27a1.14,1.14,0,0,1-1,.6h-.12a1.24,1.24,0,0,1-.59-.16,1.22,1.22,0,0,1-.41-.44l-3.38-6.86a1.6,1.6,0,0,1-.18-.59q0-.43.72-.78a1.55,1.55,0,0,1,.61-.21.79.79,0,0,1,.34.05.52.52,0,0,1,.2.17,1.81,1.81,0,0,1,.2.33q.09.16.48,1l.81,1.77L54.55,50c.26.55.4.86.44.93l2.45-5.36a2.71,2.71,0,0,1,.17-.37.62.62,0,0,1,.54-.33A1.6,1.6,0,0,1,58.87,45Zm1.4.94c0-.19,0-.33,0-.42a1.22,1.22,0,0,1,.12-.33c.12-.22.43-.33,1-.33s.91.15,1,.46a2.41,2.41,0,0,1,.06.63V52.8a2.38,2.38,0,0,1,0,.43,1.1,1.1,0,0,1-.11.32c-.12.22-.43.33-1,.33s-.9-.16-1-.47a1.91,1.91,0,0,1-.07-.62Zm3.28,6.64a1.14,1.14,0,0,1-.32-.7,1.38,1.38,0,0,1,.52-.83.93.93,0,0,1,.65-.3c.23,0,.55.21,1,.61a1.89,1.89,0,0,0,.49.41,1.21,1.21,0,0,0,.59.18c.75,0,1.13-.31,1.13-.93a.52.52,0,0,0-.31-.46,2.31,2.31,0,0,0-.78-.29,5.57,5.57,0,0,1-1-.27,7,7,0,0,1-1-.45,2.12,2.12,0,0,1-.79-.81,2.79,2.79,0,0,1-.3-1.34,2.57,2.57,0,0,1,.79-1.88,3,3,0,0,1,2.19-.8,4.34,4.34,0,0,1,1.34.19,2.37,2.37,0,0,1,.84.38l.31.23a1,1,0,0,1,.38.6,1.4,1.4,0,0,1-.29.68c-.28.4-.57.61-.86.61a1.25,1.25,0,0,1-.64-.25.79.79,0,0,1-.14-.12,2.31,2.31,0,0,0-.19-.16,1.29,1.29,0,0,0-.66-.16,1.1,1.1,0,0,0-.66.2.61.61,0,0,0-.26.53.6.6,0,0,0,.31.53,2,2,0,0,0,.78.29,8,8,0,0,1,1,.23,5.71,5.71,0,0,1,1,.37,1.75,1.75,0,0,1,.78.77A2.59,2.59,0,0,1,69.75,51a3,3,0,0,1-.31,1.41,2.45,2.45,0,0,1-.84.93,3.8,3.8,0,0,1-2.12.65,4.34,4.34,0,0,1-1.09-.13,3.08,3.08,0,0,1-.83-.36,2.87,2.87,0,0,1-.9-.76Z"/><path class="b" d="M39,34.74H65.73V1.14H39Zm15.94-5.13H43.52V28.47H54.91Zm0-5.69H43.52V22.78H54.91Zm0-5.7H43.52V17.08H54.91Zm6.84,11.39h-4V28.47h4Zm0-5.69h-4V22.78h4Zm0-5.7h-4V17.08h4ZM43,5.69H62.31v4.56H43Z"/><path class="b" d="M61.18,6.83H44.09V9.11H61.18Z"/><path class="c" d="M66.87,0h-29V35.88h29ZM65.73,34.74H39V1.14H65.73Z"/><path class="c" d="M62.31,5.69H43v4.56H62.31ZM61.18,9.11H44.09V6.83H61.18Z"/><path class="c" d="M54.91,17.08H43.52v1.14H54.91Z"/><path class="c" d="M61.75,17.08h-4v1.14h4Z"/><path class="c" d="M54.91,22.78H43.52v1.14H54.91Z"/><path class="c" d="M61.75,22.78h-4v1.14h4Z"/><path class="c" d="M54.91,28.47H43.52v1.14H54.91Z"/><path class="c" d="M61.75,28.47h-4v1.14h4Z"/></svg>