<?xml version="1.0" encoding="utf-8"?>
<!-- Generator: Adobe Illustrator 23.0.1, SVG Export Plug-In . SVG Version: 6.00 Build 0)  -->
<svg version="1.1" id="Calque_1" xmlns="http://www.w3.org/2000/svg" xmlns:xlink="http://www.w3.org/1999/xlink" x="0px" y="0px"
	 viewBox="0 0 104 54" style="enable-background:new 0 0 104 54;" xml:space="preserve">
<style type="text/css">
	.st0{display:none;fill:#E8388C;}
	.st1{display:none;fill:#EC6684;}
	.st2{fill:#FFFFFF;}
</style>
<path class="st0" d="M25.1,52.8c-0.1-0.2-0.2-0.4-0.3-0.6c0.1-0.3,0.2-0.5,0.4-0.7c0.1-0.1,0.3-0.2,0.5-0.2c0.2,0,0.5,0.2,0.8,0.5
	c0.1,0.1,0.3,0.2,0.4,0.3c0.1,0.1,0.3,0.1,0.5,0.2c0.6,0,0.9-0.2,0.9-0.8c0-0.2-0.1-0.3-0.3-0.4C28,51.1,27.8,51,27.6,51
	c-0.3-0.1-0.6-0.1-0.8-0.2c-0.3-0.1-0.6-0.2-0.8-0.4c-0.3-0.2-0.5-0.4-0.6-0.7C25.1,49.4,25,49,25,48.6c0-0.6,0.2-1.1,0.6-1.5
	c0.5-0.5,1.1-0.7,1.8-0.7c0.4,0,0.7,0,1.1,0.2c0.2,0.1,0.5,0.2,0.7,0.3l0.2,0.2c0.2,0.1,0.3,0.3,0.3,0.5c0,0.2-0.1,0.4-0.2,0.5
	c-0.2,0.3-0.5,0.5-0.7,0.5c-0.2,0-0.4-0.1-0.5-0.2l-0.1-0.1c0,0-0.1-0.1-0.1-0.1c-0.2-0.1-0.4-0.1-0.5-0.1c-0.2,0-0.4,0-0.5,0.2
	c-0.1,0.1-0.2,0.3-0.2,0.4c0,0.2,0.1,0.3,0.2,0.4c0.2,0.1,0.4,0.2,0.6,0.2c0.3,0,0.6,0.1,0.8,0.2c0.3,0.1,0.6,0.2,0.8,0.3
	c0.3,0.1,0.5,0.4,0.6,0.6c0.2,0.3,0.3,0.7,0.3,1.1c0,0.4-0.1,0.8-0.2,1.1c-0.2,0.3-0.4,0.6-0.7,0.8c-0.5,0.3-1.1,0.5-1.7,0.5
	c-0.3,0-0.6,0-0.9-0.1c-0.2-0.1-0.5-0.2-0.7-0.3c-0.3-0.2-0.5-0.4-0.7-0.6L25.1,52.8z M34.3,46.5c2,0,3.7,1.7,3.7,3.7c0,0,0,0,0,0
	c0,1-0.3,2-1,2.7c-0.7,0.7-1.6,1.1-2.6,1.1c-1,0-1.9-0.4-2.6-1.1c-0.7-0.7-1.1-1.6-1.1-2.6c0-0.5,0.1-1.1,0.3-1.5
	c0.2-0.5,0.5-0.9,0.8-1.2c0.3-0.3,0.7-0.6,1.2-0.8C33.4,46.6,33.9,46.5,34.3,46.5z M32.5,50.2c0,0.5,0.2,1.1,0.6,1.5
	c0.7,0.7,1.8,0.7,2.5,0c0,0,0,0,0,0c0.8-0.8,0.8-2.1,0-2.9c-0.7-0.7-1.8-0.7-2.5-0.1c0,0-0.1,0.1-0.1,0.1
	C32.7,49.2,32.5,49.7,32.5,50.2z M43.4,46.8c0.1-0.1,0.2-0.2,0.3-0.2c0.2,0,0.3-0.1,0.5-0.1c0.2,0,0.3,0,0.5,0
	c0.1,0,0.2,0.1,0.3,0.1c0.1,0.1,0.1,0.1,0.1,0.2c0,0.2,0.1,0.3,0.1,0.5v3c0,0.9-0.3,1.7-0.8,2.4c-0.3,0.3-0.6,0.6-1,0.8
	c-0.9,0.4-1.9,0.4-2.8,0c-0.4-0.2-0.7-0.5-1-0.8c-0.5-0.7-0.8-1.5-0.8-2.4v-3c0-0.2,0-0.3,0-0.3c0-0.1,0.1-0.2,0.1-0.3
	c0.1-0.1,0.1-0.2,0.2-0.2c0.2,0,0.3-0.1,0.5-0.1c0.2,0,0.3,0,0.5,0.1c0.1,0,0.2,0.1,0.3,0.2c0.1,0.2,0.1,0.4,0.1,0.6v3
	c0,0.4,0.1,0.8,0.3,1.2c0.1,0.2,0.3,0.3,0.5,0.5c0.2,0.1,0.5,0.2,0.7,0.2c0.5,0,0.9-0.2,1.1-0.5c0.2-0.4,0.4-0.8,0.4-1.2v-3.1
	C43.3,47.2,43.4,47,43.4,46.8z M45.7,52.8c-0.2-0.2-0.2-0.4-0.3-0.6c0.1-0.3,0.2-0.5,0.4-0.7c0.1-0.1,0.3-0.2,0.5-0.2
	c0.2,0,0.4,0.2,0.8,0.5c0.1,0.1,0.2,0.2,0.4,0.3c0.1,0.1,0.3,0.1,0.5,0.2c0.6,0,0.9-0.2,0.9-0.8c0-0.2-0.1-0.3-0.3-0.4
	c-0.2-0.1-0.4-0.2-0.6-0.2c-0.3-0.1-0.6-0.1-0.8-0.2c-0.3-0.1-0.6-0.2-0.8-0.4c-0.3-0.2-0.5-0.4-0.6-0.7c-0.2-0.3-0.3-0.7-0.2-1.1
	c0-0.6,0.2-1.1,0.7-1.5c0.5-0.4,1.1-0.7,1.8-0.6c0.4,0,0.7,0,1.1,0.2c0.2,0.1,0.5,0.2,0.7,0.3l0.2,0.2c0.2,0.1,0.3,0.3,0.3,0.5
	c0,0.2-0.1,0.4-0.2,0.5c-0.2,0.3-0.5,0.5-0.7,0.5c-0.2,0-0.4-0.1-0.5-0.2l-0.1-0.1l-0.2-0.1c-0.2-0.1-0.4-0.1-0.5-0.1
	c-0.2,0-0.4,0-0.5,0.2c-0.1,0.1-0.2,0.3-0.2,0.4c0,0.2,0.1,0.3,0.2,0.4c0.2,0.1,0.4,0.2,0.6,0.2c0.3,0,0.6,0.1,0.8,0.2
	c0.3,0.1,0.6,0.2,0.8,0.3c0.3,0.1,0.5,0.4,0.6,0.6c0.2,0.3,0.3,0.7,0.3,1.1c0,0.4-0.1,0.8-0.3,1.2c-0.2,0.3-0.4,0.6-0.7,0.8
	c-0.5,0.3-1.1,0.5-1.7,0.5c-0.3,0-0.6,0-0.9-0.1c-0.2-0.1-0.5-0.2-0.7-0.3c-0.3-0.2-0.5-0.4-0.7-0.6L45.7,52.8z M56,52l0.2-0.1
	c0.1-0.1,0.3-0.2,0.5-0.2c0.2,0,0.4,0.2,0.7,0.6c0.1,0.2,0.2,0.4,0.2,0.6c0,0.1,0,0.3-0.1,0.3c-0.1,0.1-0.2,0.2-0.3,0.2l-0.3,0.2
	c-0.2,0.1-0.4,0.2-0.7,0.3c-0.3,0.1-0.7,0.2-1,0.2c-0.3,0-0.7,0-1-0.1c-0.3-0.1-0.7-0.2-1-0.4c-0.3-0.2-0.6-0.4-0.9-0.7
	c-0.3-0.3-0.5-0.7-0.7-1.1c-0.2-0.5-0.3-1-0.3-1.5c0-0.5,0.1-1,0.3-1.4c0.1-0.4,0.4-0.7,0.7-1c0.3-0.3,0.6-0.5,0.9-0.7
	c0.6-0.4,1.3-0.5,2-0.5c0.3,0,0.7,0,1,0.2c0.3,0.1,0.5,0.2,0.7,0.3l0.2,0.1l0.3,0.2c0.2,0.1,0.3,0.3,0.3,0.5c0,0.2-0.1,0.4-0.2,0.5
	c-0.3,0.4-0.5,0.5-0.7,0.5c-0.2,0-0.4-0.1-0.5-0.2c-0.3-0.3-0.7-0.4-1.2-0.4c-0.5,0-0.9,0.2-1.3,0.5c-0.2,0.2-0.4,0.4-0.5,0.6
	c-0.3,0.6-0.3,1.2,0,1.8c0.1,0.3,0.3,0.5,0.5,0.6c0.4,0.3,0.8,0.4,1.3,0.4c0.2,0,0.4,0,0.6-0.1C55.7,52.1,55.9,52.1,56,52z
	 M63.8,52.7c0.1,0.2,0.1,0.3,0.2,0.5c0,0.2-0.2,0.5-0.6,0.6C63.2,53.9,63,54,62.8,54c-0.1,0-0.2,0-0.3-0.1c-0.1-0.1-0.1-0.1-0.2-0.2
	c-0.1-0.1-0.3-0.7-0.8-1.8h-0.3H60V53c0,0.1,0,0.2,0,0.3c0,0.1,0,0.2-0.1,0.3c-0.1,0.2-0.4,0.3-0.8,0.3c-0.5,0-0.7-0.1-0.8-0.4
	c0-0.2-0.1-0.3-0.1-0.5v-5.6c0-0.2,0-0.3,0-0.3c0-0.1,0.1-0.2,0.1-0.3c0.1-0.2,0.4-0.3,0.8-0.3h2.2c0.6,0,1.2,0.2,1.7,0.6
	c0.3,0.2,0.5,0.5,0.7,0.8c0.2,0.4,0.3,0.8,0.3,1.2c0,0.7-0.3,1.4-0.8,1.9L63.8,52.7z M60,50.1h1.3c0.2,0,0.4-0.1,0.6-0.2
	c0.4-0.3,0.4-0.9,0-1.3c0,0,0,0,0,0c-0.2-0.1-0.4-0.2-0.6-0.2H60V50.1z M64.5,47.4c0-0.2,0-0.3,0-0.3c0-0.1,0.1-0.2,0.1-0.3
	c0.1-0.2,0.4-0.3,0.8-0.3c0.5,0,0.8,0.1,0.8,0.4c0,0.2,0,0.3,0,0.5V53c0,0.1,0,0.2,0,0.3c0,0.1,0,0.2-0.1,0.3
	c-0.1,0.2-0.4,0.3-0.8,0.3c-0.5,0-0.7-0.1-0.8-0.4c0-0.2-0.1-0.3-0.1-0.5L64.5,47.4z M72.7,52.6c0.1,0.2,0.1,0.3,0.2,0.5
	c0,0.2-0.2,0.5-0.6,0.6c-0.2,0.1-0.3,0.1-0.5,0.1c-0.1,0-0.2,0-0.3-0.1c-0.1-0.1-0.1-0.1-0.2-0.2c-0.1-0.1-0.3-0.7-0.8-1.8h-0.3
	h-1.3V53c0,0.1,0,0.2,0,0.3c0,0.1,0,0.2-0.1,0.3c-0.1,0.2-0.4,0.3-0.8,0.3c-0.5,0-0.7-0.1-0.8-0.4c0-0.2-0.1-0.3-0.1-0.5v-5.6
	c0-0.1,0-0.2,0-0.3c0-0.1,0.1-0.2,0.1-0.3c0.1-0.2,0.3-0.3,0.8-0.3h2.2c0.6,0,1.2,0.2,1.7,0.6c0.3,0.2,0.5,0.5,0.7,0.8
	c0.2,0.4,0.3,0.8,0.3,1.2c0,0.7-0.3,1.4-0.8,1.9C72.2,51.4,72.4,52,72.7,52.6L72.7,52.6z M68.9,50.1h1.3c0.2,0,0.4-0.1,0.6-0.2
	c0.4-0.3,0.4-0.9,0-1.3c0,0,0,0,0,0c-0.2-0.1-0.4-0.2-0.6-0.2h-1.3L68.9,50.1z M75.2,52.1h3.1h0.3c0.1,0,0.2,0,0.3,0.1
	c0.2,0.1,0.3,0.4,0.3,0.8c0,0.5-0.1,0.7-0.4,0.8c-0.2,0-0.3,0.1-0.5,0.1h-4c-0.5,0-0.7-0.1-0.8-0.4c0-0.2-0.1-0.3-0.1-0.5v-5.5
	c0-0.2,0-0.5,0.2-0.7c0.2-0.2,0.5-0.2,0.7-0.2h3.9h0.3c0.1,0,0.2,0,0.3,0.1c0.2,0.1,0.3,0.4,0.3,0.8c0,0.5-0.1,0.7-0.4,0.8
	c-0.2,0-0.3,0.1-0.5,0.1h-3.1v1h2h0.3c0.1,0,0.2,0,0.3,0.1c0.2,0.1,0.3,0.4,0.3,0.8c0,0.5-0.1,0.7-0.4,0.8c-0.2,0-0.3,0.1-0.5,0.1
	h-2L75.2,52.1z"/>
<path class="st1" d="M72.8,3.6c-0.1-0.1-0.3-0.2-0.5-0.3c-0.2-0.1-0.4-0.1-0.6-0.1c-0.2,0-0.4,0.1-0.6,0.2c-0.2,0.1-0.3,0.2-0.4,0.4
	l-23.3,28L35.3,18.4c-0.5-0.5-1.2-0.9-1.9-0.9c-0.7-0.1-1.5,0.2-2,0.7c-0.5,0.5-0.8,1.2-0.9,1.9c0,0.7,0.2,1.4,0.7,2l14.2,15.6
	l0.1,0.1c0.3,0.3,0.6,0.5,1,0.7c0.4,0.1,0.7,0.2,1.1,0.2c0.4,0,0.8-0.1,1.1-0.3c0.3-0.2,0.6-0.4,0.9-0.8l23.4-32
	c0.2-0.3,0.3-0.6,0.3-1C73.3,4.2,73.2,3.8,72.8,3.6z"/>
<path class="st2" d="M37.5,52.2h3.1c0.2,0,0.3,0,0.3,0c0.1,0,0.2,0,0.3,0.1c0.2,0.1,0.3,0.4,0.3,0.8c0,0.5-0.1,0.7-0.4,0.8
	C41,54,40.9,54,40.6,54h-4c-0.5,0-0.7-0.1-0.8-0.4c0-0.1-0.1-0.3-0.1-0.5v-5.6c0-0.3,0.1-0.6,0.2-0.7c0.1-0.1,0.4-0.2,0.7-0.2h4
	c0.2,0,0.3,0,0.3,0c0.1,0,0.2,0,0.3,0.1c0.2,0.1,0.3,0.4,0.3,0.8c0,0.5-0.1,0.7-0.4,0.8c-0.1,0-0.3,0.1-0.5,0.1h-3.1v1h2
	c0.2,0,0.3,0,0.3,0c0.1,0,0.2,0,0.3,0.1c0.2,0.1,0.3,0.4,0.3,0.8c0,0.5-0.1,0.7-0.4,0.8c-0.1,0-0.3,0.1-0.5,0.1h-2V52.2z M50,46.9
	c0.1,0.1,0.1,0.2,0.1,0.3c0,0.1,0,0.2,0,0.4v5.6c0,0.5-0.1,0.7-0.4,0.8c-0.1,0-0.3,0.1-0.5,0.1c-0.2,0-0.3,0-0.5-0.1
	c-0.1,0-0.2-0.1-0.3-0.1c-0.1,0-0.1-0.1-0.1-0.2c0-0.1-0.1-0.3-0.1-0.5v-3.4c-0.2,0.2-0.4,0.5-0.7,1c-0.3,0.4-0.5,0.7-0.6,0.8
	s-0.1,0.2-0.2,0.2c0,0-0.1,0.1-0.3,0.2c-0.1,0.1-0.3,0.1-0.4,0.1c-0.1,0-0.3,0-0.4-0.1c-0.1-0.1-0.2-0.1-0.3-0.2l-0.1-0.1
	c-0.1-0.2-0.4-0.5-0.8-1.1c-0.4-0.6-0.6-0.8-0.6-0.9v3.4c0,0.2,0,0.3,0,0.4c0,0.1,0,0.2-0.1,0.3C43.7,53.9,43.5,54,43,54
	c-0.4,0-0.7-0.1-0.8-0.3c-0.1-0.1-0.1-0.2-0.1-0.3c0-0.1,0-0.2,0-0.4v-5.6c0-0.2,0-0.3,0-0.3c0-0.1,0-0.2,0.1-0.3
	c0.1-0.2,0.4-0.3,0.8-0.3c0.2,0,0.3,0,0.5,0.1c0.1,0,0.2,0.1,0.3,0.1l0.1,0.1l2.3,3c1.1-1.5,1.9-2.5,2.3-3c0.1-0.2,0.4-0.3,0.8-0.3
	C49.7,46.6,49.9,46.7,50,46.9z M55.2,47.1l2.7,5.6c0.1,0.2,0.2,0.4,0.2,0.5c0,0.2-0.2,0.5-0.6,0.7c-0.2,0.1-0.4,0.2-0.5,0.2
	c-0.1,0-0.2,0-0.3-0.1c-0.1-0.1-0.1-0.1-0.2-0.2c0-0.1-0.1-0.2-0.2-0.3l-0.5-1.1H53l-0.5,1.1c-0.1,0.1-0.1,0.2-0.2,0.3
	c0,0.1-0.1,0.1-0.2,0.2c-0.1,0.1-0.2,0.1-0.3,0.1c-0.1,0-0.3-0.1-0.5-0.2c-0.4-0.2-0.6-0.4-0.6-0.6c0-0.1,0.1-0.3,0.2-0.5l2.7-5.6
	c0.1-0.2,0.2-0.3,0.3-0.4c0.2-0.1,0.3-0.1,0.5-0.1C54.7,46.6,55,46.8,55.2,47.1z M54.4,49.5l-0.7,1.4h1.3L54.4,49.5z M58.6,47.5
	c0-0.2,0-0.3,0-0.3c0-0.1,0-0.2,0.1-0.3c0.1-0.2,0.4-0.3,0.8-0.3c0.5,0,0.7,0.1,0.8,0.4c0,0.1,0.1,0.3,0.1,0.5v5.6
	c0,0.2,0,0.3,0,0.4c0,0.1,0,0.2-0.1,0.3c-0.1,0.2-0.4,0.3-0.8,0.3c-0.5,0-0.7-0.1-0.8-0.4c0-0.1-0.1-0.3-0.1-0.5V47.5z M63,52.5h2.7
	c0.2,0,0.4,0,0.5,0.1c0.1,0,0.2,0.1,0.2,0.2c0,0.1,0.1,0.3,0.1,0.4c0,0.2,0,0.3-0.1,0.4c0,0.1-0.1,0.2-0.2,0.2
	C66.1,53.9,66,54,65.7,54h-3.6c-0.5,0-0.7-0.1-0.8-0.4c0-0.1-0.1-0.3-0.1-0.5v-5.6c0-0.2,0-0.3,0-0.3c0-0.1,0-0.2,0.1-0.3
	c0.1-0.2,0.4-0.3,0.8-0.3c0.5,0,0.7,0.1,0.8,0.4c0,0.1,0.1,0.3,0.1,0.5V52.5z"/>
<path class="st2" d="M72,5.6H32c-0.6,0-1.2,0.5-1.2,1.2v27.8c0,0.6,0.5,1.2,1.2,1.2h40c0.6,0,1.2-0.5,1.2-1.2V6.8
	C73.1,6.2,72.6,5.6,72,5.6z M70.8,33.4H33.1V8h37.7V33.4z"/>
<path class="st2" d="M35.4,12.3l11.2,8.1l-11.2,8.8c-0.5,0.4-0.6,1.1-0.2,1.6c0.2,0.3,0.6,0.5,0.9,0.5c0.2,0,0.5-0.1,0.7-0.2
	l11.7-9.3l2.8,2c0.2,0.2,0.5,0.2,0.7,0.2c0.2,0,0.5-0.1,0.7-0.2l2.8-2l11.7,9.3c0.2,0.2,0.5,0.2,0.7,0.2c0.3,0,0.7-0.2,0.9-0.5
	c0.4-0.5,0.3-1.2-0.2-1.6l-11.3-8.9l11.2-8.1c0.5-0.4,0.6-1.1,0.3-1.6c-0.4-0.5-1.1-0.6-1.6-0.3L52,21.4l-15.2-11
	c-0.5-0.4-1.2-0.3-1.6,0.3C34.8,11.2,34.9,11.9,35.4,12.3z"/>
</svg>
