<svg width="8" height="15" viewBox="0 0 8 15" fill="none" xmlns="http://www.w3.org/2000/svg">
<path d="M7.02628 7.2856H4.82105C4.82105 10.5463 4.82105 14.5598 4.82105 14.5598H1.55333C1.55333 14.5598 1.55333 10.5852 1.55333 7.2856H0V4.71466H1.55333V3.05173C1.55333 1.86076 2.16483 -0.000244141 4.85107 -0.000244141L7.27252 0.00834586V2.50399C7.27252 2.50399 5.80109 2.50399 5.51499 2.50399C5.2289 2.50399 4.82214 2.63638 4.82214 3.20433V4.71516H7.31183L7.02628 7.2856Z" fill="#C2D1D9"/>
<mask id="mask0" mask-type="alpha" maskUnits="userSpaceOnUse" x="0" y="-1" width="8" height="16">
<path d="M7.02628 7.2856H4.82105C4.82105 10.5463 4.82105 14.5598 4.82105 14.5598H1.55333C1.55333 14.5598 1.55333 10.5852 1.55333 7.2856H0V4.71466H1.55333V3.05173C1.55333 1.86076 2.16483 -0.000244141 4.85107 -0.000244141L7.27252 0.00834586V2.50399C7.27252 2.50399 5.80109 2.50399 5.51499 2.50399C5.2289 2.50399 4.82214 2.63638 4.82214 3.20433V4.71516H7.31183L7.02628 7.2856Z" fill="white"/>
</mask>
<g mask="url(#mask0)">
<rect x="-10.1138" y="-5.2002" width="26.9702" height="24.96" fill="#424B5A"/>
</g>
</svg>
