<svg width="16" height="15" viewBox="0 0 16 15" fill="none" xmlns="http://www.w3.org/2000/svg">
<path fill-rule="evenodd" clip-rule="evenodd" d="M15.9996 11.7457V5.78532V2.81339C15.9996 1.26143 14.6358 -0.000244141 12.9588 -0.000244141H3.3078C1.63086 -0.000244141 0.267578 1.26143 0.267578 2.81339V5.78532V11.7457C0.267578 13.2981 1.63086 14.5598 3.3078 14.5598H12.9594C14.6358 14.5598 15.9996 13.2981 15.9996 11.7457ZM10.9031 7.27905C10.9031 8.69229 9.659 9.84155 8.13304 9.84155C6.60652 9.84155 5.36358 8.69178 5.36525 7.27854C5.36581 6.72066 5.56136 6.20559 5.88895 5.78486C6.39314 5.13934 7.21044 4.71655 8.13471 4.71655C9.05842 4.71655 9.87628 5.13985 10.3794 5.78538C10.7058 6.2061 10.9031 6.72118 10.9031 7.27905ZM14.1795 4.14409V1.99618V1.67651L13.8324 1.67754L11.5126 1.68425L11.5215 4.15234L14.1795 4.14409ZM8.1336 11.2611C10.5064 11.2611 12.4363 9.47399 12.4363 7.27909C12.4363 6.75112 12.3209 6.24635 12.1165 5.7854H14.4659V11.7457C14.4659 12.516 13.789 13.1399 12.9583 13.1399H3.30724C2.47546 13.1399 1.79967 12.516 1.79967 11.7457V5.7854H4.14794C3.94515 6.24635 3.8315 6.75112 3.8315 7.27909C3.8315 9.47399 5.76081 11.2611 8.1336 11.2611Z" fill="#424B5A"/>
<mask id="mask0" mask-type="alpha" maskUnits="userSpaceOnUse" x="0" y="-1" width="16" height="16">
<path fill-rule="evenodd" clip-rule="evenodd" d="M15.9996 11.7457V5.78532V2.81339C15.9996 1.26143 14.6358 -0.000244141 12.9588 -0.000244141H3.3078C1.63086 -0.000244141 0.267578 1.26143 0.267578 2.81339V5.78532V11.7457C0.267578 13.2981 1.63086 14.5598 3.3078 14.5598H12.9594C14.6358 14.5598 15.9996 13.2981 15.9996 11.7457ZM10.9031 7.27905C10.9031 8.69229 9.659 9.84155 8.13304 9.84155C6.60652 9.84155 5.36358 8.69178 5.36525 7.27854C5.36581 6.72066 5.56136 6.20559 5.88895 5.78486C6.39314 5.13934 7.21044 4.71655 8.13471 4.71655C9.05842 4.71655 9.87628 5.13985 10.3794 5.78538C10.7058 6.2061 10.9031 6.72118 10.9031 7.27905ZM14.1795 4.14409V1.99618V1.67651L13.8324 1.67754L11.5126 1.68425L11.5215 4.15234L14.1795 4.14409ZM8.1336 11.2611C10.5064 11.2611 12.4363 9.47399 12.4363 7.27909C12.4363 6.75112 12.3209 6.24635 12.1165 5.7854H14.4659V11.7457C14.4659 12.516 13.789 13.1399 12.9583 13.1399H3.30724C2.47546 13.1399 1.79967 12.516 1.79967 11.7457V5.7854H4.14794C3.94515 6.24635 3.8315 6.75112 3.8315 7.27909C3.8315 9.47399 5.76081 11.2611 8.1336 11.2611Z" fill="white"/>
</mask>
<g mask="url(#mask0)">
<rect x="-5.3512" y="-5.2002" width="26.9702" height="24.96" fill="#424B5A"/>
</g>
</svg>
