<?xml version="1.0" encoding="utf-8"?>
<!-- Generator: Adobe Illustrator 23.0.1, SVG Export Plug-In . SVG Version: 6.00 Build 0)  -->
<svg version="1.1" xmlns="http://www.w3.org/2000/svg" xmlns:xlink="http://www.w3.org/1999/xlink" x="0px" y="0px"
	 viewBox="0 0 104 54" style="enable-background:new 0 0 104 54;" xml:space="preserve">
<style type="text/css">
	.st0{display:none;}
	.st1{display:inline;fill:#5669B0;}
	.st2{fill:#FFFFFF;}
	.st3{fill-rule:evenodd;clip-rule:evenodd;fill:#FFFFFF;}
</style>
<g id="Calque_1" class="st0">
	<title>souscrire</title>
	<path class="st1" d="M25.1,52.8c-0.1-0.2-0.2-0.4-0.3-0.6c0.1-0.3,0.2-0.5,0.4-0.7c0.1-0.1,0.3-0.2,0.5-0.2c0.2,0,0.5,0.2,0.8,0.5
		c0.1,0.1,0.3,0.2,0.4,0.3c0.1,0.1,0.3,0.1,0.5,0.2c0.6,0,0.9-0.2,0.9-0.8c0-0.2-0.1-0.3-0.3-0.4C28,51.1,27.8,51,27.6,51
		c-0.3-0.1-0.6-0.1-0.8-0.2c-0.3-0.1-0.6-0.2-0.8-0.4c-0.3-0.2-0.5-0.4-0.6-0.7C25.1,49.4,25,49,25,48.6c0-0.6,0.2-1.1,0.6-1.5
		c0.5-0.5,1.1-0.7,1.8-0.7c0.4,0,0.7,0,1.1,0.2c0.2,0.1,0.5,0.2,0.7,0.3l0.2,0.2c0.2,0.1,0.3,0.3,0.3,0.5c0,0.2-0.1,0.4-0.2,0.5
		c-0.2,0.3-0.5,0.5-0.7,0.5c-0.2,0-0.4-0.1-0.5-0.2l-0.1-0.1c0,0-0.1-0.1-0.1-0.1c-0.2-0.1-0.4-0.1-0.5-0.1c-0.2,0-0.4,0-0.5,0.2
		c-0.1,0.1-0.2,0.3-0.2,0.4c0,0.2,0.1,0.3,0.2,0.4c0.2,0.1,0.4,0.2,0.6,0.2c0.3,0,0.6,0.1,0.8,0.2c0.3,0.1,0.6,0.2,0.8,0.3
		c0.3,0.1,0.5,0.4,0.6,0.6c0.2,0.3,0.3,0.7,0.3,1.1c0,0.4-0.1,0.8-0.2,1.1c-0.2,0.3-0.4,0.6-0.7,0.8c-0.5,0.3-1.1,0.5-1.7,0.5
		c-0.3,0-0.6,0-0.9-0.1c-0.2-0.1-0.5-0.2-0.7-0.3c-0.3-0.2-0.5-0.4-0.7-0.6L25.1,52.8z M34.3,46.5c2,0,3.7,1.7,3.7,3.7c0,0,0,0,0,0
		c0,1-0.3,2-1,2.7c-0.7,0.7-1.6,1.1-2.6,1.1c-1,0-1.9-0.4-2.6-1.1c-0.7-0.7-1.1-1.6-1.1-2.6c0-0.5,0.1-1.1,0.3-1.5
		c0.2-0.5,0.5-0.9,0.8-1.2c0.3-0.3,0.7-0.6,1.2-0.8C33.4,46.6,33.9,46.5,34.3,46.5z M32.5,50.2c0,0.5,0.2,1.1,0.6,1.5
		c0.7,0.7,1.8,0.7,2.5,0c0,0,0,0,0,0c0.8-0.8,0.8-2.1,0-2.9c-0.7-0.7-1.8-0.7-2.5-0.1c0,0-0.1,0.1-0.1,0.1
		C32.7,49.2,32.5,49.7,32.5,50.2z M43.4,46.8c0.1-0.1,0.2-0.2,0.3-0.2c0.2,0,0.3-0.1,0.5-0.1c0.2,0,0.3,0,0.5,0
		c0.1,0,0.2,0.1,0.3,0.1c0.1,0.1,0.1,0.1,0.1,0.2c0,0.2,0.1,0.3,0.1,0.5v3c0,0.9-0.3,1.7-0.8,2.4c-0.3,0.3-0.6,0.6-1,0.8
		c-0.9,0.4-1.9,0.4-2.8,0c-0.4-0.2-0.7-0.5-1-0.8c-0.5-0.7-0.8-1.5-0.8-2.4v-3c0-0.2,0-0.3,0-0.3c0-0.1,0.1-0.2,0.1-0.3
		c0.1-0.1,0.1-0.2,0.2-0.2c0.2,0,0.3-0.1,0.5-0.1c0.2,0,0.3,0,0.5,0.1c0.1,0,0.2,0.1,0.3,0.2c0.1,0.2,0.1,0.4,0.1,0.6v3
		c0,0.4,0.1,0.8,0.3,1.2c0.1,0.2,0.3,0.3,0.5,0.5c0.2,0.1,0.5,0.2,0.7,0.2c0.5,0,0.9-0.2,1.1-0.5c0.2-0.4,0.4-0.8,0.4-1.2v-3.1
		C43.3,47.2,43.4,47,43.4,46.8z M45.7,52.8c-0.2-0.2-0.2-0.4-0.3-0.6c0.1-0.3,0.2-0.5,0.4-0.7c0.1-0.1,0.3-0.2,0.5-0.2
		c0.2,0,0.4,0.2,0.8,0.5c0.1,0.1,0.2,0.2,0.4,0.3c0.1,0.1,0.3,0.1,0.5,0.2c0.6,0,0.9-0.2,0.9-0.8c0-0.2-0.1-0.3-0.3-0.4
		c-0.2-0.1-0.4-0.2-0.6-0.2c-0.3-0.1-0.6-0.1-0.8-0.2c-0.3-0.1-0.6-0.2-0.8-0.4c-0.3-0.2-0.5-0.4-0.6-0.7c-0.2-0.3-0.3-0.7-0.2-1.1
		c0-0.6,0.2-1.1,0.7-1.5c0.5-0.4,1.1-0.7,1.8-0.6c0.4,0,0.7,0,1.1,0.2c0.2,0.1,0.5,0.2,0.7,0.3l0.2,0.2c0.2,0.1,0.3,0.3,0.3,0.5
		c0,0.2-0.1,0.4-0.2,0.5c-0.2,0.3-0.5,0.5-0.7,0.5c-0.2,0-0.4-0.1-0.5-0.2l-0.1-0.1l-0.2-0.1c-0.2-0.1-0.4-0.1-0.5-0.1
		c-0.2,0-0.4,0-0.5,0.2c-0.1,0.1-0.2,0.3-0.2,0.4c0,0.2,0.1,0.3,0.2,0.4c0.2,0.1,0.4,0.2,0.6,0.2c0.3,0,0.6,0.1,0.8,0.2
		c0.3,0.1,0.6,0.2,0.8,0.3c0.3,0.1,0.5,0.4,0.6,0.6c0.2,0.3,0.3,0.7,0.3,1.1c0,0.4-0.1,0.8-0.3,1.2c-0.2,0.3-0.4,0.6-0.7,0.8
		c-0.5,0.3-1.1,0.5-1.7,0.5c-0.3,0-0.6,0-0.9-0.1c-0.2-0.1-0.5-0.2-0.7-0.3c-0.3-0.2-0.5-0.4-0.7-0.6L45.7,52.8z M56,52l0.2-0.1
		c0.1-0.1,0.3-0.2,0.5-0.2c0.2,0,0.4,0.2,0.7,0.6c0.1,0.2,0.2,0.4,0.2,0.6c0,0.1,0,0.3-0.1,0.3c-0.1,0.1-0.2,0.2-0.3,0.2l-0.3,0.2
		c-0.2,0.1-0.4,0.2-0.7,0.3c-0.3,0.1-0.7,0.2-1,0.2c-0.3,0-0.7,0-1-0.1c-0.3-0.1-0.7-0.2-1-0.4c-0.3-0.2-0.6-0.4-0.9-0.7
		c-0.3-0.3-0.5-0.7-0.7-1.1c-0.2-0.5-0.3-1-0.3-1.5c0-0.5,0.1-1,0.3-1.4c0.1-0.4,0.4-0.7,0.7-1c0.3-0.3,0.6-0.5,0.9-0.7
		c0.6-0.4,1.3-0.5,2-0.5c0.3,0,0.7,0,1,0.2c0.3,0.1,0.5,0.2,0.7,0.3l0.2,0.1l0.3,0.2c0.2,0.1,0.3,0.3,0.3,0.5c0,0.2-0.1,0.4-0.2,0.5
		c-0.3,0.4-0.5,0.5-0.7,0.5c-0.2,0-0.4-0.1-0.5-0.2c-0.3-0.3-0.7-0.4-1.2-0.4c-0.5,0-0.9,0.2-1.3,0.5c-0.2,0.2-0.4,0.4-0.5,0.6
		c-0.3,0.6-0.3,1.2,0,1.8c0.1,0.3,0.3,0.5,0.5,0.6c0.4,0.3,0.8,0.4,1.3,0.4c0.2,0,0.4,0,0.6-0.1C55.7,52.1,55.9,52.1,56,52z
		 M63.8,52.7c0.1,0.2,0.1,0.3,0.2,0.5c0,0.2-0.2,0.5-0.6,0.6C63.2,53.9,63,54,62.8,54c-0.1,0-0.2,0-0.3-0.1
		c-0.1-0.1-0.1-0.1-0.2-0.2c-0.1-0.1-0.3-0.7-0.8-1.8h-0.3H60V53c0,0.1,0,0.2,0,0.3c0,0.1,0,0.2-0.1,0.3c-0.1,0.2-0.4,0.3-0.8,0.3
		c-0.5,0-0.7-0.1-0.8-0.4c0-0.2-0.1-0.3-0.1-0.5v-5.6c0-0.2,0-0.3,0-0.3c0-0.1,0.1-0.2,0.1-0.3c0.1-0.2,0.4-0.3,0.8-0.3h2.2
		c0.6,0,1.2,0.2,1.7,0.6c0.3,0.2,0.5,0.5,0.7,0.8c0.2,0.4,0.3,0.8,0.3,1.2c0,0.7-0.3,1.4-0.8,1.9L63.8,52.7z M60,50.1h1.3
		c0.2,0,0.4-0.1,0.6-0.2c0.4-0.3,0.4-0.9,0-1.3c0,0,0,0,0,0c-0.2-0.1-0.4-0.2-0.6-0.2H60V50.1z M64.5,47.4c0-0.2,0-0.3,0-0.3
		c0-0.1,0.1-0.2,0.1-0.3c0.1-0.2,0.4-0.3,0.8-0.3c0.5,0,0.8,0.1,0.8,0.4c0,0.2,0,0.3,0,0.5V53c0,0.1,0,0.2,0,0.3
		c0,0.1,0,0.2-0.1,0.3c-0.1,0.2-0.4,0.3-0.8,0.3c-0.5,0-0.7-0.1-0.8-0.4c0-0.2-0.1-0.3-0.1-0.5L64.5,47.4z M72.7,52.6
		c0.1,0.2,0.1,0.3,0.2,0.5c0,0.2-0.2,0.5-0.6,0.6c-0.2,0.1-0.3,0.1-0.5,0.1c-0.1,0-0.2,0-0.3-0.1c-0.1-0.1-0.1-0.1-0.2-0.2
		c-0.1-0.1-0.3-0.7-0.8-1.8h-0.3h-1.3V53c0,0.1,0,0.2,0,0.3c0,0.1,0,0.2-0.1,0.3c-0.1,0.2-0.4,0.3-0.8,0.3c-0.5,0-0.7-0.1-0.8-0.4
		c0-0.2-0.1-0.3-0.1-0.5v-5.6c0-0.1,0-0.2,0-0.3c0-0.1,0.1-0.2,0.1-0.3c0.1-0.2,0.3-0.3,0.8-0.3h2.2c0.6,0,1.2,0.2,1.7,0.6
		c0.3,0.2,0.5,0.5,0.7,0.8c0.2,0.4,0.3,0.8,0.3,1.2c0,0.7-0.3,1.4-0.8,1.9C72.2,51.4,72.4,52,72.7,52.6L72.7,52.6z M68.9,50.1h1.3
		c0.2,0,0.4-0.1,0.6-0.2c0.4-0.3,0.4-0.9,0-1.3c0,0,0,0,0,0c-0.2-0.1-0.4-0.2-0.6-0.2h-1.3L68.9,50.1z M75.2,52.1h3.1h0.3
		c0.1,0,0.2,0,0.3,0.1c0.2,0.1,0.3,0.4,0.3,0.8c0,0.5-0.1,0.7-0.4,0.8c-0.2,0-0.3,0.1-0.5,0.1h-4c-0.5,0-0.7-0.1-0.8-0.4
		c0-0.2-0.1-0.3-0.1-0.5v-5.5c0-0.2,0-0.5,0.2-0.7c0.2-0.2,0.5-0.2,0.7-0.2h3.9h0.3c0.1,0,0.2,0,0.3,0.1c0.2,0.1,0.3,0.4,0.3,0.8
		c0,0.5-0.1,0.7-0.4,0.8c-0.2,0-0.3,0.1-0.5,0.1h-3.1v1h2h0.3c0.1,0,0.2,0,0.3,0.1c0.2,0.1,0.3,0.4,0.3,0.8c0,0.5-0.1,0.7-0.4,0.8
		c-0.2,0-0.3,0.1-0.5,0.1h-2L75.2,52.1z"/>
	<path class="st1" d="M72.8,3.6c-0.1-0.1-0.3-0.2-0.5-0.3c-0.2-0.1-0.4-0.1-0.6-0.1c-0.2,0-0.4,0.1-0.6,0.2
		c-0.2,0.1-0.3,0.2-0.4,0.4l-23.3,28L35.3,18.4c-0.5-0.5-1.2-0.9-1.9-0.9c-0.7-0.1-1.5,0.2-2,0.7c-0.5,0.5-0.8,1.2-0.9,1.9
		c0,0.7,0.2,1.4,0.7,2l14.2,15.6l0.1,0.1c0.3,0.3,0.6,0.5,1,0.7c0.4,0.1,0.7,0.2,1.1,0.2c0.4,0,0.8-0.1,1.1-0.3
		c0.3-0.2,0.6-0.4,0.9-0.8l23.4-32c0.2-0.3,0.3-0.6,0.3-1C73.3,4.2,73.2,3.8,72.8,3.6z"/>
</g>
<g id="Calque_2">
	<path class="st2" d="M29.7,46.9c0.1,0.1,0.1,0.2,0.1,0.3c0,0.1,0,0.2,0,0.3V53c0,0.5-0.1,0.7-0.4,0.8c-0.1,0-0.3,0.1-0.5,0.1
		s-0.3,0-0.5-0.1c-0.1,0-0.2-0.1-0.3-0.1s-0.1-0.1-0.1-0.2c0-0.1,0-0.3,0-0.5v-3.3c-0.2,0.2-0.4,0.5-0.7,1c-0.3,0.4-0.5,0.7-0.6,0.8
		c-0.1,0.1-0.1,0.2-0.2,0.2c0,0-0.1,0.1-0.2,0.2C26.1,52,26,52,25.8,52c-0.1,0-0.3,0-0.4-0.1c-0.1-0.1-0.2-0.1-0.3-0.2l-0.1-0.1
		c-0.1-0.2-0.4-0.5-0.8-1.1c-0.4-0.5-0.6-0.8-0.6-0.9V53c0,0.2,0,0.3,0,0.4c0,0.1,0,0.2-0.1,0.2c-0.1,0.2-0.4,0.3-0.8,0.3
		c-0.4,0-0.7-0.1-0.8-0.3c-0.1-0.1-0.1-0.2-0.1-0.3c0-0.1,0-0.2,0-0.4v-5.5c0-0.2,0-0.3,0-0.3c0-0.1,0-0.2,0.1-0.3
		c0.1-0.2,0.4-0.3,0.8-0.3c0.2,0,0.3,0,0.5,0.1c0.1,0,0.2,0.1,0.3,0.1l0.1,0.1l2.3,3c1.1-1.5,1.9-2.5,2.3-3c0.1-0.2,0.4-0.3,0.8-0.3
		C29.3,46.6,29.6,46.7,29.7,46.9z M35.4,46.8c0.1-0.1,0.2-0.2,0.3-0.2c0.1,0,0.3-0.1,0.5-0.1c0.2,0,0.3,0,0.5,0
		c0.1,0,0.2,0.1,0.3,0.1c0.1,0,0.1,0.1,0.1,0.2c0,0.1,0.1,0.3,0.1,0.5v3c0,0.9-0.3,1.7-0.8,2.4c-0.3,0.3-0.6,0.6-1,0.8
		c-0.4,0.2-0.9,0.3-1.4,0.3c-0.5,0-1-0.1-1.4-0.3c-0.4-0.2-0.8-0.5-1-0.8c-0.5-0.7-0.8-1.5-0.8-2.4v-3c0-0.2,0-0.3,0-0.3
		c0-0.1,0-0.2,0.1-0.3c0.1-0.1,0.1-0.2,0.3-0.2c0.1,0,0.3-0.1,0.5-0.1c0.2,0,0.4,0,0.5,0.1c0.1,0,0.2,0.1,0.3,0.2
		c0.1,0.2,0.1,0.4,0.1,0.6v3c0,0.4,0.1,0.8,0.3,1.2c0.1,0.2,0.2,0.3,0.5,0.4c0.2,0.1,0.4,0.2,0.7,0.2c0.5,0,0.8-0.2,1.1-0.5
		c0.2-0.4,0.4-0.8,0.4-1.2v-3.1C35.3,47.1,35.3,46.9,35.4,46.8z M38.3,46.6h5.6c0.2,0,0.4,0,0.5,0.1c0.1,0,0.2,0.1,0.2,0.2
		c0,0.1,0,0.2,0,0.4c0,0.2,0,0.3,0,0.4c0,0.1-0.1,0.2-0.2,0.2C44.3,48,44.1,48,43.9,48H42v5c0,0.2,0,0.3,0,0.3c0,0.1,0,0.2-0.1,0.3
		c0,0.1-0.1,0.2-0.3,0.2c-0.1,0-0.3,0.1-0.5,0.1c-0.2,0-0.4,0-0.5-0.1c-0.1,0-0.2-0.1-0.3-0.2c0-0.1-0.1-0.2-0.1-0.3
		c0-0.1,0-0.2,0-0.3v-5h-1.9c-0.2,0-0.4,0-0.5-0.1c-0.1-0.1-0.2-0.1-0.2-0.2c0-0.1-0.1-0.2-0.1-0.4c0-0.2,0-0.3,0.1-0.4
		c0-0.1,0.1-0.2,0.2-0.2C37.9,46.6,38.1,46.6,38.3,46.6z M50,46.8c0.1-0.1,0.2-0.2,0.3-0.2c0.1,0,0.3-0.1,0.5-0.1c0.2,0,0.3,0,0.5,0
		c0.1,0,0.2,0.1,0.3,0.1c0.1,0,0.1,0.1,0.1,0.2c0,0.1,0.1,0.3,0.1,0.5v3c0,0.9-0.3,1.7-0.8,2.4c-0.3,0.3-0.6,0.6-1,0.8
		c-0.4,0.2-0.9,0.3-1.4,0.3c-0.5,0-1-0.1-1.4-0.3c-0.4-0.2-0.8-0.5-1-0.8c-0.5-0.7-0.8-1.5-0.8-2.4v-3c0-0.2,0-0.3,0-0.3
		c0-0.1,0-0.2,0.1-0.3c0.1-0.1,0.1-0.2,0.3-0.2c0.1,0,0.3-0.1,0.5-0.1c0.2,0,0.4,0,0.5,0.1c0.1,0,0.2,0.1,0.3,0.2
		c0.1,0.2,0.1,0.4,0.1,0.6v3c0,0.4,0.1,0.8,0.3,1.2c0.1,0.2,0.2,0.3,0.5,0.4c0.2,0.1,0.4,0.2,0.7,0.2c0.5,0,0.9-0.2,1.1-0.5
		c0.2-0.4,0.4-0.8,0.4-1.2v-3.1C49.9,47.1,49.9,46.9,50,46.8z M54.2,52.1h3.1c0.2,0,0.3,0,0.3,0c0.1,0,0.2,0,0.3,0.1
		c0.2,0.1,0.3,0.4,0.3,0.8c0,0.5-0.1,0.7-0.4,0.8c-0.1,0-0.3,0.1-0.5,0.1h-4c-0.5,0-0.7-0.1-0.8-0.4c0-0.1-0.1-0.3-0.1-0.5v-5.6
		c0-0.3,0.1-0.6,0.2-0.7c0.1-0.1,0.4-0.2,0.7-0.2h3.9c0.2,0,0.3,0,0.3,0c0.1,0,0.2,0,0.3,0.1c0.2,0.1,0.3,0.4,0.3,0.8
		c0,0.5-0.1,0.7-0.4,0.8c-0.1,0-0.3,0.1-0.5,0.1h-3.1v1h2c0.2,0,0.3,0,0.3,0c0.1,0,0.2,0,0.3,0.1c0.2,0.1,0.3,0.4,0.3,0.8
		c0,0.5-0.1,0.7-0.4,0.8c-0.1,0-0.3,0.1-0.5,0.1h-2V52.1z M60.6,52.4h2.7c0.2,0,0.4,0,0.5,0.1c0.1,0,0.2,0.1,0.2,0.2
		c0,0.1,0,0.2,0,0.4c0,0.2,0,0.3,0,0.4s-0.1,0.2-0.2,0.2c-0.1,0.1-0.3,0.1-0.5,0.1h-3.6c-0.5,0-0.7-0.1-0.8-0.4
		c0-0.1-0.1-0.3-0.1-0.5v-5.6c0-0.2,0-0.3,0-0.3c0-0.1,0-0.2,0.1-0.3c0.1-0.2,0.4-0.3,0.8-0.3c0.5,0,0.7,0.1,0.8,0.4
		c0,0.1,0.1,0.3,0.1,0.5V52.4z M66.4,52.4h2.7c0.2,0,0.4,0,0.5,0.1c0.1,0,0.2,0.1,0.2,0.2c0,0.1,0.1,0.2,0.1,0.4
		c0,0.2,0,0.3-0.1,0.4c0,0.1-0.1,0.2-0.2,0.2c-0.1,0.1-0.3,0.1-0.5,0.1h-3.6c-0.5,0-0.7-0.1-0.8-0.4c0-0.1-0.1-0.3-0.1-0.5v-5.6
		c0-0.2,0-0.3,0-0.3c0-0.1,0-0.2,0.1-0.3c0.1-0.2,0.4-0.3,0.8-0.3c0.5,0,0.7,0.1,0.8,0.4c0,0.1,0,0.3,0,0.5V52.4z M72.3,52.1h3.1
		c0.2,0,0.3,0,0.3,0c0.1,0,0.2,0,0.3,0.1c0.2,0.1,0.3,0.4,0.3,0.8c0,0.5-0.1,0.7-0.4,0.8c-0.1,0-0.3,0.1-0.5,0.1h-4
		c-0.5,0-0.7-0.1-0.8-0.4c0-0.1-0.1-0.3-0.1-0.5v-5.6c0-0.3,0.1-0.6,0.2-0.7c0.1-0.1,0.4-0.2,0.7-0.2h3.9c0.2,0,0.3,0,0.3,0
		c0.1,0,0.2,0,0.3,0.1c0.2,0.1,0.3,0.4,0.3,0.8c0,0.5-0.1,0.7-0.4,0.8c-0.1,0-0.3,0.1-0.5,0.1h-3.1v1h2c0.2,0,0.3,0,0.3,0
		c0.1,0,0.2,0,0.3,0.1c0.2,0.1,0.3,0.4,0.3,0.8c0,0.5-0.1,0.7-0.4,0.8c-0.1,0-0.3,0.1-0.5,0.1h-2V52.1z M77,52.9
		c-0.2-0.2-0.3-0.4-0.3-0.6c0-0.2,0.1-0.4,0.4-0.7c0.2-0.2,0.3-0.2,0.5-0.2c0.2,0,0.4,0.2,0.8,0.5c0.1,0.1,0.2,0.2,0.4,0.3
		c0.2,0.1,0.3,0.1,0.5,0.1c0.6,0,0.9-0.3,0.9-0.8c0-0.2-0.1-0.3-0.3-0.4c-0.2-0.1-0.4-0.2-0.6-0.2c-0.3,0-0.5-0.1-0.8-0.2
		c-0.3-0.1-0.6-0.2-0.8-0.4c-0.3-0.1-0.5-0.4-0.6-0.7c-0.2-0.3-0.2-0.7-0.2-1.1c0-0.6,0.2-1.1,0.7-1.5c0.4-0.4,1-0.7,1.8-0.7
		c0.4,0,0.8,0.1,1.1,0.2c0.3,0.1,0.6,0.2,0.7,0.3l0.2,0.2c0.2,0.2,0.3,0.4,0.3,0.5s-0.1,0.3-0.2,0.5c-0.2,0.3-0.5,0.5-0.7,0.5
		c-0.1,0-0.3-0.1-0.5-0.2c0,0-0.1,0-0.1-0.1c-0.1-0.1-0.1-0.1-0.2-0.1c-0.1-0.1-0.3-0.1-0.5-0.1c-0.2,0-0.4,0.1-0.5,0.2
		c-0.1,0.1-0.2,0.2-0.2,0.4c0,0.2,0.1,0.3,0.2,0.4c0.2,0.1,0.4,0.2,0.6,0.2c0.3,0,0.5,0.1,0.8,0.2c0.3,0.1,0.6,0.2,0.8,0.3
		c0.3,0.1,0.5,0.3,0.6,0.6c0.2,0.3,0.3,0.7,0.3,1.1s-0.1,0.8-0.3,1.2c-0.2,0.3-0.4,0.6-0.7,0.8C80.6,53.8,80,54,79.4,54
		c-0.3,0-0.6,0-0.9-0.1c-0.3-0.1-0.5-0.2-0.7-0.3c-0.4-0.2-0.6-0.4-0.7-0.6L77,52.9z"/>
	<path class="st3" d="M52,10.5c-6.9,0-12.4,5.6-12.4,12.4c0,6.9,5.6,12.4,12.4,12.4s12.4-5.6,12.4-12.4C64.4,16,58.9,10.5,52,10.5z
		 M52,37c-7.8,0-14.1-6.3-14.1-14.1c0-7.8,6.3-14.1,14.1-14.1c7.8,0,14.1,6.3,14.1,14.1C66.1,30.7,59.8,37,52,37z"/>
	<path class="st3" d="M50.2,28.7h3.6v-4h4v-3.6h-4v-4h-3.6v4h-4v3.6h4V28.7z M55.5,30.4h-7v-4h-4v-7h4v-4h7v4h4v7h-4V30.4z"/>
</g>
</svg>
