<svg width="90" height="47" viewBox="0 0 90 47" fill="none" xmlns="http://www.w3.org/2000/svg">
<path d="M22.7652 38.95C22.8185 39.05 22.8485 39.14 22.8552 39.22C22.8685 39.3 22.8752 39.4167 22.8752 39.57V45.12C22.8752 45.58 22.7485 45.85 22.4952 45.93C22.3685 45.97 22.2085 45.99 22.0152 45.99C21.8219 45.99 21.6685 45.9733 21.5552 45.94C21.4419 45.9067 21.3552 45.8667 21.2952 45.82C21.2352 45.7733 21.1885 45.7067 21.1552 45.62C21.1219 45.5067 21.1052 45.3333 21.1052 45.1V41.75C20.9385 41.9567 20.6952 42.2867 20.3752 42.74C20.0552 43.1867 19.8519 43.4667 19.7652 43.58C19.6785 43.6933 19.6185 43.7733 19.5852 43.82C19.5519 43.86 19.4685 43.92 19.3352 44C19.2085 44.0733 19.0685 44.11 18.9152 44.11C18.7685 44.11 18.6319 44.0767 18.5052 44.01C18.3852 43.9367 18.2985 43.8667 18.2452 43.8L18.1652 43.69C18.0319 43.5233 17.7685 43.17 17.3752 42.63C16.9819 42.0833 16.7685 41.79 16.7352 41.75V45.12C16.7352 45.2733 16.7285 45.39 16.7152 45.47C16.7085 45.5433 16.6785 45.6267 16.6252 45.72C16.5252 45.9 16.2652 45.99 15.8452 45.99C15.4385 45.99 15.1852 45.9 15.0852 45.72C15.0319 45.6267 14.9985 45.54 14.9852 45.46C14.9785 45.38 14.9752 45.26 14.9752 45.1V39.55C14.9752 39.3967 14.9785 39.2833 14.9852 39.21C14.9985 39.13 15.0319 39.04 15.0852 38.94C15.1852 38.7667 15.4452 38.68 15.8652 38.68C16.0452 38.68 16.1985 38.7033 16.3252 38.75C16.4585 38.79 16.5452 38.8333 16.5852 38.88L16.6452 38.94L18.9152 41.92C20.0485 40.42 20.8052 39.43 21.1852 38.95C21.2985 38.77 21.5652 38.68 21.9852 38.68C22.4119 38.68 22.6719 38.77 22.7652 38.95ZM28.4664 38.94C28.533 38.8333 28.6297 38.76 28.7564 38.72C28.883 38.68 29.0397 38.66 29.2264 38.66C29.4197 38.66 29.573 38.6767 29.6864 38.71C29.7997 38.7433 29.8864 38.7833 29.9464 38.83C30.0064 38.8767 30.0497 38.9467 30.0764 39.04C30.1164 39.1533 30.1364 39.3267 30.1364 39.56V42.58C30.1364 43.46 29.863 44.26 29.3164 44.98C29.0497 45.32 28.7064 45.5967 28.2864 45.81C27.8664 46.0167 27.3997 46.12 26.8864 46.12C26.3797 46.12 25.9164 46.0133 25.4964 45.8C25.083 45.5867 24.7464 45.3067 24.4864 44.96C23.9464 44.2533 23.6764 43.4533 23.6764 42.56V39.55C23.6764 39.39 23.6797 39.2733 23.6864 39.2C23.6997 39.12 23.733 39.03 23.7864 38.93C23.8397 38.83 23.9297 38.76 24.0564 38.72C24.183 38.68 24.353 38.66 24.5664 38.66C24.7797 38.66 24.9497 38.68 25.0764 38.72C25.203 38.76 25.2897 38.83 25.3364 38.93C25.4164 39.0833 25.4564 39.2933 25.4564 39.56V42.56C25.4564 42.9667 25.5564 43.3533 25.7564 43.72C25.8564 43.9067 26.0064 44.0567 26.2064 44.17C26.4064 44.2833 26.643 44.34 26.9164 44.34C27.403 44.34 27.7664 44.16 28.0064 43.8C28.2464 43.44 28.3664 43.0233 28.3664 42.55V39.49C28.3664 39.23 28.3997 39.0467 28.4664 38.94ZM31.4122 38.66H36.9722C37.1856 38.66 37.3422 38.6867 37.4422 38.74C37.5422 38.7867 37.6089 38.8633 37.6422 38.97C37.6756 39.0767 37.6922 39.2167 37.6922 39.39C37.6922 39.5633 37.6756 39.7033 37.6422 39.81C37.6089 39.91 37.5522 39.98 37.4722 40.02C37.3522 40.08 37.1822 40.11 36.9622 40.11H35.0522V45.14C35.0522 45.2933 35.0456 45.4067 35.0322 45.48C35.0256 45.5533 34.9956 45.64 34.9422 45.74C34.8956 45.8333 34.8089 45.9 34.6822 45.94C34.5556 45.98 34.3889 46 34.1822 46C33.9756 46 33.8089 45.98 33.6822 45.94C33.5622 45.9 33.4756 45.8333 33.4222 45.74C33.3756 45.64 33.3456 45.5533 33.3322 45.48C33.3256 45.4 33.3222 45.2833 33.3222 45.13V40.11H31.4022C31.1889 40.11 31.0322 40.0867 30.9322 40.04C30.8322 39.9867 30.7656 39.9067 30.7322 39.8C30.6989 39.6933 30.6822 39.5533 30.6822 39.38C30.6822 39.2067 30.6989 39.07 30.7322 38.97C30.7656 38.8633 30.8222 38.79 30.9022 38.75C31.0222 38.69 31.1922 38.66 31.4122 38.66ZM43.0367 38.94C43.1033 38.8333 43.2 38.76 43.3267 38.72C43.4533 38.68 43.61 38.66 43.7967 38.66C43.99 38.66 44.1433 38.6767 44.2567 38.71C44.37 38.7433 44.4567 38.7833 44.5167 38.83C44.5767 38.8767 44.62 38.9467 44.6467 39.04C44.6867 39.1533 44.7067 39.3267 44.7067 39.56V42.58C44.7067 43.46 44.4333 44.26 43.8867 44.98C43.62 45.32 43.2767 45.5967 42.8567 45.81C42.4367 46.0167 41.97 46.12 41.4567 46.12C40.95 46.12 40.4867 46.0133 40.0667 45.8C39.6533 45.5867 39.3167 45.3067 39.0567 44.96C38.5167 44.2533 38.2467 43.4533 38.2467 42.56V39.55C38.2467 39.39 38.25 39.2733 38.2567 39.2C38.27 39.12 38.3033 39.03 38.3567 38.93C38.41 38.83 38.5 38.76 38.6267 38.72C38.7533 38.68 38.9233 38.66 39.1367 38.66C39.35 38.66 39.52 38.68 39.6467 38.72C39.7733 38.76 39.86 38.83 39.9067 38.93C39.9867 39.0833 40.0267 39.2933 40.0267 39.56V42.56C40.0267 42.9667 40.1267 43.3533 40.3267 43.72C40.4267 43.9067 40.5767 44.0567 40.7767 44.17C40.9767 44.2833 41.2133 44.34 41.4867 44.34C41.9733 44.34 42.3367 44.16 42.5767 43.8C42.8167 43.44 42.9367 43.0233 42.9367 42.55V39.49C42.9367 39.23 42.97 39.0467 43.0367 38.94ZM47.2725 44.23H50.3525C50.5059 44.23 50.6192 44.2367 50.6925 44.25C50.7725 44.2567 50.8625 44.2867 50.9625 44.34C51.1425 44.4333 51.2325 44.6933 51.2325 45.12C51.2325 45.5867 51.1092 45.86 50.8625 45.94C50.7492 45.98 50.5759 46 50.3425 46H46.3825C45.9159 46 45.6425 45.8733 45.5625 45.62C45.5225 45.5133 45.5025 45.3433 45.5025 45.11V39.55C45.5025 39.21 45.5659 38.98 45.6925 38.86C45.8192 38.7333 46.0592 38.67 46.4125 38.67H50.3525C50.5059 38.67 50.6192 38.6767 50.6925 38.69C50.7725 38.6967 50.8625 38.7267 50.9625 38.78C51.1425 38.8733 51.2325 39.1333 51.2325 39.56C51.2325 40.0267 51.1092 40.3 50.8625 40.38C50.7492 40.42 50.5759 40.44 50.3425 40.44H47.2725V41.45H49.2525C49.4059 41.45 49.5192 41.4567 49.5925 41.47C49.6725 41.4767 49.7625 41.5067 49.8625 41.56C50.0425 41.6533 50.1325 41.9133 50.1325 42.34C50.1325 42.8067 50.0059 43.08 49.7525 43.16C49.6392 43.2 49.4659 43.22 49.2325 43.22H47.2725V44.23ZM53.6495 44.52H56.3695C56.5895 44.52 56.7495 44.5467 56.8495 44.6C56.9495 44.6467 57.0162 44.7233 57.0495 44.83C57.0828 44.9367 57.0995 45.08 57.0995 45.26C57.0995 45.4333 57.0828 45.5733 57.0495 45.68C57.0162 45.7867 56.9595 45.86 56.8795 45.9C56.7528 45.9667 56.5795 46 56.3595 46H52.7595C52.2928 46 52.0195 45.8733 51.9395 45.62C51.8995 45.5133 51.8795 45.3433 51.8795 45.11V39.55C51.8795 39.3967 51.8828 39.2833 51.8895 39.21C51.9028 39.13 51.9362 39.04 51.9895 38.94C52.0828 38.76 52.3428 38.67 52.7695 38.67C53.2362 38.67 53.5128 38.7933 53.5995 39.04C53.6328 39.1533 53.6495 39.3267 53.6495 39.56V44.52ZM59.5186 44.52H62.2386C62.4586 44.52 62.6186 44.5467 62.7186 44.6C62.8186 44.6467 62.8853 44.7233 62.9186 44.83C62.952 44.9367 62.9686 45.08 62.9686 45.26C62.9686 45.4333 62.952 45.5733 62.9186 45.68C62.8853 45.7867 62.8286 45.86 62.7486 45.9C62.622 45.9667 62.4486 46 62.2286 46H58.6286C58.162 46 57.8886 45.8733 57.8086 45.62C57.7686 45.5133 57.7486 45.3433 57.7486 45.11V39.55C57.7486 39.3967 57.752 39.2833 57.7586 39.21C57.772 39.13 57.8053 39.04 57.8586 38.94C57.952 38.76 58.212 38.67 58.6386 38.67C59.1053 38.67 59.382 38.7933 59.4686 39.04C59.502 39.1533 59.5186 39.3267 59.5186 39.56V44.52ZM65.3878 44.23H68.4678C68.6211 44.23 68.7344 44.2367 68.8078 44.25C68.8878 44.2567 68.9778 44.2867 69.0778 44.34C69.2578 44.4333 69.3478 44.6933 69.3478 45.12C69.3478 45.5867 69.2244 45.86 68.9778 45.94C68.8644 45.98 68.6911 46 68.4578 46H64.4978C64.0311 46 63.7578 45.8733 63.6778 45.62C63.6378 45.5133 63.6178 45.3433 63.6178 45.11V39.55C63.6178 39.21 63.6811 38.98 63.8078 38.86C63.9344 38.7333 64.1744 38.67 64.5278 38.67H68.4678C68.6211 38.67 68.7344 38.6767 68.8078 38.69C68.8878 38.6967 68.9778 38.7267 69.0778 38.78C69.2578 38.8733 69.3478 39.1333 69.3478 39.56C69.3478 40.0267 69.2244 40.3 68.9778 40.38C68.8644 40.42 68.6911 40.44 68.4578 40.44H65.3878V41.45H67.3678C67.5211 41.45 67.6344 41.4567 67.7078 41.47C67.7878 41.4767 67.8778 41.5067 67.9778 41.56C68.1578 41.6533 68.2478 41.9133 68.2478 42.34C68.2478 42.8067 68.1211 43.08 67.8678 43.16C67.7544 43.2 67.5811 43.22 67.3478 43.22H65.3878V44.23ZM70.1047 44.97C69.9314 44.7567 69.8447 44.5667 69.8447 44.4C69.8447 44.2267 69.9881 44 70.2747 43.72C70.4414 43.56 70.6181 43.48 70.8047 43.48C70.9914 43.48 71.2514 43.6467 71.5847 43.98C71.6781 44.0933 71.8114 44.2033 71.9847 44.31C72.1581 44.41 72.3181 44.46 72.4647 44.46C73.0847 44.46 73.3947 44.2067 73.3947 43.7C73.3947 43.5467 73.3081 43.42 73.1347 43.32C72.9681 43.2133 72.7581 43.1367 72.5047 43.09C72.2514 43.0433 71.9781 42.97 71.6847 42.87C71.3914 42.7633 71.1181 42.64 70.8647 42.5C70.6114 42.36 70.3981 42.14 70.2247 41.84C70.0581 41.5333 69.9747 41.1667 69.9747 40.74C69.9747 40.1533 70.1914 39.6433 70.6247 39.21C71.0647 38.77 71.6614 38.55 72.4147 38.55C72.8147 38.55 73.1781 38.6033 73.5047 38.71C73.8381 38.81 74.0681 38.9133 74.1947 39.02L74.4447 39.21C74.6514 39.4033 74.7547 39.5667 74.7547 39.7C74.7547 39.8333 74.6747 40.0167 74.5147 40.25C74.2881 40.5833 74.0547 40.75 73.8147 40.75C73.6747 40.75 73.5014 40.6833 73.2947 40.55C73.2747 40.5367 73.2347 40.5033 73.1747 40.45C73.1214 40.3967 73.0714 40.3533 73.0247 40.32C72.8847 40.2333 72.7047 40.19 72.4847 40.19C72.2714 40.19 72.0914 40.2433 71.9447 40.35C71.8047 40.45 71.7347 40.5933 71.7347 40.78C71.7347 40.96 71.8181 41.1067 71.9847 41.22C72.1581 41.3333 72.3714 41.41 72.6247 41.45C72.8781 41.49 73.1547 41.5533 73.4547 41.64C73.7547 41.72 74.0314 41.82 74.2847 41.94C74.5381 42.06 74.7481 42.27 74.9147 42.57C75.0881 42.8633 75.1747 43.2267 75.1747 43.66C75.1747 44.0933 75.0881 44.4767 74.9147 44.81C74.7414 45.1367 74.5147 45.39 74.2347 45.57C73.6947 45.9233 73.1181 46.1 72.5047 46.1C72.1914 46.1 71.8947 46.0633 71.6147 45.99C71.3347 45.91 71.1081 45.8133 70.9347 45.7C70.5814 45.4867 70.3347 45.28 70.1947 45.08L70.1047 44.97Z" fill="white"/>
<path fill-rule="evenodd" clip-rule="evenodd" d="M45.1213 2.5536C38.2674 2.5536 32.6918 8.13033 32.6918 14.9842C32.6918 21.8369 38.2674 27.4137 45.1213 27.4137C51.9752 27.4137 57.5507 21.8369 57.5507 14.9842C57.5507 8.13033 51.9752 2.5536 45.1213 2.5536ZM45.1212 29.1055C37.3347 29.1055 31 22.7708 31 14.9842C31 7.19772 37.3347 0.861816 45.1212 0.861816C52.9078 0.861816 59.2425 7.19772 59.2425 14.9842C59.2425 22.7708 52.9078 29.1055 45.1212 29.1055Z" fill="white"/>
<path fill-rule="evenodd" clip-rule="evenodd" d="M43.3118 20.7759H46.9307V16.7923H50.913V13.1747H46.9307V9.19115H43.3118V13.1747H39.3283V16.7923H43.3118V20.7759ZM48.6225 22.4677H41.6201V18.4841H37.6377V11.4829H41.6201V7.50055H48.6225V11.4829H52.6048V18.4841H48.6225V22.4677Z" fill="white"/>
</svg>
