<?xml version="1.0" encoding="utf-8"?>
<!-- Generator: Adobe Illustrator 23.0.1, SVG Export Plug-In . SVG Version: 6.00 Build 0)  -->
<svg version="1.1" xmlns="http://www.w3.org/2000/svg" xmlns:xlink="http://www.w3.org/1999/xlink" x="0px" y="0px"
	 viewBox="0 0 104 54" style="enable-background:new 0 0 104 54;" xml:space="preserve">
<style type="text/css">
	.st0{display:none;}
	.st1{display:inline;fill:#594897;}
	.st2{fill:#FFFFFF;}
</style>
<g id="Calque_1" class="st0">
	<path class="st1" d="M25.1,52.8c-0.1-0.2-0.2-0.4-0.3-0.6c0.1-0.3,0.2-0.5,0.4-0.7c0.1-0.1,0.3-0.2,0.5-0.2c0.2,0,0.5,0.2,0.8,0.5
		c0.1,0.1,0.3,0.2,0.4,0.3c0.1,0.1,0.3,0.1,0.5,0.2c0.6,0,0.9-0.2,0.9-0.8c0-0.2-0.1-0.3-0.3-0.4C28,51.1,27.8,51,27.6,51
		c-0.3-0.1-0.6-0.1-0.8-0.2c-0.3-0.1-0.6-0.2-0.8-0.4c-0.3-0.2-0.5-0.4-0.6-0.7C25.1,49.4,25,49,25,48.6c0-0.6,0.2-1.1,0.6-1.5
		c0.5-0.5,1.1-0.7,1.8-0.7c0.4,0,0.7,0,1.1,0.2c0.2,0.1,0.5,0.2,0.7,0.3l0.2,0.2c0.2,0.1,0.3,0.3,0.3,0.5c0,0.2-0.1,0.4-0.2,0.5
		c-0.2,0.3-0.5,0.5-0.7,0.5c-0.2,0-0.4-0.1-0.5-0.2l-0.1-0.1c0,0-0.1-0.1-0.1-0.1c-0.2-0.1-0.4-0.1-0.5-0.1c-0.2,0-0.4,0-0.5,0.2
		c-0.1,0.1-0.2,0.3-0.2,0.4c0,0.2,0.1,0.3,0.2,0.4c0.2,0.1,0.4,0.2,0.6,0.2c0.3,0,0.6,0.1,0.8,0.2c0.3,0.1,0.6,0.2,0.8,0.3
		c0.3,0.1,0.5,0.4,0.6,0.6c0.2,0.3,0.3,0.7,0.3,1.1c0,0.4-0.1,0.8-0.2,1.1c-0.2,0.3-0.4,0.6-0.7,0.8c-0.5,0.3-1.1,0.5-1.7,0.5
		c-0.3,0-0.6,0-0.9-0.1c-0.2-0.1-0.5-0.2-0.7-0.3c-0.3-0.2-0.5-0.4-0.7-0.6L25.1,52.8z M34.3,46.5c2,0,3.7,1.7,3.7,3.7c0,0,0,0,0,0
		c0,1-0.3,2-1,2.7c-0.7,0.7-1.6,1.1-2.6,1.1c-1,0-1.9-0.4-2.6-1.1c-0.7-0.7-1.1-1.6-1.1-2.6c0-0.5,0.1-1.1,0.3-1.5
		c0.2-0.5,0.5-0.9,0.8-1.2c0.3-0.3,0.7-0.6,1.2-0.8C33.4,46.6,33.9,46.5,34.3,46.5z M32.5,50.2c0,0.5,0.2,1.1,0.6,1.5
		c0.7,0.7,1.8,0.7,2.5,0c0,0,0,0,0,0c0.8-0.8,0.8-2.1,0-2.9c-0.7-0.7-1.8-0.7-2.5-0.1c0,0-0.1,0.1-0.1,0.1
		C32.7,49.2,32.5,49.7,32.5,50.2z M43.4,46.8c0.1-0.1,0.2-0.2,0.3-0.2c0.2,0,0.3-0.1,0.5-0.1c0.2,0,0.3,0,0.5,0
		c0.1,0,0.2,0.1,0.3,0.1c0.1,0.1,0.1,0.1,0.1,0.2c0,0.2,0.1,0.3,0.1,0.5v3c0,0.9-0.3,1.7-0.8,2.4c-0.3,0.3-0.6,0.6-1,0.8
		c-0.9,0.4-1.9,0.4-2.8,0c-0.4-0.2-0.7-0.5-1-0.8c-0.5-0.7-0.8-1.5-0.8-2.4v-3c0-0.2,0-0.3,0-0.3c0-0.1,0.1-0.2,0.1-0.3
		c0.1-0.1,0.1-0.2,0.2-0.2c0.2,0,0.3-0.1,0.5-0.1c0.2,0,0.3,0,0.5,0.1c0.1,0,0.2,0.1,0.3,0.2c0.1,0.2,0.1,0.4,0.1,0.6v3
		c0,0.4,0.1,0.8,0.3,1.2c0.1,0.2,0.3,0.3,0.5,0.5c0.2,0.1,0.5,0.2,0.7,0.2c0.5,0,0.9-0.2,1.1-0.5c0.2-0.4,0.4-0.8,0.4-1.2v-3.1
		C43.3,47.2,43.4,47,43.4,46.8z M45.7,52.8c-0.2-0.2-0.2-0.4-0.3-0.6c0.1-0.3,0.2-0.5,0.4-0.7c0.1-0.1,0.3-0.2,0.5-0.2
		c0.2,0,0.4,0.2,0.8,0.5c0.1,0.1,0.2,0.2,0.4,0.3c0.1,0.1,0.3,0.1,0.5,0.2c0.6,0,0.9-0.2,0.9-0.8c0-0.2-0.1-0.3-0.3-0.4
		c-0.2-0.1-0.4-0.2-0.6-0.2c-0.3-0.1-0.6-0.1-0.8-0.2c-0.3-0.1-0.6-0.2-0.8-0.4c-0.3-0.2-0.5-0.4-0.6-0.7c-0.2-0.3-0.3-0.7-0.2-1.1
		c0-0.6,0.2-1.1,0.7-1.5c0.5-0.4,1.1-0.7,1.8-0.6c0.4,0,0.7,0,1.1,0.2c0.2,0.1,0.5,0.2,0.7,0.3l0.2,0.2c0.2,0.1,0.3,0.3,0.3,0.5
		c0,0.2-0.1,0.4-0.2,0.5c-0.2,0.3-0.5,0.5-0.7,0.5c-0.2,0-0.4-0.1-0.5-0.2l-0.1-0.1l-0.2-0.1c-0.2-0.1-0.4-0.1-0.5-0.1
		c-0.2,0-0.4,0-0.5,0.2c-0.1,0.1-0.2,0.3-0.2,0.4c0,0.2,0.1,0.3,0.2,0.4c0.2,0.1,0.4,0.2,0.6,0.2c0.3,0,0.6,0.1,0.8,0.2
		c0.3,0.1,0.6,0.2,0.8,0.3c0.3,0.1,0.5,0.4,0.6,0.6c0.2,0.3,0.3,0.7,0.3,1.1c0,0.4-0.1,0.8-0.3,1.2c-0.2,0.3-0.4,0.6-0.7,0.8
		c-0.5,0.3-1.1,0.5-1.7,0.5c-0.3,0-0.6,0-0.9-0.1c-0.2-0.1-0.5-0.2-0.7-0.3c-0.3-0.2-0.5-0.4-0.7-0.6L45.7,52.8z M56,52l0.2-0.1
		c0.1-0.1,0.3-0.2,0.5-0.2c0.2,0,0.4,0.2,0.7,0.6c0.1,0.2,0.2,0.4,0.2,0.6c0,0.1,0,0.3-0.1,0.3c-0.1,0.1-0.2,0.2-0.3,0.2l-0.3,0.2
		c-0.2,0.1-0.4,0.2-0.7,0.3c-0.3,0.1-0.7,0.2-1,0.2c-0.3,0-0.7,0-1-0.1c-0.3-0.1-0.7-0.2-1-0.4c-0.3-0.2-0.6-0.4-0.9-0.7
		c-0.3-0.3-0.5-0.7-0.7-1.1c-0.2-0.5-0.3-1-0.3-1.5c0-0.5,0.1-1,0.3-1.4c0.1-0.4,0.4-0.7,0.7-1c0.3-0.3,0.6-0.5,0.9-0.7
		c0.6-0.4,1.3-0.5,2-0.5c0.3,0,0.7,0,1,0.2c0.3,0.1,0.5,0.2,0.7,0.3l0.2,0.1l0.3,0.2c0.2,0.1,0.3,0.3,0.3,0.5c0,0.2-0.1,0.4-0.2,0.5
		c-0.3,0.4-0.5,0.5-0.7,0.5c-0.2,0-0.4-0.1-0.5-0.2c-0.3-0.3-0.7-0.4-1.2-0.4c-0.5,0-0.9,0.2-1.3,0.5c-0.2,0.2-0.4,0.4-0.5,0.6
		c-0.3,0.6-0.3,1.2,0,1.8c0.1,0.3,0.3,0.5,0.5,0.6c0.4,0.3,0.8,0.4,1.3,0.4c0.2,0,0.4,0,0.6-0.1C55.7,52.1,55.9,52.1,56,52z
		 M63.8,52.7c0.1,0.2,0.1,0.3,0.2,0.5c0,0.2-0.2,0.5-0.6,0.6C63.2,53.9,63,54,62.8,54c-0.1,0-0.2,0-0.3-0.1
		c-0.1-0.1-0.1-0.1-0.2-0.2c-0.1-0.1-0.3-0.7-0.8-1.8h-0.3H60V53c0,0.1,0,0.2,0,0.3c0,0.1,0,0.2-0.1,0.3c-0.1,0.2-0.4,0.3-0.8,0.3
		c-0.5,0-0.7-0.1-0.8-0.4c0-0.2-0.1-0.3-0.1-0.5v-5.6c0-0.2,0-0.3,0-0.3c0-0.1,0.1-0.2,0.1-0.3c0.1-0.2,0.4-0.3,0.8-0.3h2.2
		c0.6,0,1.2,0.2,1.7,0.6c0.3,0.2,0.5,0.5,0.7,0.8c0.2,0.4,0.3,0.8,0.3,1.2c0,0.7-0.3,1.4-0.8,1.9L63.8,52.7z M60,50.1h1.3
		c0.2,0,0.4-0.1,0.6-0.2c0.4-0.3,0.4-0.9,0-1.3c0,0,0,0,0,0c-0.2-0.1-0.4-0.2-0.6-0.2H60V50.1z M64.5,47.4c0-0.2,0-0.3,0-0.3
		c0-0.1,0.1-0.2,0.1-0.3c0.1-0.2,0.4-0.3,0.8-0.3c0.5,0,0.8,0.1,0.8,0.4c0,0.2,0,0.3,0,0.5V53c0,0.1,0,0.2,0,0.3
		c0,0.1,0,0.2-0.1,0.3c-0.1,0.2-0.4,0.3-0.8,0.3c-0.5,0-0.7-0.1-0.8-0.4c0-0.2-0.1-0.3-0.1-0.5L64.5,47.4z M72.7,52.6
		c0.1,0.2,0.1,0.3,0.2,0.5c0,0.2-0.2,0.5-0.6,0.6c-0.2,0.1-0.3,0.1-0.5,0.1c-0.1,0-0.2,0-0.3-0.1c-0.1-0.1-0.1-0.1-0.2-0.2
		c-0.1-0.1-0.3-0.7-0.8-1.8h-0.3h-1.3V53c0,0.1,0,0.2,0,0.3c0,0.1,0,0.2-0.1,0.3c-0.1,0.2-0.4,0.3-0.8,0.3c-0.5,0-0.7-0.1-0.8-0.4
		c0-0.2-0.1-0.3-0.1-0.5v-5.6c0-0.1,0-0.2,0-0.3c0-0.1,0.1-0.2,0.1-0.3c0.1-0.2,0.3-0.3,0.8-0.3h2.2c0.6,0,1.2,0.2,1.7,0.6
		c0.3,0.2,0.5,0.5,0.7,0.8c0.2,0.4,0.3,0.8,0.3,1.2c0,0.7-0.3,1.4-0.8,1.9C72.2,51.4,72.4,52,72.7,52.6L72.7,52.6z M68.9,50.1h1.3
		c0.2,0,0.4-0.1,0.6-0.2c0.4-0.3,0.4-0.9,0-1.3c0,0,0,0,0,0c-0.2-0.1-0.4-0.2-0.6-0.2h-1.3L68.9,50.1z M75.2,52.1h3.1h0.3
		c0.1,0,0.2,0,0.3,0.1c0.2,0.1,0.3,0.4,0.3,0.8c0,0.5-0.1,0.7-0.4,0.8c-0.2,0-0.3,0.1-0.5,0.1h-4c-0.5,0-0.7-0.1-0.8-0.4
		c0-0.2-0.1-0.3-0.1-0.5v-5.5c0-0.2,0-0.5,0.2-0.7c0.2-0.2,0.5-0.2,0.7-0.2h3.9h0.3c0.1,0,0.2,0,0.3,0.1c0.2,0.1,0.3,0.4,0.3,0.8
		c0,0.5-0.1,0.7-0.4,0.8c-0.2,0-0.3,0.1-0.5,0.1h-3.1v1h2h0.3c0.1,0,0.2,0,0.3,0.1c0.2,0.1,0.3,0.4,0.3,0.8c0,0.5-0.1,0.7-0.4,0.8
		c-0.2,0-0.3,0.1-0.5,0.1h-2L75.2,52.1z"/>
	<path class="st1" d="M72.8,3.6c-0.1-0.1-0.3-0.2-0.5-0.3c-0.2-0.1-0.4-0.1-0.6-0.1c-0.2,0-0.4,0.1-0.6,0.2
		c-0.2,0.1-0.3,0.2-0.4,0.4l-23.3,28L35.3,18.4c-0.5-0.5-1.2-0.9-1.9-0.9c-0.7-0.1-1.5,0.2-2,0.7c-0.5,0.5-0.8,1.2-0.9,1.9
		c0,0.7,0.2,1.4,0.7,2l14.2,15.6l0.1,0.1c0.3,0.3,0.6,0.5,1,0.7c0.4,0.1,0.7,0.2,1.1,0.2c0.4,0,0.8-0.1,1.1-0.3
		c0.3-0.2,0.6-0.4,0.9-0.8l23.4-32c0.2-0.3,0.3-0.6,0.3-1C73.3,4.2,73.2,3.8,72.8,3.6z"/>
</g>
<g id="Calque_2">
	<g>
		<path class="st2" d="M31.1,46.4c0.5,0,1,0.1,1.5,0.2c0.5,0.1,0.9,0.3,1.3,0.6L33,48.7c-0.4-0.2-0.8-0.4-1.2-0.6
			c-0.4-0.2-0.8-0.2-1.1-0.2c-0.2,0-0.4,0-0.6,0.1c-0.1,0.1-0.2,0.2-0.2,0.4c0,0.2,0.1,0.4,0.3,0.5c0.2,0.1,0.5,0.2,1,0.4
			c0.5,0.1,0.8,0.3,1.1,0.4c0.3,0.1,0.6,0.3,0.8,0.6c0.2,0.3,0.3,0.6,0.3,1.1c0,0.5-0.1,1-0.4,1.4c-0.3,0.4-0.7,0.7-1.2,0.9
			c-0.5,0.2-1,0.3-1.6,0.3c-0.6,0-1.2-0.1-1.8-0.3c-0.6-0.2-1.1-0.5-1.5-0.9l0.9-1.5c0.3,0.3,0.7,0.6,1.2,0.8
			c0.5,0.2,0.9,0.3,1.3,0.3c0.3,0,0.6-0.1,0.7-0.2c0.2-0.1,0.3-0.3,0.3-0.5c0-0.2-0.1-0.3-0.2-0.4c-0.1-0.1-0.3-0.2-0.4-0.3
			c-0.2-0.1-0.4-0.1-0.7-0.2c-0.5-0.1-0.8-0.3-1.1-0.4c-0.3-0.1-0.5-0.3-0.8-0.6c-0.2-0.3-0.3-0.6-0.3-1c0-0.5,0.1-0.9,0.4-1.3
			c0.3-0.4,0.6-0.7,1.1-0.9C29.9,46.5,30.4,46.4,31.1,46.4z M37.4,46.5l-1.5,7.4H34l1.5-7.4H37.4z M43.8,46.5h1.8l-1.5,7.4h-1.7
			L40,49.5l-0.9,4.4h-1.8l1.5-7.4h1.7l2.5,4.4L43.8,46.5z M49,46.5l-1.5,7.4h-1.9l1.5-7.4H49z M52.8,46.4c0.5,0,1,0.1,1.5,0.2
			c0.5,0.1,0.9,0.3,1.3,0.6l-0.9,1.5c-0.4-0.2-0.8-0.4-1.2-0.6c-0.4-0.2-0.8-0.2-1.1-0.2c-0.2,0-0.4,0-0.6,0.1
			c-0.1,0.1-0.2,0.2-0.2,0.4c0,0.2,0.1,0.4,0.3,0.5c0.2,0.1,0.5,0.2,1,0.4c0.5,0.1,0.8,0.3,1.1,0.4c0.3,0.1,0.6,0.3,0.8,0.6
			c0.2,0.3,0.3,0.6,0.3,1.1c0,0.5-0.1,1-0.4,1.4c-0.3,0.4-0.7,0.7-1.2,0.9c-0.5,0.2-1,0.3-1.6,0.3c-0.6,0-1.2-0.1-1.8-0.3
			c-0.6-0.2-1.1-0.5-1.5-0.9l0.9-1.5c0.3,0.3,0.7,0.6,1.2,0.8c0.5,0.2,0.9,0.3,1.3,0.3c0.3,0,0.6-0.1,0.7-0.2
			c0.2-0.1,0.3-0.3,0.3-0.5c0-0.2-0.1-0.3-0.2-0.4c-0.1-0.1-0.3-0.2-0.4-0.3c-0.2-0.1-0.4-0.1-0.7-0.2c-0.5-0.1-0.8-0.3-1.1-0.4
			s-0.5-0.3-0.8-0.6c-0.2-0.3-0.3-0.6-0.3-1c0-0.5,0.1-0.9,0.4-1.3c0.3-0.4,0.6-0.7,1.1-0.9C51.6,46.5,52.1,46.4,52.8,46.4z
			 M62.8,46.5l-0.3,1.6h-2.2l-1.2,5.8h-1.9l1.2-5.8h-2.2l0.3-1.6H62.8z M69.5,48.6c0,0.7-0.2,1.3-0.5,1.8c-0.3,0.5-0.8,0.9-1.4,1.1
			l1,2.4h-2.2l-0.7-2h0h-1.4l-0.4,2h-1.9l1.5-7.4h3.3c0.8,0,1.5,0.2,1.9,0.5C69.3,47.4,69.5,47.9,69.5,48.6z M64.8,50.3h1.4
			c0.5,0,0.8-0.1,1.1-0.4c0.3-0.2,0.4-0.6,0.4-1c0-0.3-0.1-0.5-0.3-0.6C67.2,48.1,67,48,66.6,48h-1.4L64.8,50.3z M76.7,48h-3.9
			l-0.3,1.4h3.5l-0.3,1.5h-3.5L72,52.3h4l-0.3,1.5h-5.9l1.5-7.4H77L76.7,48z"/>
		<path class="st2" d="M53.2,21.4c0-0.1,0-0.1,0-0.2c0-0.1-0.1-0.1-0.1-0.2l-6.9-6.9c0.2-0.4,0.4-0.8,0.5-1.2c0.1-0.4,0-0.9-0.1-1.3
			c-0.2-0.4-0.4-0.8-0.7-1.1c-0.3-0.3-0.7-0.5-1.1-0.7c-0.4-0.1-0.9-0.2-1.3-0.1c-0.4,0.1-0.8,0.3-1.2,0.5c-0.4,0.3-0.6,0.6-0.8,1
			c-0.2,0.4-0.3,0.8-0.3,1.3c0,0.1,0,0.3,0,0.4c-0.5-0.1-0.9,0-1.4,0.1c-0.4,0.2-0.8,0.4-1.1,0.7c-0.3,0.3-0.5,0.7-0.7,1.2
			c-0.1,0.4-0.1,0.9,0,1.4c0.1,0.4,0.3,0.9,0.6,1.2c0.3,0.4,0.7,0.6,1.1,0.8c0.4,0.2,0.9,0.2,1.3,0.2c0.5,0,0.9-0.2,1.3-0.5L49,25
			c0.1,0.1,0.3,0.2,0.4,0.2c0.2,0,0.3-0.1,0.4-0.2l3.2-3.2c0.1-0.1,0.1-0.1,0.1-0.2C53.2,21.5,53.2,21.4,53.2,21.4z M49.4,23.8
			l-6.8-6.8c-0.1-0.1-0.3-0.2-0.4-0.2c-0.2,0-0.3,0.1-0.4,0.2c-0.2,0.2-0.5,0.4-0.9,0.5c-0.3,0.1-0.7,0-1-0.1
			c-0.3-0.1-0.6-0.3-0.8-0.6c-0.2-0.3-0.3-0.6-0.3-0.9s0.1-0.7,0.3-0.9c0.2-0.3,0.5-0.5,0.8-0.6c0.3-0.1,0.7-0.2,1-0.1
			c0.3,0.1,0.6,0.2,0.9,0.5c0.1,0.1,0.1,0.1,0.2,0.1c0.1,0,0.1,0.1,0.2,0.1c0.1,0,0.2,0,0.2,0c0.1,0,0.1-0.1,0.2-0.1
			c0.1-0.1,0.1-0.1,0.1-0.2c0-0.1,0-0.2,0-0.2c0-0.1,0-0.2-0.1-0.2c0-0.1-0.1-0.1-0.1-0.2c-0.3-0.3-0.5-0.8-0.5-1.2s0.2-0.9,0.5-1.2
			c0.3-0.3,0.8-0.5,1.2-0.5c0.4,0,0.9,0.2,1.2,0.5c0.3,0.3,0.5,0.8,0.5,1.2s-0.2,0.9-0.5,1.2c-0.1,0.1-0.2,0.3-0.2,0.4
			c0,0.2,0.1,0.3,0.2,0.4l6.8,6.8L49.4,23.8z"/>
		<path class="st2" d="M65.7,30.5c-0.5-0.5-1.1-0.8-1.7-0.8c-0.7-0.1-1.3,0.1-1.9,0.5l-6.9-6.9c-0.1-0.1-0.3-0.2-0.4-0.2
			c-0.2,0-0.3,0.1-0.4,0.2l-3.2,3.2c-0.1,0.1-0.2,0.3-0.2,0.4c0,0.2,0.1,0.3,0.2,0.4l6.9,6.9c-0.2,0.4-0.4,0.8-0.5,1.2
			c-0.1,0.4,0,0.9,0.1,1.3c0.2,0.4,0.4,0.8,0.7,1.1c0.3,0.3,0.7,0.5,1.1,0.7c0.4,0.1,0.9,0.2,1.3,0.1c0.4-0.1,0.8-0.3,1.2-0.5
			c0.4-0.3,0.6-0.6,0.8-1c0.2-0.4,0.3-0.8,0.3-1.3c0-0.1,0-0.3,0-0.4c0.6,0.1,1.2,0,1.7-0.3c0.5-0.3,1-0.7,1.2-1.2
			c0.3-0.5,0.4-1.1,0.3-1.7C66.5,31.4,66.2,30.9,65.7,30.5L65.7,30.5z M64.9,33.7c-0.3,0.3-0.8,0.5-1.2,0.5c-0.5,0-0.9-0.2-1.2-0.5
			c-0.1-0.1-0.1-0.1-0.2-0.1c-0.1,0-0.1-0.1-0.2-0.1c-0.1,0-0.2,0-0.2,0c-0.1,0-0.1,0.1-0.2,0.1c-0.1,0.1-0.1,0.1-0.1,0.2
			s0,0.2,0,0.2c0,0.1,0,0.2,0.1,0.2c0,0.1,0.1,0.1,0.1,0.2c0.3,0.3,0.5,0.8,0.5,1.2c0,0.5-0.2,0.9-0.5,1.2c-0.3,0.3-0.8,0.5-1.2,0.5
			c-0.4,0-0.9-0.2-1.2-0.5c-0.3-0.3-0.5-0.8-0.5-1.2c0-0.5,0.2-0.9,0.5-1.2c0.1-0.1,0.2-0.3,0.2-0.4c0-0.2-0.1-0.3-0.2-0.4l-6.8-6.8
			l2.4-2.4l6.8,6.8c0.1,0.1,0.3,0.2,0.4,0.2c0.2,0,0.3-0.1,0.4-0.2c0.3-0.3,0.8-0.5,1.2-0.5c0.4,0,0.9,0.2,1.2,0.5
			c0.3,0.3,0.5,0.7,0.5,1.2C65.4,32.9,65.2,33.3,64.9,33.7z"/>
	</g>
</g>
</svg>
