<svg xmlns="http://www.w3.org/2000/svg" viewBox="0 0 104 54"><defs><style>.a{fill:#fff;}</style></defs><title>souscrire</title><path class="a" d="M25.15,52.85a1,1,0,0,1-.26-.57,1.13,1.13,0,0,1,.43-.68.76.76,0,0,1,.53-.24c.19,0,.45.17.78.5a1.76,1.76,0,0,0,.4.33,1,1,0,0,0,.48.15c.62,0,.93-.25.93-.76a.45.45,0,0,0-.26-.38,1.8,1.8,0,0,0-.63-.23,6.33,6.33,0,0,1-.82-.22,6.17,6.17,0,0,1-.82-.37,1.7,1.7,0,0,1-.64-.66,2.24,2.24,0,0,1-.25-1.1,2.1,2.1,0,0,1,.65-1.53,2.42,2.42,0,0,1,1.79-.66,3.42,3.42,0,0,1,1.09.16,2,2,0,0,1,.69.31l.25.19a.77.77,0,0,1,.31.49,1.1,1.1,0,0,1-.24.55c-.23.33-.46.5-.7.5a1.07,1.07,0,0,1-.52-.2l-.12-.1a.87.87,0,0,0-.15-.13,1,1,0,0,0-.54-.13.89.89,0,0,0-.54.16.49.49,0,0,0-.21.43.5.5,0,0,0,.25.44,1.67,1.67,0,0,0,.64.23,6.42,6.42,0,0,1,.83.19,4.76,4.76,0,0,1,.83.3,1.47,1.47,0,0,1,.63.63,2.14,2.14,0,0,1,.26,1.09A2.5,2.5,0,0,1,30,52.69a1.94,1.94,0,0,1-.68.76,3.14,3.14,0,0,1-1.73.53,3.68,3.68,0,0,1-.89-.11,2.57,2.57,0,0,1-.68-.29,2.43,2.43,0,0,1-.74-.62Zm9.16-6.39A3.69,3.69,0,0,1,38,50.19a3.85,3.85,0,0,1-1,2.7A3.37,3.37,0,0,1,34.37,54a3.49,3.49,0,0,1-2.59-1.1,3.63,3.63,0,0,1-1.06-2.62,4,4,0,0,1,.3-1.55,3.64,3.64,0,0,1,.8-1.22A3.74,3.74,0,0,1,33,46.74,3.29,3.29,0,0,1,34.31,46.46Zm-1.82,3.77a1.94,1.94,0,0,0,.57,1.45,1.79,1.79,0,0,0,2.57,0,2.13,2.13,0,0,0,0-2.91,1.75,1.75,0,0,0-2.56,0A1.92,1.92,0,0,0,32.49,50.23Zm10.92-3.41a.53.53,0,0,1,.29-.22,1.63,1.63,0,0,1,.47-.06,1.78,1.78,0,0,1,.46.05.63.63,0,0,1,.26.12.38.38,0,0,1,.13.21,1.67,1.67,0,0,1,.06.52v3a3.85,3.85,0,0,1-.82,2.4,2.93,2.93,0,0,1-1,.83,3.25,3.25,0,0,1-2.79,0,2.86,2.86,0,0,1-1-.84,3.86,3.86,0,0,1-.81-2.4v-3c0-.16,0-.28,0-.35a1.3,1.3,0,0,1,.1-.27A.48.48,0,0,1,39,46.6a1.78,1.78,0,0,1,.51-.06,1.69,1.69,0,0,1,.51.06.38.38,0,0,1,.26.21,1.36,1.36,0,0,1,.12.63v3a2.39,2.39,0,0,0,.3,1.16,1.08,1.08,0,0,0,.45.45,1.46,1.46,0,0,0,.71.17A1.22,1.22,0,0,0,43,51.68a2.21,2.21,0,0,0,.36-1.25V47.37A1.19,1.19,0,0,1,43.41,46.82Zm2.28,6a.9.9,0,0,1-.26-.57,1.13,1.13,0,0,1,.43-.68.74.74,0,0,1,.53-.24c.18,0,.44.17.78.5a1.56,1.56,0,0,0,.4.33,1,1,0,0,0,.48.15c.62,0,.93-.25.93-.76a.45.45,0,0,0-.26-.38,1.8,1.8,0,0,0-.63-.23,5.93,5.93,0,0,1-.82-.22,5.64,5.64,0,0,1-.82-.37,1.63,1.63,0,0,1-.64-.66,2.24,2.24,0,0,1-.25-1.1,2.06,2.06,0,0,1,.65-1.53A2.41,2.41,0,0,1,48,46.43a3.42,3.42,0,0,1,1.09.16,2,2,0,0,1,.69.31l.25.19a.81.81,0,0,1,.31.49,1.1,1.1,0,0,1-.24.55c-.23.33-.46.5-.7.5a1,1,0,0,1-.52-.2l-.12-.1-.15-.13a1,1,0,0,0-.54-.13.85.85,0,0,0-.54.16.49.49,0,0,0-.21.43.5.5,0,0,0,.25.44,1.61,1.61,0,0,0,.64.23,6.42,6.42,0,0,1,.83.19,5.08,5.08,0,0,1,.83.3,1.47,1.47,0,0,1,.63.63,2.14,2.14,0,0,1,.26,1.09,2.5,2.5,0,0,1-.26,1.15,2,2,0,0,1-.68.76,3.14,3.14,0,0,1-1.73.53,3.62,3.62,0,0,1-.89-.11,2.57,2.57,0,0,1-.68-.29,2.31,2.31,0,0,1-.74-.62ZM56,52l.18-.13a1.17,1.17,0,0,1,.48-.2c.2,0,.43.19.67.56a1.22,1.22,0,0,1,.22.56.48.48,0,0,1-.14.35,1.54,1.54,0,0,1-.31.25l-.35.21a3.55,3.55,0,0,1-.67.26,3.2,3.2,0,0,1-1,.16,4,4,0,0,1-1-.12,4.65,4.65,0,0,1-1-.42,4.31,4.31,0,0,1-.92-.72,3.37,3.37,0,0,1-.68-1.09,3.85,3.85,0,0,1-.26-1.45,3.54,3.54,0,0,1,.26-1.41,3,3,0,0,1,.66-1.05,3.79,3.79,0,0,1,.93-.7,4,4,0,0,1,2-.54,3.19,3.19,0,0,1,1,.15,3.25,3.25,0,0,1,.74.29l.24.14.28.18a.62.62,0,0,1,.26.48,1,1,0,0,1-.21.55c-.26.36-.5.54-.7.54a1,1,0,0,1-.51-.22A1.72,1.72,0,0,0,55,48.25a2.17,2.17,0,0,0-1.28.45,1.65,1.65,0,0,0-.5.62,2.15,2.15,0,0,0,0,1.81,1.61,1.61,0,0,0,.51.63A2.15,2.15,0,0,0,55,52.2a2.2,2.2,0,0,0,.58-.08A1.63,1.63,0,0,0,56,52Zm7.81.68a1.57,1.57,0,0,1,.15.52c0,.25-.2.47-.62.64a1.4,1.4,0,0,1-.52.14.57.57,0,0,1-.32-.09.81.81,0,0,1-.18-.2c-.06-.13-.32-.73-.78-1.81l-.31,0H60V53a1.68,1.68,0,0,1,0,.35.54.54,0,0,1-.09.26q-.14.27-.78.27c-.46,0-.74-.12-.82-.37a1.67,1.67,0,0,1-.06-.52V47.43c0-.15,0-.27,0-.34a1.3,1.3,0,0,1,.1-.27q.15-.27.78-.27h2.16a2.74,2.74,0,0,1,1.71.64,2.33,2.33,0,0,1,.66.84,2.56,2.56,0,0,1,.26,1.18,2.49,2.49,0,0,1-.75,1.86ZM60,50.09h1.28a.92.92,0,0,0,.58-.22.9.9,0,0,0,0-1.32,1,1,0,0,0-.6-.23H60Zm4.54-2.66c0-.15,0-.27,0-.34a1.3,1.3,0,0,1,.1-.27q.15-.27.78-.27c.47,0,.75.12.83.37a1.73,1.73,0,0,1,0,.52V53a1.58,1.58,0,0,1,0,.35.54.54,0,0,1-.09.26q-.14.27-.78.27c-.46,0-.74-.13-.82-.38A1.6,1.6,0,0,1,64.5,53Zm8.18,5.21a1.57,1.57,0,0,1,.15.52c0,.25-.21.47-.62.64a1.45,1.45,0,0,1-.52.14.55.55,0,0,1-.32-.09.81.81,0,0,1-.18-.2c-.07-.13-.33-.73-.78-1.81l-.31,0H68.84V53a2.87,2.87,0,0,1,0,.35.9.9,0,0,1-.09.26q-.14.27-.78.27c-.47,0-.74-.12-.82-.37a1.67,1.67,0,0,1-.06-.52V47.43a3,3,0,0,1,0-.34.9.9,0,0,1,.1-.27q.13-.27.78-.27h2.16a2.74,2.74,0,0,1,1.71.64,2.33,2.33,0,0,1,.66.84,2.69,2.69,0,0,1,.26,1.18A2.49,2.49,0,0,1,72,51.07C72.15,51.42,72.37,52,72.68,52.64Zm-3.84-2.55h1.28a.94.94,0,0,0,.58-.22.9.9,0,0,0,0-1.32,1,1,0,0,0-.6-.23H68.84Zm6.31,2h3.08l.34,0a.85.85,0,0,1,.27.09q.27.14.27.78c0,.47-.12.74-.37.82a1.67,1.67,0,0,1-.52.06h-4c-.47,0-.74-.13-.82-.38a1.6,1.6,0,0,1-.06-.51V47.43a.93.93,0,0,1,.19-.69,1,1,0,0,1,.72-.19h3.94l.34,0a.85.85,0,0,1,.27.09q.27.14.27.78c0,.47-.12.74-.37.82a1.67,1.67,0,0,1-.52.06H75.15v1h2l.34,0a.85.85,0,0,1,.27.09q.27.14.27.78c0,.47-.13.74-.38.82a1.67,1.67,0,0,1-.52.06h-2Z"/><path class="a" d="M72.85,3.57a1.41,1.41,0,0,0-.51-.28,1.37,1.37,0,0,0-.57-.06,1.52,1.52,0,0,0-.55.16,1.36,1.36,0,0,0-.45.37l-23.31,28L35.33,18.44a2.65,2.65,0,0,0-1.88-.88,2.69,2.69,0,0,0-2,.7,2.75,2.75,0,0,0-.88,1.88,2.7,2.7,0,0,0,.71,1.95l14.22,15.6.07.07a2.54,2.54,0,0,0,1,.66,2.75,2.75,0,0,0,1.13.19,2.54,2.54,0,0,0,1.11-.32,2.45,2.45,0,0,0,.87-.76L73.1,5.58a1.51,1.51,0,0,0,.27-1A1.48,1.48,0,0,0,72.85,3.57Z"/></svg>