<svg xmlns="http://www.w3.org/2000/svg" viewBox="0 0 104 54"><defs><style>.a{fill:#fff;stroke:#fff;stroke-width:0.5px;}</style></defs><title>tchat</title><path class="a" d="M65.32,43.22a2.33,2.33,0,0,1-1.61-.68l-3.63-3.63a2,2,0,0,0-1.41-.56H48.13a4.3,4.3,0,0,1-4.31-4.3v-.43a.7.7,0,0,1,0-.25.6.6,0,0,1,.14-.21l1-.95a3.58,3.58,0,0,1,2.59-1.11h12a3.55,3.55,0,0,0,3.55-3.55V19.91a.7.7,0,0,1,0-.25.6.6,0,0,1,.14-.21.77.77,0,0,1,.21-.14.64.64,0,0,1,.24,0h6.78a4.3,4.3,0,0,1,4.3,4.3V34a4.3,4.3,0,0,1-4.3,4.3h-.31a2.56,2.56,0,0,0-1.81.75,2.59,2.59,0,0,0-.76,1.82,2.32,2.32,0,0,1-.38,1.3,2.35,2.35,0,0,1-1,.85A2.49,2.49,0,0,1,65.32,43.22Zm-20.2-9.39V34a3,3,0,0,0,3,3H58.66a3.31,3.31,0,0,1,1.25.24A3.35,3.35,0,0,1,61,38l3.63,3.63a1.12,1.12,0,0,0,.55.33,1,1,0,0,0,.63-.05,1.09,1.09,0,0,0,.49-.41,1,1,0,0,0,.16-.61,3.9,3.9,0,0,1,1.13-2.72A3.84,3.84,0,0,1,70.28,37h.31a3,3,0,0,0,2.14-.89A3.06,3.06,0,0,0,73.61,34V23.57a3.06,3.06,0,0,0-.88-2.14,3,3,0,0,0-2.14-.89H64.42v7a4.83,4.83,0,0,1-4.83,4.82h-12a2.38,2.38,0,0,0-1.67.69Z"/><path class="a" d="M39.93,38a2.66,2.66,0,0,1-1-.2,2.55,2.55,0,0,1-1.16-.94,2.64,2.64,0,0,1-.43-1.44,3,3,0,0,0-.88-2.14,3.12,3.12,0,0,0-2.14-.89H34a4.83,4.83,0,0,1-4.83-4.81V15.61a4.81,4.81,0,0,1,1.42-3.41A4.88,4.88,0,0,1,34,10.78H59.59A4.88,4.88,0,0,1,63,12.2a4.81,4.81,0,0,1,1.42,3.41v12a4.83,4.83,0,0,1-4.83,4.82h-12a2.38,2.38,0,0,0-1.67.69l-4.16,4.15a2.44,2.44,0,0,1-.82.56A2.53,2.53,0,0,1,39.93,38ZM34,12.06a3.55,3.55,0,0,0-3.55,3.55v12A3.55,3.55,0,0,0,34,31.11h.35a4.3,4.3,0,0,1,4.3,4.3,1.28,1.28,0,0,0,.22.73,1.29,1.29,0,0,0,2,.19L45,32.17a3.6,3.6,0,0,1,1.18-.79,3.67,3.67,0,0,1,1.39-.28h12a3.55,3.55,0,0,0,3.55-3.55V15.61a3.54,3.54,0,0,0-1-2.51,3.58,3.58,0,0,0-2.51-1ZM52.58,24.19a2.21,2.21,0,0,1-2-1.37,2.25,2.25,0,0,1-.13-1.28,2.23,2.23,0,0,1,1.75-1.75,2.24,2.24,0,0,1,1.28.13,2.17,2.17,0,0,1,1,.82,2.22,2.22,0,0,1-.28,2.8A2.19,2.19,0,0,1,52.58,24.19Zm0-3.19a.92.92,0,0,0-.53.16,1,1,0,0,0-.36.43,1,1,0,0,0-.06.55,1,1,0,0,0,.27.5,1,1,0,0,0,.49.26.94.94,0,0,0,.55,0,1,1,0,0,0,.44-.36,1,1,0,0,0-.12-1.21A1,1,0,0,0,52.58,21Zm-5.8,3.19a2.21,2.21,0,0,1-2.06-1.37,2.24,2.24,0,0,1-.12-1.28,2.2,2.2,0,0,1,.61-1.14,2.24,2.24,0,0,1,1.13-.61,2.28,2.28,0,0,1,1.29.13,2.2,2.2,0,0,1,1,.82A2.15,2.15,0,0,1,49,22a2.25,2.25,0,0,1-.65,1.57A2.21,2.21,0,0,1,46.78,24.19Zm0-3.19a1,1,0,0,0-.54.16,1,1,0,0,0-.35.43,1.07,1.07,0,0,0-.06.56,1,1,0,0,0,.27.49,1,1,0,0,0,.49.26.93.93,0,0,0,.55,0,1,1,0,0,0,.43-.36.93.93,0,0,0,.17-.53,1,1,0,0,0-.28-.68A1,1,0,0,0,46.78,21ZM41,24.19a2.21,2.21,0,0,1-2-1.37,2.24,2.24,0,0,1-.12-1.28,2.18,2.18,0,0,1,.6-1.14,2.31,2.31,0,0,1,1.14-.61,2.24,2.24,0,0,1,1.28.13,2.24,2.24,0,0,1,1.38,2A2.22,2.22,0,0,1,41,24.19ZM41,21a.92.92,0,0,0-.53.16,1,1,0,0,0-.36.43.94.94,0,0,0,0,.55.9.9,0,0,0,.26.5,1,1,0,0,0,1.05.21,1.07,1.07,0,0,0,.43-.36,1,1,0,0,0-.12-1.21A1,1,0,0,0,41,21Z"/><path class="a" d="M46.78,24.19a2.21,2.21,0,0,1-2.06-1.37,2.24,2.24,0,0,1-.12-1.28,2.2,2.2,0,0,1,.61-1.14,2.24,2.24,0,0,1,1.13-.61,2.28,2.28,0,0,1,1.29.13,2.2,2.2,0,0,1,1,.82A2.15,2.15,0,0,1,49,22a2.25,2.25,0,0,1-.65,1.57A2.23,2.23,0,0,1,46.78,24.19Zm0-3.19a1,1,0,0,0-.54.16,1,1,0,0,0-.35.43,1.07,1.07,0,0,0-.06.56,1,1,0,0,0,.27.49,1,1,0,0,0,.49.26.94.94,0,0,0,.55,0,1,1,0,0,0,.43-.36.93.93,0,0,0,.17-.53,1,1,0,0,0-.28-.68A1,1,0,0,0,46.78,21Z"/><path class="a" d="M41,24.19a2.21,2.21,0,0,1-2-1.37,2.24,2.24,0,0,1-.12-1.28,2.18,2.18,0,0,1,.6-1.14,2.31,2.31,0,0,1,1.14-.61,2.24,2.24,0,0,1,1.28.13,2.24,2.24,0,0,1,1.38,2,2.22,2.22,0,0,1-.66,1.57A2.19,2.19,0,0,1,41,24.19ZM41,21a.92.92,0,0,0-.53.16,1,1,0,0,0-.36.43.94.94,0,0,0,0,.55.9.9,0,0,0,.26.5,1,1,0,0,0,1.05.21,1.07,1.07,0,0,0,.43-.36,1,1,0,0,0-.12-1.21A1,1,0,0,0,41,21Z"/><path class="a" d="M52.58,24.19a2.21,2.21,0,0,1-2-1.37,2.25,2.25,0,0,1-.13-1.28,2.23,2.23,0,0,1,1.75-1.75,2.24,2.24,0,0,1,1.28.13,2.17,2.17,0,0,1,1,.82,2.22,2.22,0,0,1-.28,2.8A2.19,2.19,0,0,1,52.58,24.19Zm0-3.19a.92.92,0,0,0-.53.16,1,1,0,0,0-.36.43,1,1,0,0,0-.06.55,1,1,0,0,0,.27.5,1,1,0,0,0,.49.26.94.94,0,0,0,.55,0,1,1,0,0,0,.44-.36,1,1,0,0,0-.12-1.21A1,1,0,0,0,52.58,21Z"/></svg>