<svg width="47" height="34" viewBox="0 0 47 34" fill="none" xmlns="http://www.w3.org/2000/svg">
<path d="M37.1843 33.4315C36.5786 33.4281 35.9984 33.1869 35.5689 32.7598L31.9382 29.1236C31.5594 28.764 31.056 28.565 30.5337 28.5684H19.986C18.8454 28.567 17.7519 28.1132 16.9454 27.3067C16.1388 26.5001 15.6851 25.4067 15.6836 24.2661V23.833C15.6833 23.7484 15.6999 23.6646 15.7323 23.5865C15.7647 23.5083 15.8123 23.4374 15.8723 23.3778L16.8272 22.423C17.1637 22.0751 17.5665 21.7981 18.0117 21.6084C18.457 21.4186 18.9357 21.32 19.4197 21.3182H31.4497C32.3915 21.3168 33.2944 20.942 33.9604 20.276C34.6264 19.61 35.0012 18.7072 35.0026 17.7653V10.121C35.0019 10.0369 35.0179 9.95359 35.0497 9.8758C35.0815 9.79801 35.1285 9.72734 35.188 9.66791C35.2474 9.60848 35.3181 9.56148 35.3959 9.52966C35.4736 9.49784 35.557 9.48183 35.641 9.48257H42.4193C43.5604 9.48257 44.6547 9.93585 45.4616 10.7427C46.2684 11.5496 46.7217 12.6439 46.7217 13.7849V24.2216C46.7217 25.3627 46.2684 26.457 45.4616 27.2639C44.6547 28.0707 43.5604 28.524 42.4193 28.524H42.114C41.4328 28.5255 40.7799 28.7968 40.2981 29.2785C39.8164 29.7602 39.5452 30.4131 39.5437 31.0943C39.5483 31.5563 39.4135 32.0089 39.1571 32.3931C38.9006 32.7773 38.5343 33.0754 38.1059 33.2483C37.8141 33.3707 37.5007 33.433 37.1843 33.4315ZM16.9771 24.0496V24.2216C16.9771 25.0246 17.2957 25.7947 17.8629 26.363C18.4301 26.9313 19.1997 27.2513 20.0026 27.2527H30.5226C30.9515 27.2515 31.3764 27.3352 31.7728 27.4991C32.1692 27.663 32.5292 27.9038 32.832 28.2076L36.4626 31.8382C36.6067 32.0001 36.7973 32.1134 37.0083 32.1625C37.2194 32.2117 37.4404 32.1943 37.6412 32.1128C37.8419 32.0313 38.0125 31.8896 38.1295 31.7073C38.2465 31.5249 38.3042 31.3108 38.2946 31.0943C38.2961 30.075 38.7021 29.0979 39.4234 28.3776C40.1447 27.6573 41.1224 27.2527 42.1418 27.2527H42.4471C43.25 27.2513 44.0196 26.9313 44.5868 26.363C45.1541 25.7947 45.4726 25.0246 45.4726 24.2216V13.7849C45.4726 12.9825 45.1539 12.213 44.5865 11.6456C44.0191 11.0782 43.2495 10.7594 42.4471 10.7594H36.2795V17.7709C36.278 19.0508 35.7685 20.2779 34.8629 21.1824C33.9573 22.087 32.7297 22.5951 31.4497 22.5951H19.4197C18.7948 22.5978 18.1963 22.8472 17.7543 23.289L16.9771 24.0496Z" fill="white" stroke="white" stroke-width="0.5"/>
<path d="M11.792 28.1965C11.4491 28.1951 11.1098 28.1272 10.7927 27.9967C10.3191 27.8072 9.91398 27.4789 9.63058 27.0548C9.34718 26.6307 9.19883 26.1307 9.20503 25.6206C9.20503 24.8177 8.88645 24.0476 8.31921 23.4793C7.75197 22.911 6.98243 22.591 6.1795 22.5896H5.82976C4.55075 22.5896 3.32396 22.0822 2.41852 21.1789C1.51309 20.2755 1.00294 19.0499 1 17.7709V5.82975C1.00147 4.54927 1.51079 3.32166 2.41623 2.41623C3.32166 1.51079 4.54928 1.00147 5.82976 1H31.4497C32.7301 1.00147 33.9578 1.51079 34.8632 2.41623C35.7686 3.32166 36.278 4.54927 36.2794 5.82975V17.7709C36.2779 19.0509 35.7685 20.2779 34.8629 21.1825C33.9573 22.087 32.7296 22.5951 31.4497 22.5951H19.4197C18.7948 22.5978 18.1962 22.8472 17.7543 23.289L13.5907 27.436C13.3565 27.676 13.0768 27.8669 12.768 27.9975C12.4591 28.1281 12.1273 28.1958 11.792 28.1965ZM5.82976 2.27683C4.88791 2.2783 3.98506 2.6531 3.31908 3.31908C2.6531 3.98506 2.2783 4.88791 2.27683 5.82975V17.7709C2.2783 18.7127 2.6531 19.6156 3.31908 20.2816C3.98506 20.9476 4.88791 21.3224 5.82976 21.3238H6.1795C7.3201 21.3253 8.41358 21.7791 9.22011 22.5856C10.0266 23.3921 10.4804 24.4856 10.4819 25.6262C10.4791 25.8847 10.5538 26.1382 10.6964 26.3538C10.839 26.5695 11.043 26.7374 11.282 26.836C11.521 26.9346 11.7841 26.9593 12.0373 26.9069C12.2905 26.8546 12.5222 26.7275 12.7024 26.5422L16.8549 22.3842C17.1914 22.0466 17.5911 21.7787 18.0312 21.5958C18.4713 21.4129 18.9431 21.3186 19.4197 21.3183H31.4497C32.3915 21.3168 33.2944 20.942 33.9603 20.276C34.6263 19.61 35.0011 18.7072 35.0026 17.7654V5.82975C35.0011 4.88791 34.6263 3.98506 33.9603 3.31908C33.2944 2.6531 32.3915 2.2783 31.4497 2.27683H5.82976ZM24.4437 14.4067C24.0046 14.4067 23.5752 14.2765 23.2101 14.0325C22.8449 13.7885 22.5603 13.4417 22.3922 13.0359C22.2241 12.6302 22.1802 12.1837 22.2658 11.7529C22.3515 11.3222 22.563 10.9265 22.8736 10.616C23.1841 10.3054 23.5798 10.0939 24.0105 10.0082C24.4413 9.92256 24.8878 9.96654 25.2935 10.1346C25.6993 10.3027 26.0461 10.5873 26.2901 10.9525C26.5341 11.3176 26.6643 11.747 26.6643 12.1862C26.6643 12.7751 26.4304 13.3399 26.0139 13.7563C25.5975 14.1728 25.0327 14.4067 24.4437 14.4067ZM24.4437 11.2147C24.2536 11.2136 24.0673 11.2689 23.9087 11.3738C23.75 11.4787 23.626 11.6283 23.5525 11.8037C23.479 11.9791 23.4591 12.1723 23.4956 12.359C23.532 12.5457 23.623 12.7173 23.7571 12.8522C23.8912 12.987 24.0623 13.0791 24.2488 13.1166C24.4352 13.1541 24.6286 13.1354 24.8044 13.0629C24.9802 12.9903 25.1306 12.8672 25.2363 12.7092C25.3421 12.5511 25.3986 12.3652 25.3986 12.1751C25.3972 11.9217 25.2963 11.6791 25.1177 11.4995C24.9391 11.3199 24.697 11.2176 24.4437 11.2147ZM18.6369 14.4067C18.1977 14.4067 17.7684 14.2765 17.4032 14.0325C17.0381 13.7885 16.7535 13.4417 16.5854 13.0359C16.4173 12.6302 16.3733 12.1837 16.459 11.7529C16.5447 11.3222 16.7562 10.9265 17.0667 10.616C17.3773 10.3054 17.773 10.0939 18.2037 10.0082C18.6345 9.92256 19.081 9.96654 19.4867 10.1346C19.8925 10.3027 20.2393 10.5873 20.4833 10.9525C20.7273 11.3176 20.8575 11.747 20.8575 12.1862C20.8575 12.7751 20.6236 13.3399 20.2071 13.7563C19.7907 14.1728 19.2259 14.4067 18.6369 14.4067ZM18.6369 11.2147C18.447 11.2147 18.2613 11.271 18.1034 11.3765C17.9454 11.482 17.8223 11.632 17.7496 11.8075C17.6769 11.983 17.6579 12.1761 17.695 12.3624C17.732 12.5487 17.8235 12.7198 17.9578 12.8542C18.0921 12.9885 18.2633 13.0799 18.4496 13.117C18.6359 13.1541 18.829 13.135 19.0045 13.0623C19.18 12.9897 19.3299 12.8666 19.4355 12.7086C19.541 12.5507 19.5973 12.365 19.5973 12.1751C19.5973 11.9203 19.4961 11.6761 19.316 11.4959C19.1359 11.3158 18.8916 11.2147 18.6369 11.2147ZM12.8357 14.4067C12.3965 14.4067 11.9672 14.2765 11.602 14.0325C11.2368 13.7885 10.9522 13.4417 10.7841 13.0359C10.6161 12.6302 10.5721 12.1837 10.6578 11.7529C10.7434 11.3222 10.9549 10.9265 11.2655 10.616C11.576 10.3054 11.9717 10.0939 12.4025 10.0082C12.8332 9.92256 13.2797 9.96654 13.6855 10.1346C14.0912 10.3027 14.438 10.5873 14.682 10.9525C14.926 11.3176 15.0563 11.747 15.0563 12.1862C15.0563 12.7751 14.8223 13.3399 14.4059 13.7563C13.9894 14.1728 13.4246 14.4067 12.8357 14.4067ZM12.8357 11.2147C12.6455 11.2136 12.4593 11.2689 12.3006 11.3738C12.1419 11.4787 12.018 11.6283 11.9444 11.8037C11.8709 11.9791 11.8511 12.1723 11.8875 12.359C11.9239 12.5457 12.015 12.7173 12.1491 12.8522C12.2831 12.987 12.4543 13.0791 12.6407 13.1166C12.8272 13.1541 13.0205 13.1354 13.1964 13.0629C13.3722 12.9903 13.5225 12.8672 13.6283 12.7092C13.7341 12.5511 13.7905 12.3652 13.7905 12.1751C13.7905 11.9213 13.6901 11.6779 13.5112 11.4979C13.3323 11.318 13.0894 11.2161 12.8357 11.2147Z" fill="white" stroke="white" stroke-width="0.5"/>
<path d="M18.6368 14.4067C18.1976 14.4067 17.7683 14.2765 17.4032 14.0325C17.038 13.7885 16.7534 13.4417 16.5853 13.0359C16.4172 12.6302 16.3732 12.1837 16.4589 11.7529C16.5446 11.3222 16.7561 10.9265 17.0667 10.616C17.3772 10.3054 17.7729 10.0939 18.2036 10.0082C18.6344 9.92256 19.0809 9.96654 19.4866 10.1346C19.8924 10.3027 20.2392 10.5873 20.4832 10.9525C20.7272 11.3176 20.8574 11.747 20.8574 12.1862C20.8574 12.7751 20.6235 13.3399 20.207 13.7563C19.7906 14.1728 19.2258 14.4067 18.6368 14.4067ZM18.6368 11.2147C18.4469 11.2147 18.2612 11.271 18.1033 11.3765C17.9453 11.482 17.8222 11.632 17.7495 11.8075C17.6769 11.983 17.6578 12.1761 17.6949 12.3624C17.7319 12.5487 17.8234 12.7198 17.9577 12.8542C18.092 12.9885 18.2632 13.0799 18.4495 13.117C18.6358 13.1541 18.8289 13.135 19.0044 13.0623C19.1799 12.9897 19.3299 12.8666 19.4354 12.7086C19.5409 12.5507 19.5972 12.365 19.5972 12.1751C19.5972 11.9203 19.4961 11.6761 19.3159 11.4959C19.1358 11.3158 18.8916 11.2147 18.6368 11.2147Z" fill="white" stroke="white" stroke-width="0.5"/>
<path d="M12.8356 14.4067C12.3964 14.4067 11.9671 14.2765 11.6019 14.0325C11.2367 13.7885 10.9521 13.4417 10.784 13.0359C10.616 12.6302 10.572 12.1837 10.6577 11.7529C10.7433 11.3222 10.9548 10.9265 11.2654 10.616C11.5759 10.3054 11.9716 10.0939 12.4024 10.0082C12.8331 9.92256 13.2796 9.96654 13.6853 10.1346C14.0911 10.3027 14.4379 10.5873 14.6819 10.9525C14.9259 11.3176 15.0561 11.747 15.0561 12.1862C15.0561 12.7751 14.8222 13.3399 14.4058 13.7563C13.9893 14.1728 13.4245 14.4067 12.8356 14.4067ZM12.8356 11.2147C12.6454 11.2136 12.4592 11.2689 12.3005 11.3738C12.1418 11.4787 12.0179 11.6283 11.9443 11.8037C11.8708 11.9791 11.851 12.1723 11.8874 12.359C11.9238 12.5457 12.0149 12.7173 12.1489 12.8522C12.283 12.987 12.4542 13.0791 12.6406 13.1166C12.827 13.1541 13.0204 13.1354 13.1963 13.0629C13.3721 12.9903 13.5224 12.8672 13.6282 12.7092C13.7339 12.5511 13.7904 12.3652 13.7904 12.1751C13.7904 11.9213 13.69 11.6779 13.5111 11.4979C13.3322 11.318 13.0893 11.2161 12.8356 11.2147Z" fill="white" stroke="white" stroke-width="0.5"/>
<path d="M24.4437 14.4067C24.0045 14.4067 23.5752 14.2765 23.21 14.0325C22.8449 13.7885 22.5602 13.4417 22.3922 13.0359C22.2241 12.6302 22.1801 12.1837 22.2658 11.7529C22.3515 11.3222 22.563 10.9265 22.8735 10.616C23.1841 10.3054 23.5798 10.0939 24.0105 10.0082C24.4413 9.92256 24.8877 9.96654 25.2935 10.1346C25.6993 10.3027 26.0461 10.5873 26.2901 10.9525C26.5341 11.3176 26.6643 11.747 26.6643 12.1862C26.6643 12.7751 26.4303 13.3399 26.0139 13.7563C25.5975 14.1728 25.0327 14.4067 24.4437 14.4067ZM24.4437 11.2147C24.2535 11.2136 24.0673 11.2689 23.9087 11.3738C23.75 11.4787 23.626 11.6283 23.5525 11.8037C23.4789 11.9791 23.4591 12.1723 23.4956 12.359C23.532 12.5457 23.623 12.7173 23.7571 12.8522C23.8912 12.987 24.0623 13.0791 24.2488 13.1166C24.4352 13.1541 24.6286 13.1354 24.8044 13.0629C24.9802 12.9903 25.1305 12.8672 25.2363 12.7092C25.3421 12.5511 25.3986 12.3652 25.3986 12.1751C25.3971 11.9217 25.2962 11.6791 25.1176 11.4995C24.939 11.3199 24.697 11.2176 24.4437 11.2147Z" fill="white" stroke="white" stroke-width="0.5"/>
</svg>
