<?xml version="1.0" encoding="utf-8"?>
<!-- Generator: Adobe Illustrator 23.0.1, SVG Export Plug-In . SVG Version: 6.00 Build 0)  -->
<svg version="1.1" id="Calque_1" xmlns="http://www.w3.org/2000/svg" xmlns:xlink="http://www.w3.org/1999/xlink" x="0px" y="0px"
	 viewBox="0 0 128 46" style="enable-background:new 0 0 128 46;" xml:space="preserve">
<style type="text/css">
	.st0{display:none;}
	.st1{display:inline;fill:#48B16D;}
	.st2{fill:#FFFFFF;}
</style>
<g class="st0">
	<path class="st1" d="M6.6,37.7h5.6c0.2,0,0.4,0,0.5,0.1c0.1,0,0.2,0.1,0.2,0.2c0,0.1,0.1,0.2,0.1,0.4s0,0.3-0.1,0.4
		c0,0.1-0.1,0.2-0.2,0.2c-0.1,0.1-0.3,0.1-0.5,0.1h-1.9v5c0,0.2,0,0.3,0,0.3c0,0.1,0,0.2-0.1,0.3c0,0.1-0.1,0.2-0.3,0.2
		C9.8,45,9.6,45,9.4,45c-0.2,0-0.4,0-0.5-0.1c-0.1,0-0.2-0.1-0.3-0.2c0-0.1-0.1-0.2-0.1-0.3s0-0.2,0-0.3v-5H6.6
		c-0.2,0-0.4,0-0.5-0.1c0,0-0.1-0.1-0.1-0.2c0-0.1,0-0.2,0-0.4s0-0.3,0-0.4c0-0.1,0.1-0.2,0.2-0.2C6.3,37.7,6.4,37.7,6.6,37.7z
		 M19.1,43.8c0.1,0.2,0.2,0.4,0.2,0.5c0,0.3-0.2,0.5-0.6,0.6C18.5,45,18.3,45,18.2,45s-0.2,0-0.3-0.1c-0.1-0.1-0.1-0.1-0.2-0.2
		c-0.1-0.1-0.3-0.7-0.8-1.8h-0.3h-1.3V44c0,0.2,0,0.3,0,0.3c0,0.1,0,0.2-0.1,0.3C15,44.9,14.8,45,14.4,45c-0.5,0-0.7-0.1-0.8-0.4
		c0-0.1-0.1-0.3-0.1-0.5v-5.5c0-0.2,0-0.3,0-0.3c0-0.1,0-0.2,0.1-0.3c0.1-0.2,0.4-0.3,0.8-0.3h2.2c0.6,0,1.2,0.2,1.7,0.6
		c0.3,0.2,0.5,0.5,0.7,0.8c0.2,0.4,0.3,0.7,0.3,1.2c0,0.8-0.2,1.4-0.8,1.9C18.6,42.5,18.8,43.1,19.1,43.8z M15.3,41.2h1.3
		c0.2,0,0.4-0.1,0.6-0.2c0.2-0.1,0.3-0.4,0.3-0.7s-0.1-0.5-0.3-0.7c-0.2-0.2-0.4-0.2-0.6-0.2h-1.3V41.2z M23.1,37.6
		c1,0,1.8,0.4,2.6,1.1c0.7,0.7,1.1,1.6,1.1,2.7c0,1.1-0.3,2-1,2.7s-1.5,1.1-2.6,1.1c-1,0-1.9-0.4-2.6-1.1c-0.7-0.7-1.1-1.6-1.1-2.6
		c0-0.6,0.1-1.1,0.3-1.6c0.2-0.5,0.5-0.9,0.8-1.2s0.7-0.6,1.1-0.8C22.2,37.7,22.7,37.6,23.1,37.6z M21.3,41.3c0,0.6,0.2,1.1,0.6,1.5
		s0.8,0.5,1.3,0.5s0.9-0.2,1.3-0.5c0.4-0.4,0.6-0.8,0.6-1.5s-0.2-1.1-0.6-1.5s-0.8-0.6-1.3-0.6s-0.9,0.2-1.3,0.6
		C21.5,40.3,21.3,40.8,21.3,41.3z M32.2,37.9c0.1-0.1,0.2-0.2,0.3-0.2s0.3-0.1,0.5-0.1s0.3,0,0.5,0c0.1,0,0.2,0.1,0.3,0.1
		s0.1,0.1,0.1,0.2c0,0.1,0.1,0.3,0.1,0.5v3c0,0.9-0.3,1.7-0.8,2.4c-0.3,0.3-0.6,0.6-1,0.8c-0.4,0.2-0.9,0.3-1.4,0.3s-1-0.1-1.4-0.3
		s-0.8-0.5-1-0.8c-0.5-0.7-0.8-1.5-0.8-2.4v-3c0-0.2,0-0.3,0-0.3c0-0.1,0-0.2,0.1-0.3s0.1-0.2,0.3-0.2c0.1,0,0.3-0.1,0.5-0.1
		s0.4,0,0.5,0.1c0.1,0,0.2,0.1,0.3,0.2c0.1,0.2,0.1,0.4,0.1,0.6v3c0,0.4,0.1,0.8,0.3,1.2c0.1,0.2,0.2,0.3,0.5,0.4
		c0.2,0.1,0.4,0.2,0.7,0.2c0.5,0,0.9-0.2,1.1-0.5c0.2-0.3,0.4-0.8,0.4-1.2v-3.1C32.1,38.2,32.2,38,32.2,37.9z M41.4,37.8
		c0.4,0.2,0.6,0.4,0.6,0.6c0,0.1,0,0.3-0.2,0.5L39,44.5c-0.1,0.1-0.2,0.3-0.3,0.4C38.6,45,38.4,45,38.2,45h-0.1
		c-0.2,0-0.3,0-0.5-0.1c-0.1-0.1-0.3-0.2-0.3-0.4l-2.8-5.6c-0.1-0.2-0.1-0.4-0.1-0.5c0-0.2,0.2-0.4,0.6-0.6c0.2-0.1,0.4-0.2,0.5-0.2
		s0.2,0,0.3,0s0.1,0.1,0.2,0.1c0.1,0.1,0.1,0.2,0.2,0.3c0.1,0.1,0.2,0.4,0.4,0.8c0.2,0.5,0.4,0.9,0.7,1.5c0.2,0.5,0.5,1,0.7,1.5
		s0.3,0.7,0.4,0.8l2-4.4c0.1-0.1,0.1-0.2,0.1-0.3c0.1-0.2,0.3-0.3,0.4-0.3C41,37.6,41.2,37.7,41.4,37.8z M44.3,43.2h3.1
		c0.2,0,0.3,0,0.3,0c0.1,0,0.2,0,0.3,0.1c0.2,0.1,0.3,0.4,0.3,0.8c0,0.5-0.1,0.7-0.4,0.8c-0.1,0-0.3,0.1-0.5,0.1h-4
		c-0.5,0-0.7-0.1-0.8-0.4c0-0.1-0.1-0.3-0.1-0.5v-5.6c0-0.3,0.1-0.6,0.2-0.7c0.1-0.1,0.4-0.2,0.7-0.2h3.9c0.2,0,0.3,0,0.3,0
		c0.1,0,0.2,0,0.3,0.1c0.2,0.1,0.3,0.4,0.3,0.8c0,0.5-0.1,0.7-0.4,0.8c-0.1,0-0.3,0.1-0.5,0.1h-3.1v1h2c0.2,0,0.3,0,0.3,0
		c0.1,0,0.2,0,0.3,0.1c0.2,0.1,0.3,0.4,0.3,0.8c0,0.5-0.1,0.7-0.4,0.8c-0.1,0-0.3,0.1-0.5,0.1h-2v1H44.3z M54.5,43.8
		c0.1,0.2,0.1,0.4,0.1,0.5c0,0.3-0.2,0.5-0.6,0.6C53.8,45,53.6,45,53.5,45s-0.2,0-0.3-0.1s-0.1-0.1-0.2-0.2c0-0.1-0.3-0.7-0.7-1.7
		H52h-1.3v1.1c0,0.2,0,0.3,0,0.3c0,0.1,0,0.2-0.1,0.3c-0.1,0.2-0.4,0.3-0.8,0.3c-0.5,0-0.7-0.1-0.8-0.4c0-0.1-0.1-0.3-0.1-0.5v-5.5
		c0-0.2,0-0.3,0-0.3c0-0.1,0-0.2,0.1-0.3c0.1-0.2,0.4-0.3,0.8-0.3H52c0.6,0,1.2,0.2,1.7,0.6c0.3,0.2,0.5,0.5,0.7,0.8
		c0.2,0.4,0.3,0.7,0.3,1.2c0,0.8-0.2,1.4-0.8,1.9C54,42.5,54.2,43.1,54.5,43.8z M50.7,41.2H52c0.2,0,0.4-0.1,0.6-0.2
		c0.2-0.1,0.3-0.4,0.3-0.7s-0.1-0.5-0.3-0.7s-0.4-0.2-0.6-0.2h-1.3V41.2z M62.5,37.9c0.1-0.1,0.2-0.2,0.3-0.2s0.3-0.1,0.5-0.1
		s0.3,0,0.5,0c0.1,0,0.2,0.1,0.3,0.1s0.1,0.1,0.1,0.2c0,0.1,0.1,0.3,0.1,0.5v3c0,0.9-0.3,1.7-0.8,2.4c-0.3,0.3-0.6,0.6-1,0.8
		s-0.9,0.3-1.4,0.3s-1-0.1-1.4-0.3s-0.8-0.5-1-0.8c-0.5-0.7-0.8-1.5-0.8-2.4v-3c0-0.2,0-0.3,0-0.3c0-0.1,0-0.2,0.1-0.3
		s0.1-0.2,0.3-0.2c0.1,0,0.3-0.1,0.5-0.1s0.4,0,0.5,0.1c0.1,0,0.2,0.1,0.3,0.2c0.1,0.2,0.1,0.4,0.1,0.6v3c0,0.4,0.1,0.8,0.3,1.2
		c0.1,0.2,0.2,0.3,0.4,0.4c0.2,0.1,0.4,0.2,0.7,0.2c0.5,0,0.8-0.2,1.1-0.5c0.2-0.4,0.4-0.8,0.4-1.2v-3.1
		C62.4,38.2,62.5,38,62.5,37.9z M69.7,38c0.1-0.1,0.2-0.2,0.3-0.2c0.1,0,0.3-0.1,0.5-0.1s0.3,0,0.5,0c0.1,0,0.2,0.1,0.3,0.1
		c0.1,0,0.1,0.1,0.1,0.2c0,0.1,0.1,0.3,0.1,0.5V44c0,0.2,0,0.3,0,0.4c0,0.1,0,0.2-0.1,0.3C71.3,44.9,71,45,70.6,45
		c-0.3,0-0.4,0-0.5-0.1c-0.1,0-0.2-0.1-0.2-0.2c-1.5-2-2.5-3.3-3-3.9v3.3c0,0.2,0,0.3,0,0.4c0,0.1,0,0.2-0.1,0.3
		c-0.1,0.2-0.4,0.3-0.8,0.3s-0.7-0.1-0.8-0.3c-0.1-0.1-0.1-0.2-0.1-0.3s0-0.2,0-0.3v-5.6c0-0.3,0-0.4,0.1-0.5s0.2-0.2,0.3-0.2
		c0.1,0,0.3-0.1,0.5-0.1s0.4,0,0.5,0.1c0.1,0,0.2,0.1,0.2,0.1s0.1,0.1,0.2,0.3c1.4,1.9,2.3,3.2,2.8,3.8v-3.4
		C69.6,38.3,69.7,38.1,69.7,38z M74,43.2h3.1c0.2,0,0.3,0,0.3,0c0.1,0,0.2,0,0.3,0.1c0.2,0.1,0.3,0.4,0.3,0.8c0,0.5-0.1,0.7-0.4,0.8
		C77.4,45,77.3,45,77,45h-4c-0.5,0-0.7-0.1-0.8-0.4c0-0.1-0.1-0.3-0.1-0.5v-5.6c0-0.3,0.1-0.6,0.2-0.7c0.1-0.1,0.4-0.2,0.7-0.2h3.9
		c0.2,0,0.3,0,0.3,0c0.1,0,0.2,0,0.3,0.1c0.2,0.1,0.3,0.4,0.3,0.8c0,0.5-0.1,0.7-0.4,0.8c-0.1,0-0.3,0.1-0.5,0.1H74v1h2
		c0.2,0,0.3,0,0.3,0c0.1,0,0.2,0,0.3,0.1c0.2,0.1,0.3,0.4,0.3,0.8c0,0.5-0.1,0.7-0.4,0.8c-0.1,0-0.3,0.1-0.5,0.1h-2
		C74,42.2,74,43.2,74,43.2z M85.3,38.2l2.7,5.6c0.1,0.2,0.2,0.4,0.2,0.5c0,0.2-0.2,0.5-0.6,0.7c-0.2,0.1-0.4,0.2-0.5,0.2
		s-0.2,0-0.3-0.1c-0.1-0.1-0.1-0.1-0.2-0.2c0-0.1-0.1-0.2-0.1-0.3L86,43.5h-2.8l-0.5,1.1c-0.1,0.1-0.1,0.2-0.2,0.3
		c0,0.1-0.1,0.1-0.2,0.2c-0.1,0.1-0.2,0.1-0.3,0.1c-0.1,0-0.3-0.1-0.5-0.2c-0.4-0.2-0.6-0.4-0.6-0.6c0-0.1,0.1-0.3,0.2-0.5l2.7-5.6
		c0.1-0.2,0.2-0.3,0.3-0.4c0.2-0.1,0.3-0.1,0.5-0.1C84.9,37.7,85.2,37.8,85.3,38.2z M84.5,40.6L83.9,42h1.3L84.5,40.6z M92.6,40.6
		h1.8c0.4,0,0.6,0.1,0.7,0.3c0.1,0.1,0.1,0.3,0.1,0.6v2.2c0,0.2-0.1,0.4-0.3,0.6c-0.6,0.6-1.4,0.9-2.5,0.9c-1,0-1.9-0.4-2.6-1.1
		c-0.7-0.8-1.1-1.7-1.1-2.7c0-1.1,0.4-1.9,1.1-2.6c0.7-0.7,1.6-1.1,2.6-1.1c0.8,0,1.5,0.3,2.2,0.8c0.2,0.1,0.3,0.3,0.3,0.5
		s-0.1,0.3-0.2,0.6c-0.3,0.4-0.5,0.5-0.7,0.5c-0.1,0-0.3-0.1-0.6-0.3c-0.3-0.2-0.6-0.3-1-0.3c-0.5,0-1,0.2-1.3,0.5
		c-0.4,0.4-0.6,0.8-0.6,1.4c0,0.6,0.2,1.1,0.6,1.5s0.9,0.6,1.4,0.6c0.4,0,0.7-0.1,1-0.2V42h-0.8c-0.2,0-0.4,0-0.4-0.1
		c-0.1-0.1-0.1-0.1-0.2-0.2c0-0.1,0-0.2,0-0.4s0-0.3,0-0.4c0-0.1,0.1-0.2,0.2-0.2C92.2,40.6,92.4,40.6,92.6,40.6z M97.7,43.2h3.1
		c0.2,0,0.3,0,0.3,0c0.1,0,0.2,0,0.3,0.1c0.2,0.1,0.3,0.4,0.3,0.8c0,0.5-0.1,0.7-0.4,0.8c-0.1,0-0.3,0.1-0.5,0.1h-4
		c-0.5,0-0.7-0.1-0.8-0.4c0-0.1-0.1-0.3-0.1-0.5v-5.6c0-0.3,0.1-0.6,0.2-0.7c0.1-0.1,0.4-0.2,0.7-0.2h3.9c0.2,0,0.3,0,0.3,0
		c0.1,0,0.2,0,0.3,0.1c0.2,0.1,0.3,0.4,0.3,0.8c0,0.5-0.1,0.7-0.4,0.8c-0.1,0-0.3,0.1-0.5,0.1h-3.1v1h2c0.2,0,0.3,0,0.3,0
		c0.1,0,0.2,0,0.3,0.1c0.2,0.1,0.3,0.4,0.3,0.8c0,0.5-0.1,0.7-0.4,0.8c-0.1,0-0.3,0.1-0.5,0.1h-2L97.7,43.2L97.7,43.2z M107,38
		c0.1-0.1,0.2-0.2,0.3-0.2c0.1,0,0.3-0.1,0.5-0.1s0.3,0,0.5,0c0.1,0,0.2,0.1,0.3,0.1c0.1,0,0.1,0.1,0.1,0.2c0,0.1,0.1,0.3,0.1,0.5
		V44c0,0.2,0,0.3,0,0.4c0,0.1,0,0.2-0.1,0.3c-0.1,0.2-0.4,0.3-0.8,0.3c-0.3,0-0.4,0-0.5-0.1c-0.1,0-0.2-0.1-0.2-0.2
		c-1.5-2-2.5-3.3-3-3.9v3.3c0,0.2,0,0.3,0,0.4c0,0.1,0,0.2-0.1,0.3c-0.1,0.2-0.4,0.3-0.8,0.3s-0.7-0.1-0.8-0.3
		c-0.1-0.1-0.1-0.2-0.1-0.3s0-0.2,0-0.3v-5.6c0-0.3,0-0.4,0.1-0.5s0.2-0.2,0.3-0.2c0.1,0,0.3-0.1,0.5-0.1s0.4,0,0.5,0.1
		c0.1,0,0.2,0.1,0.2,0.1s0.1,0.1,0.2,0.3c1.4,1.9,2.3,3.2,2.8,3.8v-3.4C106.9,38.3,106.9,38.1,107,38z M114,43.1l0.2-0.1
		c0.2-0.1,0.4-0.2,0.5-0.2c0.2,0,0.4,0.2,0.7,0.6c0.1,0.2,0.2,0.4,0.2,0.6s0,0.3-0.1,0.4c-0.1,0.1-0.2,0.2-0.3,0.2
		c-0.1,0.1-0.2,0.1-0.4,0.2c-0.1,0.1-0.3,0.2-0.7,0.3c-0.3,0.1-0.7,0.2-1,0.2s-0.6,0-1-0.1c-0.3-0.1-0.7-0.2-1-0.4s-0.6-0.4-0.9-0.7
		s-0.5-0.7-0.7-1.1c-0.2-0.4-0.3-0.9-0.3-1.5s0.1-1,0.3-1.4c0.2-0.4,0.4-0.8,0.7-1c0.3-0.3,0.6-0.5,0.9-0.7c0.7-0.4,1.3-0.5,2-0.5
		c0.3,0,0.6,0.1,0.9,0.2c0.3,0.1,0.6,0.2,0.7,0.3l0.2,0.1c0.1,0.1,0.2,0.1,0.3,0.2c0.2,0.1,0.3,0.3,0.3,0.5s-0.1,0.4-0.2,0.5
		c-0.3,0.4-0.5,0.5-0.7,0.5c-0.1,0-0.3-0.1-0.5-0.2c-0.3-0.2-0.7-0.3-1.1-0.3s-0.9,0.2-1.3,0.5c-0.2,0.1-0.4,0.4-0.5,0.6
		c-0.1,0.3-0.2,0.6-0.2,0.9c0,0.3,0.1,0.6,0.2,0.9c0.1,0.3,0.3,0.5,0.5,0.6c0.4,0.3,0.8,0.4,1.3,0.4c0.2,0,0.4,0,0.6-0.1
		C113.8,43.2,114,43.1,114,43.1z M118,43.2h3.1c0.2,0,0.3,0,0.3,0c0.1,0,0.2,0,0.3,0.1c0.2,0.1,0.3,0.4,0.3,0.8
		c0,0.5-0.1,0.7-0.4,0.8c-0.1,0-0.3,0.1-0.5,0.1h-4c-0.5,0-0.7-0.1-0.8-0.4c0-0.1-0.1-0.3-0.1-0.5v-5.6c0-0.3,0.1-0.6,0.2-0.7
		c0.1-0.1,0.4-0.2,0.7-0.2h3.9c0.2,0,0.3,0,0.3,0c0.1,0,0.2,0,0.3,0.1c0.2,0.1,0.3,0.4,0.3,0.8c0,0.5-0.1,0.7-0.4,0.8
		c-0.1,0-0.3,0.1-0.5,0.1h-3v1h2c0.2,0,0.3,0,0.3,0c0.1,0,0.2,0,0.3,0.1c0.2,0.1,0.3,0.4,0.3,0.8c0,0.5-0.1,0.7-0.4,0.8
		c-0.1,0-0.3,0.1-0.5,0.1h-2C118,42.2,118,43.2,118,43.2z"/>
	<path class="st1" d="M63.6,0C57.7,0,53,4.7,53,10.6c0,3,1.5,5.8,3,8.3c1.8,3.2,4,6.1,6.5,8.7c0.5,0.6,1.4,0.6,2,0
		c2.2-2.2,4.2-4.7,5.9-7.3c1.8-2.9,3.7-6.2,3.7-9.7C74.1,4.7,69.4,0,63.6,0z M63.6,16.7c-3.5,0-6.4-2.9-6.4-6.4s2.9-6.4,6.4-6.4
		S70,6.7,70,10.3C70,13.8,67.1,16.7,63.6,16.7z"/>
</g>
<g>
	<path class="st2" d="M72.1,30.8c-1.2,0.2-2.4,0-3.5-0.4c-2.5-0.9-4.7-2.2-6.7-4c-2.5-2.1-4.8-4.6-7.1-8.1c-1.4-2-2.5-4-3.6-6.2
		c-0.7-1.4-1.1-3-1.2-4.5c0-2.8,1.7-5.4,4.3-6.5c0.4-0.2,0.8-0.3,1.1-0.4h0.1c0.9-0.3,1.8,0,2.4,0.8c0.9,1.1,1.8,2.1,2.7,3.2
		l1.6,1.8C62.6,7,63,7.5,63.5,8c0.7,0.7,0.8,1.7,0.4,2.5c-0.6,1.4-1.6,2.6-2.9,3.4c1.5,1.9,3,3.7,4.6,5.4c0.1-0.1,0.1-0.2,0.2-0.2
		c1-1.1,2.3-1.9,3.7-2.2c0.8-0.2,1.7,0.1,2.2,0.7l0.2,0.2c1.8,2.2,3.7,4.3,5.5,6.4c0.6,0.7,0.7,1.6,0.3,2.4
		C76.8,28.8,74.6,30.4,72.1,30.8z M56.1,2.4C56.1,2.4,56,2.4,56.1,2.4l-0.2,0.1c-0.3,0.1-0.7,0.2-1,0.3c-1.8,0.7-3.2,2.8-3.1,4.8
		c0.1,1.3,0.4,2.6,1,3.8c1,2.1,2.1,4.1,3.4,5.9c2.3,3.3,4.4,5.8,6.8,7.7c1.8,1.6,3.9,2.8,6.2,3.6c2.7,1,5.8-0.3,6.9-3
		c0.1-0.3,0.1-0.4,0-0.5c-1.8-2.2-3.7-4.3-5.5-6.4l-0.2-0.2c-0.1-0.2-0.3-0.2-0.4-0.1c-1.1,0.2-2,0.8-2.8,1.6
		c-0.2,0.2-0.3,0.4-0.5,0.6L66.4,21l-0.6,0.8L65,21.2c-2.1-2-3.9-4.3-5.8-6.5L58,13.2l1-0.6c0.1-0.1,0.2-0.1,0.2-0.1
		c1.3-0.5,2.2-1.6,2.8-2.9c0.1-0.2,0.1-0.4-0.1-0.6c-0.5-0.5-0.9-1-1.3-1.5L59,5.7c-0.9-1.1-1.8-2.1-2.7-3.2
		C56.3,2.4,56.2,2.4,56.1,2.4z"/>
	<path class="st2" d="M31.3,36.9c0.1-0.1,0.2-0.2,0.3-0.2c0.1,0,0.3-0.1,0.5-0.1s0.3,0,0.5,0.1c0.1,0,0.2,0.1,0.3,0.1S33,36.9,33,37
		c0,0.1,0.1,0.3,0.1,0.5V43c0,0.2,0,0.3,0,0.3c0,0.1,0,0.2-0.1,0.3c-0.1,0.2-0.4,0.3-0.8,0.3c-0.3,0-0.4,0-0.5-0.1s-0.2-0.1-0.2-0.2
		c-1.5-2-2.5-3.3-3-3.9V43c0,0.2,0,0.3,0,0.3c0,0.1,0,0.2-0.1,0.3c-0.1,0.2-0.4,0.3-0.8,0.3s-0.7-0.1-0.8-0.3
		c-0.1-0.1-0.1-0.2-0.1-0.3s0-0.2,0-0.3v-5.6c0-0.3,0-0.4,0.1-0.5s0.2-0.2,0.3-0.2c0.1,0,0.3-0.1,0.5-0.1s0.4,0,0.5,0.1
		c0.1,0,0.2,0.1,0.2,0.1s0.1,0.1,0.2,0.3c1.4,1.9,2.3,3.2,2.8,3.8v-3.4C31.2,37.2,31.2,37,31.3,36.9z M37.2,36.5
		c1,0,1.8,0.4,2.6,1.1s1.1,1.6,1.1,2.7c0,1.1-0.3,2-1,2.7s-1.5,1.1-2.6,1.1c-1,0-1.9-0.4-2.6-1.1c-0.7-0.7-1.1-1.6-1.1-2.6
		c0-0.6,0.1-1.1,0.3-1.5c0.2-0.5,0.5-0.9,0.8-1.2s0.7-0.6,1.2-0.8C36.3,36.6,36.7,36.5,37.2,36.5z M35.4,40.2c0,0.6,0.2,1.1,0.6,1.5
		c0.4,0.4,0.8,0.5,1.3,0.5s0.9-0.2,1.3-0.5c0.4-0.4,0.6-0.8,0.6-1.4s-0.2-1.1-0.6-1.5c-0.4-0.4-0.8-0.5-1.3-0.5s-0.9,0.2-1.3,0.6
		C35.5,39.2,35.4,39.6,35.4,40.2z M46.3,36.8c0.1-0.1,0.2-0.2,0.3-0.2s0.3-0.1,0.5-0.1s0.3,0,0.5,0s0.2,0.1,0.3,0.1s0.1,0.1,0.1,0.2
		c0,0.1,0.1,0.3,0.1,0.5v3c0,0.9-0.3,1.7-0.8,2.4c-0.3,0.3-0.6,0.6-1,0.8s-0.9,0.3-1.4,0.3s-1-0.1-1.4-0.3s-0.8-0.5-1-0.8
		c-0.5-0.7-0.8-1.5-0.8-2.4v-3c0-0.2,0-0.3,0-0.3c0-0.1,0-0.2,0.1-0.3s0.1-0.2,0.3-0.2c0.1,0,0.3-0.1,0.5-0.1s0.4,0,0.5,0.1
		c0.1,0,0.2,0.1,0.3,0.2c0.1,0.2,0.1,0.4,0.1,0.6v3c0,0.4,0.1,0.8,0.3,1.2c0.1,0.2,0.2,0.3,0.4,0.5c0.2,0.1,0.4,0.2,0.7,0.2
		c0.5,0,0.8-0.2,1.1-0.5c0.2-0.4,0.4-0.8,0.4-1.2v-3.1C46.2,37.1,46.2,36.9,46.3,36.8z M48.5,42.8c-0.2-0.2-0.3-0.4-0.3-0.6
		c0-0.2,0.1-0.4,0.4-0.7c0.2-0.2,0.3-0.2,0.5-0.2s0.4,0.2,0.8,0.5c0.1,0.1,0.2,0.2,0.4,0.3s0.3,0.2,0.5,0.2c0.6,0,0.9-0.3,0.9-0.8
		c0-0.2-0.1-0.3-0.3-0.4c-0.2-0.1-0.4-0.2-0.6-0.2c-0.3,0-0.5-0.1-0.8-0.2c-0.3-0.1-0.6-0.2-0.8-0.4c-0.3-0.1-0.5-0.4-0.6-0.7
		c-0.2-0.3-0.2-0.7-0.2-1.1c0-0.6,0.2-1.1,0.6-1.5c0.4-0.4,1-0.7,1.8-0.7c0.4,0,0.8,0.1,1.1,0.2c0.3,0.1,0.6,0.2,0.7,0.3l0.2,0.2
		c0.2,0.2,0.3,0.4,0.3,0.5S53,37.8,52.9,38c-0.2,0.3-0.5,0.5-0.7,0.5c-0.1,0-0.3-0.1-0.5-0.2c0,0-0.1,0-0.1-0.1
		c-0.1-0.1-0.1-0.1-0.2-0.1C51.3,38,51.1,38,50.9,38s-0.4,0.1-0.5,0.2c-0.1,0.1-0.2,0.2-0.2,0.4s0.1,0.3,0.2,0.4
		c0.2,0.1,0.4,0.2,0.6,0.2c0.3,0,0.5,0.1,0.8,0.2c0.3,0.1,0.6,0.2,0.8,0.3c0.3,0.1,0.5,0.3,0.6,0.6c0.2,0.3,0.3,0.7,0.3,1.1
		s-0.1,0.8-0.3,1.1s-0.4,0.6-0.7,0.8c-0.5,0.4-1.1,0.5-1.7,0.5c-0.3,0-0.6,0-0.9-0.1c-0.3-0.1-0.5-0.2-0.7-0.3
		C48.8,43.2,48.6,43,48.5,42.8L48.5,42.8z M61,37.1l2.7,5.6c0.1,0.2,0.2,0.4,0.2,0.5c0,0.2-0.2,0.5-0.6,0.7
		c-0.2,0.1-0.4,0.2-0.5,0.2s-0.2,0-0.3-0.1s-0.1-0.1-0.2-0.2c0-0.1-0.1-0.2-0.2-0.3l-0.5-1.1h-2.8l-0.5,1.1
		c-0.1,0.1-0.1,0.2-0.2,0.3c0,0.1-0.1,0.1-0.2,0.2c-0.1,0.1-0.2,0.1-0.3,0.1s-0.3-0.1-0.5-0.2c-0.4-0.2-0.6-0.4-0.6-0.6
		c0-0.1,0.1-0.3,0.2-0.5l2.7-5.6c0.1-0.2,0.2-0.3,0.3-0.4c0.2-0.1,0.3-0.1,0.5-0.1C60.6,36.5,60.9,36.7,61,37.1z M60.2,39.5
		l-0.7,1.4h1.3L60.2,39.5z M69.9,38c0.2,0.4,0.3,0.7,0.3,1.2S70,40,69.9,40.4c-0.2,0.3-0.4,0.6-0.7,0.8c-0.6,0.4-1.1,0.6-1.7,0.6
		h-1.2V43c0,0.2,0,0.3,0,0.3c0,0.1,0,0.2-0.1,0.3c-0.1,0.2-0.4,0.3-0.8,0.3c-0.5,0-0.7-0.1-0.8-0.4c0-0.1-0.1-0.3-0.1-0.5v-5.5
		c0-0.2,0-0.3,0-0.3c0-0.1,0-0.2,0.1-0.3c0.1-0.2,0.4-0.3,0.8-0.3h2.1c0.6,0,1.2,0.2,1.7,0.6C69.5,37.4,69.7,37.7,69.9,38z
		 M67.5,40.1c0.2,0,0.4-0.1,0.6-0.2c0.2-0.1,0.3-0.4,0.3-0.7s-0.1-0.5-0.3-0.7c-0.2-0.2-0.4-0.2-0.6-0.2h-1.2v1.8
		C66.3,40.1,67.5,40.1,67.5,40.1z M76.2,38c0.2,0.4,0.3,0.7,0.3,1.2s-0.1,0.8-0.3,1.2c-0.2,0.3-0.4,0.6-0.7,0.8
		c-0.6,0.4-1.1,0.6-1.7,0.6h-1.2V43c0,0.2,0,0.3,0,0.3c0,0.1,0,0.2-0.1,0.3c-0.1,0.2-0.4,0.3-0.8,0.3c-0.5,0-0.7-0.1-0.8-0.4
		c0-0.1-0.1-0.3-0.1-0.5v-5.5c0-0.2,0-0.3,0-0.3c0-0.1,0-0.2,0.1-0.3c0.1-0.2,0.4-0.3,0.8-0.3h2.1c0.6,0,1.2,0.2,1.7,0.6
		C75.8,37.4,76,37.7,76.2,38z M73.8,40.1c0.2,0,0.4-0.1,0.6-0.2c0.2-0.1,0.3-0.4,0.3-0.7s-0.1-0.5-0.3-0.7c-0.2-0.2-0.4-0.2-0.6-0.2
		h-1.2v1.8C72.6,40.1,73.8,40.1,73.8,40.1z M78.9,42.1H82c0.2,0,0.3,0,0.3,0c0.1,0,0.2,0,0.3,0.1c0.2,0.1,0.3,0.4,0.3,0.8
		c0,0.5-0.1,0.7-0.4,0.8c-0.1,0-0.3,0.1-0.5,0.1h-4c-0.5,0-0.7-0.1-0.8-0.4c0-0.1-0.1-0.3-0.1-0.5v-5.6c0-0.3,0.1-0.6,0.2-0.7
		c0.1-0.1,0.4-0.2,0.7-0.2h3.9c0.2,0,0.3,0,0.3,0c0.1,0,0.2,0,0.3,0.1c0.2,0.1,0.3,0.4,0.3,0.8c0,0.5-0.1,0.7-0.4,0.8
		c-0.1,0-0.3,0.1-0.5,0.1h-3.1v1h2c0.2,0,0.3,0,0.3,0c0.1,0,0.2,0,0.3,0.1c0.2,0.1,0.3,0.4,0.3,0.8c0,0.5-0.1,0.7-0.4,0.8
		c-0.1,0-0.3,0.1-0.5,0.1h-2L78.9,42.1L78.9,42.1z M85.2,42.4h2.7c0.2,0,0.4,0,0.5,0.1c0.1,0,0.2,0.1,0.2,0.2c0,0.1,0,0.2,0,0.4
		s0,0.3,0,0.4c0,0.1-0.1,0.2-0.2,0.2c-0.1,0.1-0.3,0.1-0.5,0.1h-3.6c-0.5,0-0.7-0.1-0.8-0.4c0-0.1-0.1-0.3-0.1-0.5v-5.6
		c0-0.2,0-0.3,0-0.3c0-0.1,0-0.2,0.1-0.3c0.1-0.2,0.4-0.3,0.8-0.3c0.5,0,0.7,0.1,0.8,0.4c0,0.1,0.1,0.3,0.1,0.5V42.4z M91.1,42.1
		h3.1c0.2,0,0.3,0,0.3,0c0.1,0,0.2,0,0.3,0.1c0.2,0.1,0.3,0.4,0.3,0.8c0,0.5-0.1,0.7-0.4,0.8c-0.1,0-0.3,0.1-0.5,0.1h-4
		c-0.5,0-0.7-0.1-0.8-0.4c0-0.1-0.1-0.3-0.1-0.5v-5.6c0-0.3,0.1-0.6,0.2-0.7c0.1-0.1,0.4-0.2,0.7-0.2h3.9c0.2,0,0.3,0,0.3,0
		c0.1,0,0.2,0,0.3,0.1c0.2,0.1,0.3,0.4,0.3,0.8c0,0.5-0.1,0.7-0.4,0.8c-0.1,0-0.3,0.1-0.5,0.1H91v1h2c0.2,0,0.3,0,0.3,0
		c0.1,0,0.2,0,0.3,0.1c0.2,0.1,0.3,0.4,0.3,0.8c0,0.5-0.1,0.7-0.4,0.8c-0.1,0-0.3,0.1-0.5,0.1h-2L91.1,42.1L91.1,42.1z M101.3,42.6
		c0.1,0.2,0.2,0.4,0.2,0.5c0,0.3-0.2,0.5-0.6,0.6c-0.2,0.1-0.4,0.1-0.5,0.1s-0.2,0-0.3-0.1c-0.1-0.1-0.1-0.1-0.2-0.2
		c-0.1-0.1-0.3-0.7-0.8-1.8h-0.3h-1.3V43c0,0.2,0,0.3,0,0.3c0,0.1,0,0.2-0.1,0.3c-0.1,0.2-0.4,0.3-0.8,0.3c-0.5,0-0.7-0.1-0.8-0.4
		c0-0.1-0.1-0.3-0.1-0.5v-5.5c0-0.2,0-0.3,0-0.3c0-0.1,0-0.2,0.1-0.3c0.1-0.2,0.4-0.3,0.8-0.3h2.2c0.6,0,1.2,0.2,1.7,0.6
		c0.3,0.2,0.5,0.5,0.7,0.8c0.2,0.4,0.3,0.7,0.3,1.2c0,0.8-0.2,1.4-0.8,1.9C100.8,41.4,101,41.9,101.3,42.6z M97.5,40.1h1.3
		c0.2,0,0.4-0.1,0.6-0.2c0.2-0.1,0.3-0.4,0.3-0.7s-0.1-0.5-0.3-0.7c-0.2-0.2-0.4-0.2-0.6-0.2h-1.3V40.1z"/>
</g>
</svg>
