<?xml version="1.0" encoding="utf-8"?>
<!-- Generator: Adobe Illustrator 23.0.1, SVG Export Plug-In . SVG Version: 6.00 Build 0)  -->
<svg version="1.1" id="Calque_1" xmlns="http://www.w3.org/2000/svg" xmlns:xlink="http://www.w3.org/1999/xlink" x="0px" y="0px"
	 viewBox="0 0 76 45" style="enable-background:new 0 0 76 45;" xml:space="preserve">
<style type="text/css">
	.st0{fill:#FFFFFF;}
</style>
<path class="st0" d="M26.1,42.2h3.1c0.2,0,0.3,0,0.3,0c0.1,0,0.2,0,0.3,0.1c0.2,0.1,0.3,0.4,0.3,0.8c0,0.5-0.1,0.7-0.4,0.8
	c-0.1,0-0.3,0.1-0.5,0.1h-4c-0.5,0-0.7-0.1-0.8-0.4c0-0.1-0.1-0.3-0.1-0.5v-5.6c0-0.3,0.1-0.6,0.2-0.7c0.1-0.1,0.4-0.2,0.7-0.2h3.9
	c0.2,0,0.3,0,0.3,0c0.1,0,0.2,0,0.3,0.1c0.2,0.1,0.3,0.4,0.3,0.8c0,0.5-0.1,0.7-0.4,0.8c-0.1,0-0.3,0.1-0.5,0.1h-3.1v1h2
	c0.2,0,0.3,0,0.3,0c0.1,0,0.2,0,0.3,0.1c0.2,0.1,0.3,0.4,0.3,0.8c0,0.5-0.1,0.7-0.4,0.8c-0.1,0-0.3,0.1-0.5,0.1h-2V42.2z M38.5,36.9
	c0.1,0.1,0.1,0.2,0.1,0.3c0,0.1,0,0.2,0,0.3v5.5c0,0.5-0.1,0.7-0.4,0.8c-0.1,0-0.3,0.1-0.5,0.1c-0.2,0-0.3,0-0.5-0.1
	c-0.1,0-0.2-0.1-0.3-0.1s-0.1-0.1-0.1-0.2c0-0.1,0-0.3,0-0.5v-3.3c-0.2,0.2-0.4,0.5-0.7,1c-0.3,0.4-0.5,0.7-0.6,0.8
	c-0.1,0.1-0.1,0.2-0.2,0.2c0,0-0.1,0.1-0.2,0.2c-0.1,0.1-0.3,0.1-0.4,0.1c-0.1,0-0.3,0-0.4-0.1c-0.1-0.1-0.2-0.1-0.3-0.2l-0.1-0.1
	c-0.1-0.2-0.4-0.5-0.8-1.1c-0.4-0.5-0.6-0.8-0.6-0.9v3.4c0,0.2,0,0.3,0,0.4c0,0.1,0,0.2-0.1,0.2C32.3,43.9,32,44,31.6,44
	c-0.4,0-0.7-0.1-0.8-0.3c-0.1-0.1-0.1-0.2-0.1-0.3c0-0.1,0-0.2,0-0.4v-5.5c0-0.2,0-0.3,0-0.3c0-0.1,0-0.2,0.1-0.3
	c0.1-0.2,0.4-0.3,0.8-0.3c0.2,0,0.3,0,0.5,0.1c0.1,0,0.2,0.1,0.3,0.1l0.1,0.1l2.3,3c1.1-1.5,1.9-2.5,2.3-3c0.1-0.2,0.4-0.3,0.8-0.3
	C38.1,36.7,38.4,36.8,38.5,36.9z M43.6,37.2l2.7,5.6c0.1,0.2,0.2,0.4,0.2,0.5c0,0.2-0.2,0.5-0.6,0.7c-0.2,0.1-0.4,0.2-0.5,0.2
	c-0.1,0-0.2,0-0.3-0.1c-0.1-0.1-0.1-0.1-0.2-0.2c0-0.1-0.1-0.2-0.2-0.3l-0.5-1.1h-2.8l-0.5,1.1c-0.1,0.1-0.1,0.2-0.2,0.3
	c0,0.1-0.1,0.1-0.2,0.2c-0.1,0.1-0.2,0.1-0.3,0.1c-0.1,0-0.3-0.1-0.5-0.2c-0.4-0.2-0.6-0.4-0.6-0.6c0-0.1,0.1-0.3,0.2-0.5l2.7-5.6
	c0.1-0.2,0.2-0.3,0.3-0.4c0.2-0.1,0.3-0.1,0.5-0.1C43.2,36.7,43.5,36.8,43.6,37.2z M42.8,39.6L42.2,41h1.3L42.8,39.6z M47.1,37.5
	c0-0.2,0-0.3,0-0.3c0-0.1,0-0.2,0.1-0.3c0.1-0.2,0.4-0.3,0.8-0.3c0.5,0,0.7,0.1,0.8,0.4c0,0.1,0,0.3,0,0.5v5.6c0,0.2,0,0.3,0,0.4
	c0,0.1,0,0.2-0.1,0.3c-0.1,0.2-0.4,0.3-0.8,0.3c-0.5,0-0.7-0.1-0.8-0.4c0-0.1-0.1-0.3-0.1-0.5V37.5z M51.4,42.5h2.7
	c0.2,0,0.4,0,0.5,0.1c0.1,0,0.2,0.1,0.2,0.2c0,0.1,0.1,0.2,0.1,0.4c0,0.2,0,0.3-0.1,0.4s-0.1,0.2-0.2,0.2C54.5,44,54.3,44,54.1,44
	h-3.6c-0.5,0-0.7-0.1-0.8-0.4c0-0.1-0.1-0.3-0.1-0.5v-5.6c0-0.2,0-0.3,0-0.3c0-0.1,0-0.2,0.1-0.3c0.1-0.2,0.4-0.3,0.8-0.3
	c0.5,0,0.7,0.1,0.8,0.4c0,0.1,0,0.3,0,0.5V42.5z"/>
<path class="st0" d="M57.4,0H20.6c-0.6,0-1.1,0.5-1.1,1.1v25.6c0,0.6,0.5,1.1,1.1,1.1h36.8c0.6,0,1.1-0.5,1.1-1.1V1
	C58.5,0.5,58,0,57.4,0z M56.3,25.6H21.6V2.1h34.7V25.6z"/>
<path class="st0" d="M23.8,6.1L34,13.5l-10.3,8.1c-0.5,0.4-0.5,1-0.2,1.5c0.2,0.3,0.5,0.4,0.8,0.4c0.2,0,0.5-0.1,0.7-0.2l10.8-8.5
	l2.6,1.8c0.2,0.2,0.4,0.2,0.6,0.2c0.2,0,0.4-0.1,0.6-0.2l2.6-1.8L53,23.4c0.2,0.2,0.4,0.2,0.7,0.2c0.3,0,0.6-0.2,0.8-0.4
	c0.4-0.5,0.3-1.1-0.2-1.5l-10.4-8.2L54.2,6c0.5-0.4,0.6-1,0.3-1.5c-0.4-0.5-1-0.6-1.5-0.3L39,14.5L25,4.3c-0.5-0.4-1.1-0.3-1.5,0.3
	C23.2,5.1,23.3,5.7,23.8,6.1z"/>
</svg>
